<svg width="73" height="72" viewBox="0 0 73 72" fill="none" xmlns="http://www.w3.org/2000/svg">
<path d="M27.3852 56.7324L27.8495 56.1434L27.3852 56.7324ZM36.5 16.5017L35.9596 17.0218C36.101 17.1686 36.2961 17.2517 36.5 17.2517C36.7039 17.2517 36.899 17.1686 37.0404 17.0218L36.5 16.5017ZM45.6148 56.7324L46.0791 57.3214L45.6148 56.7324ZM27.8495 56.1434C23.3915 52.6291 18.2534 49.0069 14.1933 44.4351C10.1589 39.8923 7.25 34.4714 7.25 27.411H5.75C5.75 34.9395 8.87021 40.7001 13.0717 45.4311C17.2475 50.1332 22.5519 53.8773 26.9209 57.3214L27.8495 56.1434ZM7.25 27.411C7.25 20.3972 11.2154 14.4377 16.7495 11.9081C22.2362 9.40009 29.4018 10.2084 35.9596 17.0218L37.0404 15.9816C30.0987 8.76937 22.2643 7.738 16.1259 10.5439C10.0348 13.3281 5.75 19.836 5.75 27.411H7.25ZM26.9209 57.3214C28.4714 58.5437 30.0404 59.7688 31.6073 60.6844C33.1739 61.5999 34.8096 62.2498 36.5 62.2498V60.7498C35.1904 60.7498 33.8261 60.2437 32.364 59.3893C30.9022 58.5351 29.4138 57.3766 27.8495 56.1434L26.9209 57.3214ZM46.0791 57.3214C50.4481 53.8773 55.7525 50.1332 59.9283 45.4311C64.1298 40.7001 67.25 34.9395 67.25 27.411H65.75C65.75 34.4714 62.8411 39.8923 58.8067 44.4351C54.7466 49.0069 49.6084 52.6291 45.1505 56.1434L46.0791 57.3214ZM67.25 27.411C67.25 19.836 62.9652 13.3281 56.8741 10.5439C50.7357 7.738 42.9013 8.76937 35.9596 15.9816L37.0404 17.0218C43.5982 10.2084 50.7638 9.40009 56.2505 11.9081C61.7846 14.4377 65.75 20.3972 65.75 27.411H67.25ZM45.1505 56.1434C43.5862 57.3766 42.0978 58.5351 40.636 59.3893C39.1739 60.2437 37.8096 60.7498 36.5 60.7498V62.2498C38.1904 62.2498 39.8261 61.5999 41.3927 60.6844C42.9596 59.7688 44.5286 58.5437 46.0791 57.3214L45.1505 56.1434Z" fill="#1F3D83"/>
</svg>
