<svg width="72" height="72" viewBox="0 0 72 72" fill="none" xmlns="http://www.w3.org/2000/svg">
<circle cx="36" cy="18" r="12" stroke="#1F3D83" stroke-width="1.5"/>
<path d="M54 27C58.9706 27 63 23.6421 63 19.5C63 15.3579 58.9706 12 54 12" stroke="#1F3D83" stroke-width="1.5" stroke-linecap="round"/>
<path d="M18 27C13.0294 27 9 23.6421 9 19.5C9 15.3579 13.0294 12 18 12" stroke="#1F3D83" stroke-width="1.5" stroke-linecap="round"/>
<ellipse cx="36" cy="51" rx="18" ry="12" stroke="#1F3D83" stroke-width="1.5"/>
<path d="M60 57C65.2627 55.8459 69 52.9232 69 49.5C69 46.0768 65.2627 43.1541 60 42" stroke="#1F3D83" stroke-width="1.5" stroke-linecap="round"/>
<path d="M12 57C6.73726 55.8459 3 52.9232 3 49.5C3 46.0768 6.73726 43.1541 12 42" stroke="#1F3D83" stroke-width="1.5" stroke-linecap="round"/>
</svg>
