<svg width="73" height="72" viewBox="0 0 73 72" fill="none" xmlns="http://www.w3.org/2000/svg">
<path d="M29.8435 11.6723C31.5351 10.2307 32.3809 9.5099 33.2653 9.08722C35.3106 8.1096 37.6885 8.1096 39.7338 9.08722C40.6182 9.5099 41.464 10.2307 43.1556 11.6723C43.8289 12.246 44.1655 12.5329 44.525 12.7739C45.3492 13.3263 46.2747 13.7096 47.248 13.9018C47.6727 13.9856 48.1136 14.0208 48.9953 14.0912C51.2108 14.268 52.3186 14.3564 53.2428 14.6828C55.3804 15.4378 57.0618 17.1192 57.8168 19.2568C58.1432 20.181 58.2316 21.2887 58.4084 23.5043C58.4788 24.386 58.514 24.8269 58.5978 25.2515C58.79 26.2249 59.1733 27.1504 59.7257 27.9746C59.9667 28.3341 60.2535 28.6707 60.8273 29.344C62.2689 31.0356 62.9897 31.8814 63.4124 32.7657C64.39 34.8111 64.39 37.1889 63.4124 39.2343C62.9897 40.1187 62.2689 40.9645 60.8273 42.6561C60.2535 43.3294 59.9667 43.666 59.7257 44.0255C59.1733 44.8497 58.79 45.7752 58.5978 46.7485C58.514 47.1732 58.4788 47.614 58.4084 48.4958C58.2316 50.7113 58.1432 51.8191 57.8168 52.7433C57.0618 54.8809 55.3804 56.5622 53.2428 57.3173C52.3186 57.6437 51.2108 57.7321 48.9953 57.9089C48.1136 57.9793 47.6727 58.0144 47.248 58.0983C46.2747 58.2904 45.3492 58.6738 44.525 59.2262C44.1655 59.4672 43.8289 59.754 43.1556 60.3278C41.464 61.7694 40.6182 62.4902 39.7338 62.9129C37.6885 63.8905 35.3106 63.8905 33.2653 62.9129C32.3809 62.4902 31.5351 61.7694 29.8435 60.3278C29.1702 59.754 28.8336 59.4672 28.4741 59.2262C27.6499 58.6738 26.7244 58.2904 25.751 58.0983C25.3264 58.0144 24.8855 57.9793 24.0038 57.9089C21.7883 57.7321 20.6805 57.6437 19.7563 57.3173C17.6187 56.5622 15.9373 54.8809 15.1823 52.7433C14.8559 51.8191 14.7675 50.7113 14.5907 48.4958C14.5203 47.614 14.4851 47.1732 14.4013 46.7485C14.2091 45.7752 13.8258 44.8496 13.2734 44.0255C13.0324 43.666 12.7455 43.3294 12.1718 42.6561C10.7302 40.9645 10.0094 40.1187 9.58673 39.2343C8.60911 37.1889 8.60911 34.8111 9.58673 32.7657C10.0094 31.8814 10.7302 31.0356 12.1718 29.344C12.7455 28.6707 13.0324 28.3341 13.2734 27.9746C13.8258 27.1504 14.2091 26.2249 14.4013 25.2515C14.4851 24.8269 14.5203 24.386 14.5907 23.5043C14.7675 21.2887 14.8559 20.181 15.1823 19.2568C15.9373 17.1192 17.6187 15.4378 19.7563 14.6828C20.6805 14.3564 21.7883 14.268 24.0038 14.0912C24.8855 14.0208 25.3264 13.9856 25.751 13.9018C26.7244 13.7096 27.6499 13.3263 28.4741 12.7739C28.8336 12.5329 29.1702 12.246 29.8435 11.6723Z" stroke="#1F3D83" stroke-width="1.5"/>
<path d="M26 37.5L32 43.5L47 28.5" stroke="#1F3D83" stroke-width="1.5" stroke-linecap="round" stroke-linejoin="round"/>
</svg>
