<svg width="72" height="72" viewBox="0 0 72 72" fill="none" xmlns="http://www.w3.org/2000/svg">
<path d="M63 51V36C63 21.0883 50.9117 9 36 9C21.0883 9 9 21.0883 9 36V51" stroke="#1F3D83" stroke-width="1.5"/>
<path d="M66 46.5V52.5" stroke="#1F3D83" stroke-width="1.5" stroke-linecap="round"/>
<path d="M6 46.5V52.5" stroke="#1F3D83" stroke-width="1.5" stroke-linecap="round"/>
<path d="M24 41.5339C24 39.2407 24 38.0941 23.4758 37.2968C23.212 36.8956 22.8618 36.564 22.4532 36.3285C21.6411 35.8606 20.5444 35.9687 18.3508 36.185C14.6546 36.5494 12.8065 36.7317 11.4821 37.7293C10.8118 38.2343 10.2491 38.878 9.82938 39.6201C9 41.0865 9 43.0186 9 46.8828V51.5799C9 55.4055 9 57.3184 9.84593 58.7957C10.1626 59.3486 10.5594 59.8473 11.0225 60.274C12.2596 61.4141 14.0653 61.7702 17.6768 62.4824C20.2183 62.9835 21.4891 63.2341 22.4269 62.7063C22.773 62.5116 23.0789 62.2479 23.3272 61.9302C24 61.0694 24 59.7233 24 57.0311V41.5339Z" stroke="#1F3D83" stroke-width="1.5"/>
<path d="M48 41.5339C48 39.2407 48 38.0941 48.5242 37.2968C48.788 36.8956 49.1382 36.564 49.5468 36.3285C50.3589 35.8606 51.4556 35.9687 53.6492 36.185C57.3454 36.5494 59.1935 36.7317 60.5179 37.7293C61.1882 38.2343 61.7509 38.878 62.1706 39.6201C63 41.0865 63 43.0186 63 46.8828V51.5799C63 55.4055 63 57.3184 62.1541 58.7957C61.8374 59.3486 61.4406 59.8473 60.9775 60.274C59.7404 61.4141 57.9347 61.7702 54.3232 62.4824C51.7817 62.9836 50.5109 63.2341 49.5731 62.7063C49.227 62.5116 48.9211 62.2479 48.6728 61.9302C48 61.0694 48 59.7233 48 57.0311V41.5339Z" stroke="#1F3D83" stroke-width="1.5"/>
</svg>
