<svg width="73" height="72" viewBox="0 0 73 72" fill="none" xmlns="http://www.w3.org/2000/svg">
<path d="M39.76 64.1631L40.4054 64.5451L39.76 64.1631ZM41.3863 61.4155L40.7408 61.0335L41.3863 61.4155ZM31.6136 61.4155L30.9682 61.7975V61.7975L31.6136 61.4155ZM33.2399 64.1631L33.8853 63.7811L33.2399 64.1631ZM7.64181 47.7402L8.33472 47.4532H8.33472L7.64181 47.7402ZM23.8687 56.9744L23.8558 57.7242L23.8687 56.9744ZM15.7597 55.8582L15.4727 56.5511H15.4727L15.7597 55.8582ZM65.3582 47.7402L66.0511 48.0273L65.3582 47.7402ZM49.1311 56.9744L49.1182 56.2245L49.1311 56.9744ZM57.2403 55.8582L57.5273 56.5511L57.2403 55.8582ZM59.3375 8.2104L58.9456 8.84988L59.3375 8.2104ZM64.2896 13.1625L64.9291 12.7706V12.7706L64.2896 13.1625ZM13.6625 8.2104L13.2706 7.57092L13.6625 8.2104ZM8.7104 13.1625L8.07092 12.7706L8.7104 13.1625ZM28.7084 57.6295L29.0854 56.9812L29.0854 56.9812L28.7084 57.6295ZM40.4054 64.5451L42.0317 61.7975L40.7408 61.0335L39.1145 63.7811L40.4054 64.5451ZM30.9682 61.7975L32.5945 64.5451L33.8853 63.7811L32.259 61.0335L30.9682 61.7975ZM39.1145 63.7811C37.9555 65.7393 35.0444 65.7393 33.8853 63.7811L32.5945 64.5451C34.3344 67.4846 38.6655 67.4846 40.4054 64.5451L39.1145 63.7811ZM32 6.75H41V5.25H32V6.75ZM65.75 31.5V34.5H67.25V31.5H65.75ZM7.25 34.5V31.5H5.75V34.5H7.25ZM5.75 34.5C5.75 37.9843 5.74959 40.6351 5.89447 42.7584C6.0398 44.8884 6.33383 46.5424 6.9489 48.0273L8.33472 47.4532C7.80798 46.1816 7.53111 44.7099 7.39099 42.6563C7.25041 40.5959 7.25 38.0048 7.25 34.5H5.75ZM23.8817 56.2245C20.1155 56.1596 17.883 55.9259 16.0468 55.1653L15.4727 56.5511C17.5983 57.4315 20.0898 57.6594 23.8558 57.7242L23.8817 56.2245ZM6.9489 48.0273C8.54743 51.8865 11.6135 54.9526 15.4727 56.5511L16.0468 55.1653C12.5551 53.719 9.78101 50.9449 8.33472 47.4532L6.9489 48.0273ZM65.75 34.5C65.75 38.0048 65.7496 40.5959 65.609 42.6563C65.4689 44.7099 65.192 46.1816 64.6653 47.4532L66.0511 48.0273C66.6662 46.5424 66.9602 44.8884 67.1055 42.7584C67.2504 40.6351 67.25 37.9843 67.25 34.5H65.75ZM49.1441 57.7242C52.9101 57.6594 55.4017 57.4316 57.5273 56.5511L56.9532 55.1653C55.117 55.9259 52.8844 56.1596 49.1182 56.2245L49.1441 57.7242ZM64.6653 47.4532C63.219 50.9449 60.4449 53.719 56.9532 55.1653L57.5273 56.5511C61.3865 54.9526 64.4526 51.8865 66.0511 48.0273L64.6653 47.4532ZM41 6.75C45.9247 6.75 49.5655 6.75079 52.4277 7.02293C55.2788 7.29401 57.2797 7.82903 58.9456 8.84988L59.7294 7.57092C57.7882 6.38137 55.5306 5.81119 52.5697 5.52967C49.62 5.24921 45.8956 5.25 41 5.25V6.75ZM67.25 31.5C67.25 26.6044 67.2508 22.88 66.9703 19.9303C66.6888 16.9694 66.1186 14.7118 64.9291 12.7706L63.6501 13.5544C64.671 15.2203 65.206 17.2212 65.4771 20.0723C65.7492 22.9345 65.75 26.5753 65.75 31.5H67.25ZM58.9456 8.84988C60.863 10.0249 62.4751 11.637 63.6501 13.5544L64.9291 12.7706C63.6304 10.6514 61.8486 8.8696 59.7294 7.57092L58.9456 8.84988ZM32 5.25C27.1044 5.25 23.38 5.24921 20.4303 5.52967C17.4694 5.81119 15.2118 6.38137 13.2706 7.57092L14.0544 8.84988C15.7203 7.82903 17.7212 7.29401 20.5723 7.02293C23.4345 6.75079 27.0753 6.75 32 6.75V5.25ZM7.25 31.5C7.25 26.5753 7.25079 22.9345 7.52293 20.0723C7.79401 17.2212 8.32903 15.2203 9.34988 13.5544L8.07092 12.7706C6.88137 14.7118 6.31119 16.9694 6.02967 19.9303C5.74921 22.88 5.75 26.6044 5.75 31.5H7.25ZM13.2706 7.57092C11.1514 8.8696 9.3696 10.6514 8.07092 12.7706L9.34988 13.5544C10.5249 11.637 12.137 10.0249 14.0544 8.84988L13.2706 7.57092ZM32.259 61.0335C31.6355 59.9801 31.1419 59.1446 30.674 58.5025C30.1968 57.8478 29.7134 57.3465 29.0854 56.9812L28.3313 58.2778C28.7164 58.5018 29.055 58.8279 29.4618 59.386C29.8778 59.9568 30.3303 60.7198 30.9682 61.7975L32.259 61.0335ZM23.8558 57.7242C25.1453 57.7465 26.0611 57.763 26.7827 57.8429C27.4904 57.9213 27.9487 58.0553 28.3313 58.2778L29.0854 56.9812C28.455 56.6145 27.7689 56.4429 26.9478 56.352C26.1406 56.2626 25.1432 56.2462 23.8817 56.2245L23.8558 57.7242ZM42.0317 61.7975C42.6696 60.7198 43.1221 59.9568 43.5381 59.386C43.9449 58.8279 44.2835 58.5018 44.6686 58.2778L43.9144 56.9812C43.2864 57.3465 42.8031 57.8478 42.3259 58.5025C41.8579 59.1446 41.3644 59.9801 40.7408 61.0335L42.0317 61.7975ZM49.1182 56.2245C47.8566 56.2462 46.8592 56.2626 46.0521 56.352C45.231 56.4429 44.5449 56.6145 43.9144 56.9812L44.6686 58.2778C45.0512 58.0553 45.5094 57.9213 46.2171 57.8429C46.9387 57.763 47.8546 57.7465 49.1441 57.7242L49.1182 56.2245Z" fill="#1F3D83"/>
<path d="M24.5 27H48.5" stroke="#1F3D83" stroke-width="1.5" stroke-linecap="round"/>
<path d="M24.5 37.5H41" stroke="#1F3D83" stroke-width="1.5" stroke-linecap="round"/>
</svg>
