<svg width="61" height="60" viewBox="0 0 61 60" fill="none" xmlns="http://www.w3.org/2000/svg">
<circle cx="30.8008" cy="25" r="17.5" stroke="#1F3D83" stroke-width="2"/>
<path d="M10.8008 41.4058C15.5217 46.6805 22.3823 50 30.0183 50C44.2576 50 55.8008 38.4568 55.8008 24.2175C55.8008 16.5816 52.4813 9.72096 47.2066 5" stroke="#1F3D83" stroke-width="2" stroke-linecap="round"/>
<path d="M18.3008 11.3816C19.7637 12.7631 22.7774 16.5394 23.1285 20.592C23.4567 24.3801 25.8677 27.4581 29.5508 27.4998C30.9662 27.5158 32.3977 26.4555 32.394 24.9876C32.3929 24.5337 32.3206 24.0695 32.2076 23.6426C32.0504 23.0487 32.0364 22.3655 32.3633 21.6665C33.5068 19.2215 35.7559 18.5647 37.538 17.2369C38.3284 16.648 39.0494 16.0267 39.3674 15.5263C40.2452 14.1447 41.1229 11.3816 40.684 10" stroke="#1F3D83" stroke-width="2"/>
<path d="M48.3008 27.5C47.7518 29.0517 47.3633 33.125 41.1645 33.1897C41.1645 33.1897 35.6751 33.1897 34.0282 36.2931C32.7108 38.7759 33.4793 41.4655 34.0282 42.5" stroke="#1F3D83" stroke-width="2"/>
<path d="M30.8008 55V50" stroke="#1F3D83" stroke-width="2" stroke-linecap="round"/>
<path d="M30.8008 55H25.8008" stroke="#1F3D83" stroke-width="2" stroke-linecap="round"/>
<path d="M35.8008 55H30.8008" stroke="#1F3D83" stroke-width="2" stroke-linecap="round"/>
</svg>
