<svg width="61" height="60" viewBox="0 0 61 60" fill="none" xmlns="http://www.w3.org/2000/svg">
<path d="M19.5508 45C21.6218 45 23.3008 46.6789 23.3008 48.75C23.3008 50.8211 21.6218 52.5 19.5508 52.5C17.4797 52.5 15.8008 50.8211 15.8008 48.75C15.8008 46.6789 17.4797 45 19.5508 45Z" stroke="#1F3D83" stroke-width="2"/>
<path d="M42.0508 45.0002C44.1218 45.0002 45.8008 46.6791 45.8008 48.7502C45.8008 50.8213 44.1218 52.5002 42.0508 52.5002C39.9797 52.5002 38.3008 50.8213 38.3008 48.7502C38.3008 46.6791 39.9797 45.0002 42.0508 45.0002Z" stroke="#1F3D83" stroke-width="2"/>
<path d="M6.4538 7.72959L6.78548 6.7862L6.78548 6.7862L6.4538 7.72959ZM6.13246 6.55661C5.61144 6.37343 5.04057 6.6473 4.85739 7.16832C4.67421 7.68934 4.94808 8.26021 5.4691 8.44339L6.13246 6.55661ZM12.2654 10.8075L13.091 10.2433L13.091 10.2433L12.2654 10.8075ZM15.5201 36.4654L14.7944 37.1535L14.7944 37.1535L15.5201 36.4654ZM52.4452 24.7069L53.4246 24.9087L53.4259 24.9026L52.4452 24.7069ZM51.1958 30.7687L52.1752 30.9705L52.1752 30.9705L51.1958 30.7687ZM52.637 16.7427L51.8444 17.3524L51.8444 17.3524L52.637 16.7427ZM48.6348 37.626L48.0031 36.8508L48.0031 36.8508L48.6348 37.626ZM14.196 24.4V17.5959H12.196V24.4H14.196ZM6.78548 6.7862L6.13246 6.55661L5.4691 8.44339L6.12213 8.67298L6.78548 6.7862ZM28.1445 39.75H41.4017V37.75H28.1445V39.75ZM14.196 17.5959C14.196 15.8089 14.1973 14.389 14.0738 13.2481C13.9479 12.0847 13.6841 11.1112 13.091 10.2433L11.4397 11.3717C11.7772 11.8655 11.9787 12.4773 12.0855 13.4633C12.1946 14.4718 12.196 15.7652 12.196 17.5959H14.196ZM6.12213 8.67298C7.77153 9.25288 8.92599 9.66048 9.79036 10.0846C10.6286 10.4959 11.1052 10.8821 11.4397 11.3717L13.091 10.2433C12.495 9.37101 11.6928 8.79028 10.6714 8.2891C9.67609 7.80075 8.39006 7.35033 6.78548 6.7862L6.12213 8.67298ZM12.196 24.4C12.196 28.0526 12.2326 30.5902 12.5601 32.5025C12.9 34.487 13.5607 35.8522 14.7944 37.1535L16.2458 35.7774C15.3135 34.7941 14.8121 33.8035 14.5314 32.1649C14.2384 30.4541 14.196 28.1013 14.196 24.4H12.196ZM28.1445 37.75C24.6286 37.75 22.0977 37.7476 20.1703 37.4743C18.2775 37.2059 17.1146 36.6938 16.2458 35.7774L14.7944 37.1535C16.0916 38.5217 17.7548 39.1518 19.8895 39.4545C21.9898 39.7524 24.6881 39.75 28.1445 39.75V37.75ZM13.196 16.3H43.5229V14.3H13.196V16.3ZM51.4658 24.505L50.2164 30.5668L52.1752 30.9705L53.4246 24.9087L51.4658 24.505ZM43.5229 16.3C45.6476 16.3 47.5864 16.3013 49.1323 16.4741C49.9028 16.5603 50.5289 16.6846 51.0056 16.8521C51.4903 17.0224 51.7323 17.2066 51.8444 17.3524L53.4296 16.133C52.9869 15.5574 52.3387 15.2006 51.6686 14.9652C50.9905 14.7269 50.1972 14.5807 49.3545 14.4865C47.6739 14.2987 45.6105 14.3 43.5229 14.3V16.3ZM53.4259 24.9026C53.854 22.7576 54.1974 21.0482 54.2808 19.697C54.3656 18.3241 54.1978 17.1315 53.4296 16.133L51.8444 17.3524C52.1862 17.7967 52.3563 18.4123 52.2846 19.5738C52.2116 20.7571 51.9042 22.3085 51.4645 24.5111L53.4259 24.9026ZM41.4017 39.75C43.3279 39.75 44.8631 39.7517 46.0859 39.6021C47.336 39.4491 48.376 39.1269 49.2665 38.4012L48.0031 36.8508C47.5143 37.2491 46.889 37.4889 45.843 37.6169C44.7697 37.7483 43.378 37.75 41.4017 37.75V39.75ZM50.2164 30.5668C49.8174 32.5024 49.5348 33.8651 49.1895 34.8898C48.853 35.8885 48.4919 36.4525 48.0031 36.8508L49.2665 38.4012C50.157 37.6755 50.6826 36.722 51.0848 35.5285C51.4782 34.3611 51.7864 32.8571 52.1752 30.9705L50.2164 30.5668Z" fill="#1F3D83"/>
<path d="M28.3008 27L31.1579 30L38.3008 22.5" stroke="#1F3D83" stroke-width="2" stroke-linecap="round" stroke-linejoin="round"/>
</svg>
