<svg width="61" height="60" viewBox="0 0 61 60" fill="none" xmlns="http://www.w3.org/2000/svg">
<path d="M10.4004 20C10.4004 12.9289 10.4004 9.3934 12.5971 7.1967C14.7938 5 18.3293 5 25.4004 5H35.4004C42.4715 5 46.007 5 48.2037 7.1967C50.4004 9.3934 50.4004 12.9289 50.4004 20V40C50.4004 47.0711 50.4004 50.6066 48.2037 52.8033C46.007 55 42.4715 55 35.4004 55H25.4004C18.3293 55 14.7938 55 12.5971 52.8033C10.4004 50.6066 10.4004 47.0711 10.4004 40V20Z" stroke="#1F3D83" stroke-width="2"/>
<path d="M50.1448 40H20.1448C17.8199 40 16.6574 40 15.7037 40.2556C13.1155 40.9491 11.0939 42.9707 10.4004 45.5589" stroke="#1F3D83" stroke-width="2"/>
<path d="M20.4004 17.5H40.4004" stroke="#1F3D83" stroke-width="2" stroke-linecap="round"/>
<path d="M20.4004 26.25H32.9004" stroke="#1F3D83" stroke-width="2" stroke-linecap="round"/>
<path d="M32.9004 40V48.8273C32.9004 49.5163 32.9004 49.8608 32.6633 50C32.4261 50.1392 32.1018 49.9852 31.4532 49.6771L28.3476 48.2019C28.1282 48.0976 28.0184 48.0455 27.9004 48.0455C27.7824 48.0455 27.6726 48.0976 27.4532 48.2019L24.3476 49.6771C23.699 49.9852 23.3747 50.1392 23.1375 50C22.9004 49.8608 22.9004 49.5163 22.9004 48.8273V41.1251" stroke="#1F3D83" stroke-width="2" stroke-linecap="round"/>
</svg>
