<svg width="60" height="60" viewBox="0 0 60 60" fill="none" xmlns="http://www.w3.org/2000/svg">
<path d="M9.61132 19.8057C6.79623 16.9906 6.79623 12.4264 9.61132 9.61132C12.4264 6.79623 16.9906 6.79623 19.8057 9.61132L50.3887 40.1943C53.2038 43.0094 53.2038 47.5736 50.3887 50.3887C47.5736 53.2038 43.0094 53.2038 40.1943 50.3887L9.61132 19.8057Z" stroke="#1F3D83" stroke-width="2"/>
<path d="M15 25L25 15" stroke="#1F3D83" stroke-width="2" stroke-linecap="round"/>
<path d="M40.2501 5.76797C40.6524 4.74401 42.0963 4.74401 42.4986 5.76797L43.5746 8.50619C43.6974 8.81881 43.944 9.06627 44.2554 9.18957L46.9836 10.2695C48.0038 10.6733 48.0038 12.1225 46.9836 12.5264L44.2554 13.6063C43.944 13.7296 43.6974 13.9771 43.5746 14.2897L42.4986 17.0279C42.0963 18.0519 40.6524 18.0519 40.2501 17.0279L39.1741 14.2897C39.0513 13.9771 38.8047 13.7296 38.4933 13.6063L35.7651 12.5264C34.745 12.1225 34.745 10.6733 35.7651 10.2695L38.4933 9.18957C38.8047 9.06627 39.0513 8.81881 39.1741 8.50619L40.2501 5.76797Z" stroke="#1F3D83" stroke-width="2"/>
<path d="M49.918 22.8236C50.3203 21.7997 51.7641 21.7997 52.1665 22.8236L52.5588 23.822C52.6816 24.1346 52.9282 24.3821 53.2397 24.5054L54.2343 24.8991C55.2545 25.303 55.2545 26.7521 54.2343 27.156L53.2397 27.5497C52.9282 27.673 52.6816 27.9205 52.5588 28.2331L52.1665 29.2315C51.7641 30.2554 50.3203 30.2554 49.918 29.2315L49.5257 28.2331C49.4028 27.9205 49.1563 27.673 48.8448 27.5497L47.8501 27.156C46.8299 26.7521 46.8299 25.303 47.8501 24.8991L48.8448 24.5054C49.1563 24.3821 49.4028 24.1346 49.5257 23.822L49.918 22.8236Z" stroke="#1F3D83" stroke-width="2"/>
<path d="M12.833 38.268C13.2354 37.244 14.6792 37.244 15.0815 38.268L15.4738 39.2663C15.5967 39.579 15.8432 39.8264 16.1547 39.9497L17.1494 40.3435C18.1696 40.7473 18.1696 42.1965 17.1494 42.6003L16.1547 42.9941C15.8432 43.1174 15.5967 43.3648 15.4738 43.6775L15.0815 44.6758C14.6792 45.6998 13.2354 45.6998 12.833 44.6758L12.4407 43.6775C12.3179 43.3648 12.0713 43.1174 11.7598 42.9941L10.7651 42.6003C9.74495 42.1965 9.74495 40.7473 10.7651 40.3435L11.7598 39.9497C12.0713 39.8264 12.3179 39.579 12.4407 39.2663L12.833 38.268Z" stroke="#1F3D83" stroke-width="2"/>
</svg>
