<svg width="61" height="60" viewBox="0 0 61 60" fill="none" xmlns="http://www.w3.org/2000/svg">
<path d="M25.6126 11.9481L26.8674 12.8361C27.8419 13.5257 29.0064 13.8961 30.2002 13.8961C31.3941 13.8961 32.5586 13.5257 33.5331 12.836L34.7878 11.9481C36.5787 10.6806 38.7186 10 40.9125 10H42.4438C43.4542 10 44.475 10.0637 45.4273 10.4015C51.3841 12.5141 55.4815 20.2376 55.1851 37.7566C55.1254 41.2863 54.2994 45.1875 51.1146 46.7106C50.1222 47.1852 48.9585 47.5 47.6334 47.5C46.0434 47.5 44.7807 47.0467 43.8061 46.408C41.5214 44.9105 39.8471 42.4098 37.4221 41.1522C35.9622 40.3952 34.3418 40 32.6973 40H27.7031C26.0586 40 24.4382 40.3952 22.9783 41.1522C20.5532 42.4098 18.879 44.9105 16.5943 46.408C15.6197 47.0467 14.357 47.5 12.767 47.5C11.4419 47.5 10.2782 47.1852 9.28577 46.7106C6.10094 45.1875 5.275 41.2863 5.21529 37.7566C4.91892 20.2376 9.01632 12.5142 14.9731 10.4015C15.9254 10.0637 16.9461 10 17.9566 10H19.4878C21.6818 10 23.8217 10.6806 25.6126 11.9481Z" stroke="#1F3D83" stroke-width="2" stroke-linecap="round"/>
<path d="M18.9502 22.5V30M15.2002 26.25L22.7002 26.25" stroke="#1F3D83" stroke-width="2" stroke-linecap="round"/>
<path d="M47.7002 25.625C47.7002 26.6605 46.8607 27.5 45.8252 27.5C44.7897 27.5 43.9502 26.6605 43.9502 25.625C43.9502 24.5895 44.7897 23.75 45.8252 23.75C46.8607 23.75 47.7002 24.5895 47.7002 25.625Z" fill="#1F3D83"/>
<path d="M40.2002 25.625C40.2002 26.6605 39.3607 27.5 38.3252 27.5C37.2897 27.5 36.4502 26.6605 36.4502 25.625C36.4502 24.5895 37.2897 23.75 38.3252 23.75C39.3607 23.75 40.2002 24.5895 40.2002 25.625Z" fill="#1F3D83"/>
<path d="M42.0752 20C43.1107 20 43.9502 20.8395 43.9502 21.875C43.9502 22.9105 43.1107 23.75 42.0752 23.75C41.0397 23.75 40.2002 22.9105 40.2002 21.875C40.2002 20.8395 41.0397 20 42.0752 20Z" fill="#1F3D83"/>
<path d="M42.0752 27.5C43.1107 27.5 43.9502 28.3395 43.9502 29.375C43.9502 30.4105 43.1107 31.25 42.0752 31.25C41.0397 31.25 40.2002 30.4105 40.2002 29.375C40.2002 28.3395 41.0397 27.5 42.0752 27.5Z" fill="#1F3D83"/>
</svg>
