<svg width="61" height="60" viewBox="0 0 61 60" fill="none" xmlns="http://www.w3.org/2000/svg">
<path d="M55.8008 30C55.8008 33.283 55.1541 36.5339 53.8978 39.5671C52.6414 42.6002 50.7999 45.3562 48.4785 47.6777C46.157 49.9991 43.401 51.8406 40.3679 53.097C37.3347 54.3534 34.0838 55 30.8008 55C27.5177 55 24.2668 54.3534 21.2337 53.097C18.2006 51.8406 15.4446 49.9991 13.1231 47.6777C10.8016 45.3562 8.96016 42.6002 7.70379 39.5671C6.44742 36.5339 5.80078 33.283 5.80078 30C5.80078 26.717 6.44743 23.4661 7.70379 20.4329C8.96016 17.3998 10.8016 14.6438 13.1231 12.3223C15.4446 10.0009 18.2006 8.15938 21.2337 6.90301C24.2668 5.64664 27.5177 5 30.8008 5C34.0838 5 37.3347 5.64664 40.3679 6.90301C43.401 8.15938 46.157 10.0009 48.4785 12.3223C50.7999 14.6438 52.6414 17.3998 53.8978 20.4329C55.1541 23.4661 55.8008 26.717 55.8008 30L55.8008 30Z" stroke="#1F3D83" stroke-width="2"/>
<path d="M40.8008 30C40.8008 33.283 40.5421 36.5339 40.0396 39.5671C39.537 42.6002 38.8004 45.3562 37.8718 47.6777C36.9433 49.9991 35.8409 51.8406 34.6276 53.097C33.4144 54.3534 32.114 55 30.8008 55C29.4876 55 28.1872 54.3534 26.9739 53.097C25.7607 51.8406 24.6583 49.9991 23.7297 47.6777C22.8011 45.3562 22.0645 42.6002 21.562 39.5671C21.0594 36.5339 20.8008 33.283 20.8008 30C20.8008 26.717 21.0594 23.4661 21.562 20.4329C22.0645 17.3998 22.8011 14.6438 23.7297 12.3223C24.6583 10.0009 25.7607 8.15938 26.9739 6.90301C28.1872 5.64664 29.4876 5 30.8008 5C32.114 5 33.4144 5.64664 34.6276 6.90301C35.8409 8.15938 36.9433 10.0009 37.8719 12.3223C38.8004 14.6438 39.537 17.3998 40.0396 20.4329C40.5421 23.4661 40.8008 26.717 40.8008 30L40.8008 30Z" stroke="#1F3D83" stroke-width="2"/>
<path d="M5.80078 30H55.8008" stroke="#1F3D83" stroke-width="2" stroke-linecap="round"/>
</svg>
