<svg width="61" height="60" viewBox="0 0 61 60" fill="none" xmlns="http://www.w3.org/2000/svg">
<path d="M22.9004 35.5881V42.4999C22.9004 49.4035 28.4968 54.9999 35.4004 54.9999H37.6063C42.3231 54.9999 46.299 51.8275 47.5167 47.4999" stroke="#1F3D83" stroke-width="2"/>
<path d="M13.9718 7.5H13.7426C12.9605 7.5 12.5694 7.5 12.2398 7.52915C8.61946 7.84929 5.74968 10.7191 5.42954 14.3394C5.40039 14.669 5.40039 15.0601 5.40039 15.8422V18.0882C5.40039 27.7532 13.2354 35.5882 22.9004 35.5882C32.1709 35.5882 39.6861 28.073 39.6861 18.8025V15.8422C39.6861 15.0601 39.6861 14.669 39.657 14.3394C39.3368 10.7191 36.467 7.84929 32.8467 7.52915C32.5171 7.5 32.126 7.5 31.3439 7.5H31.1147" stroke="#1F3D83" stroke-width="2" stroke-linecap="round"/>
<circle cx="47.9004" cy="40" r="7.5" stroke="#1F3D83" stroke-width="2"/>
<path d="M30.4004 5V10" stroke="#1F3D83" stroke-width="2" stroke-linecap="round"/>
<path d="M15.4004 5V10" stroke="#1F3D83" stroke-width="2" stroke-linecap="round"/>
</svg>
