<svg width="61" height="60" viewBox="0 0 61 60" fill="none" xmlns="http://www.w3.org/2000/svg">
<path d="M10.6006 25C10.6006 15.5719 10.6006 10.8579 13.5295 7.92893C16.4585 5 21.1725 5 30.6006 5C40.0287 5 44.7427 5 47.6717 7.92893C50.6006 10.8579 50.6006 15.5719 50.6006 25V30C50.6006 39.4281 50.6006 44.1421 47.6717 47.0711C44.7427 50 40.0287 50 30.6006 50C21.1725 50 16.4585 50 13.5295 47.0711C10.6006 44.1421 10.6006 39.4281 10.6006 30V25Z" stroke="#1F3D83" stroke-width="2"/>
<path d="M10.6006 32.5H50.6006" stroke="#1F3D83" stroke-width="2" stroke-linecap="round" stroke-linejoin="round"/>
<path d="M39.3506 40H43.1006" stroke="#1F3D83" stroke-width="2" stroke-linecap="round" stroke-linejoin="round"/>
<path d="M18.1006 40H21.8506" stroke="#1F3D83" stroke-width="2" stroke-linecap="round" stroke-linejoin="round"/>
<path d="M18.1006 50L15.6006 55" stroke="#1F3D83" stroke-width="2" stroke-linecap="round" stroke-linejoin="round"/>
<path d="M43.1006 50L45.6006 55" stroke="#1F3D83" stroke-width="2" stroke-linecap="round" stroke-linejoin="round"/>
<path d="M25.6006 5V6.25C25.6006 9.01142 27.8392 11.25 30.6006 11.25C33.362 11.25 35.6006 9.01142 35.6006 6.25V5" stroke="#1F3D83" stroke-width="2" stroke-linecap="round" stroke-linejoin="round"/>
</svg>
