<svg width="61" height="60" viewBox="0 0 61 60" fill="none" xmlns="http://www.w3.org/2000/svg">
<path d="M55.6006 55L5.60059 55" stroke="#1F3D83" stroke-width="2" stroke-linecap="round"/>
<path d="M53.1005 55V15C53.1005 10.286 53.1005 7.92893 51.636 6.46447C50.1715 5 47.8145 5 43.1005 5H38.1005C33.3864 5 31.0294 5 29.5649 6.46447C28.3861 7.64332 28.1562 9.40054 28.1113 12.5" stroke="#1F3D83" stroke-width="2"/>
<path d="M38.1006 55V22.5C38.1006 17.786 38.1006 15.4289 36.6361 13.9645C35.1717 12.5 32.8146 12.5 28.1006 12.5H18.1006C13.3865 12.5 11.0295 12.5 9.56505 13.9645C8.10059 15.4289 8.10059 17.786 8.10059 22.5V55" stroke="#1F3D83" stroke-width="2"/>
<path d="M23.1006 55V47.5" stroke="#1F3D83" stroke-width="2" stroke-linecap="round"/>
<path d="M15.6006 20H30.6006" stroke="#1F3D83" stroke-width="2" stroke-linecap="round"/>
<path d="M15.6006 27.5H30.6006" stroke="#1F3D83" stroke-width="2" stroke-linecap="round"/>
<path d="M15.6006 35H30.6006" stroke="#1F3D83" stroke-width="2" stroke-linecap="round"/>
</svg>
