<svg width="60" height="60" viewBox="0 0 60 60" fill="none" xmlns="http://www.w3.org/2000/svg">
<path d="M55 55H5" stroke="#1F3D83" stroke-width="2" stroke-linecap="round"/>
<path d="M50 55V27.5" stroke="#1F3D83" stroke-width="2" stroke-linecap="round"/>
<path d="M10 55V27.5" stroke="#1F3D83" stroke-width="2" stroke-linecap="round"/>
<path d="M41.3194 5H18.6803C15.6733 5 14.1698 5 12.9615 5.74675C11.7533 6.49349 11.0809 7.83828 9.73607 10.5279L9.73607 10.5279L5.49081 21.2593C5.16652 22.0791 4.94381 22.9684 5.17578 23.819C5.7544 25.9404 7.69488 27.5 9.99978 27.5C12.7612 27.5 14.9998 25.2614 14.9998 22.5C14.9998 25.2614 17.2384 27.5 19.9998 27.5C22.7612 27.5 24.9998 25.2614 24.9998 22.5C24.9998 25.2614 27.2384 27.5 29.9998 27.5C32.7612 27.5 34.9998 25.2614 34.9998 22.5C34.9998 25.2614 37.2384 27.5 39.9998 27.5C42.7612 27.5 44.9998 25.2614 44.9998 22.5C44.9998 25.2614 47.2384 27.5 49.9998 27.5C52.3047 27.5 54.2453 25.9404 54.824 23.819C55.056 22.9684 54.8333 22.0791 54.509 21.2593L50.2637 10.5279L50.2637 10.5278C48.9189 7.83826 48.2465 6.49349 47.0383 5.74675C45.83 5 44.3265 5 41.3194 5Z" stroke="#1F3D83" stroke-width="2" stroke-linejoin="round"/>
<path d="M23.75 53.75V46.25C23.75 43.9135 23.75 42.7452 24.2524 41.875C24.5815 41.3049 25.0549 40.8315 25.625 40.5024C26.4952 40 27.6635 40 30 40C32.3365 40 33.5048 40 34.375 40.5024C34.9451 40.8315 35.4185 41.3049 35.7476 41.875C36.25 42.7452 36.25 43.9135 36.25 46.25V53.75" stroke="#1F3D83" stroke-width="2" stroke-linecap="round"/>
</svg>
