<svg width="61" height="60" viewBox="0 0 61 60" fill="none" xmlns="http://www.w3.org/2000/svg">
<path d="M30.4004 22.5C26.2583 22.5 22.9004 19.1421 22.9004 15C22.9004 10.8579 26.2583 7.5 30.4004 7.5C34.5425 7.5 37.9004 10.8579 37.9004 15C37.9004 19.1421 34.5425 22.5 30.4004 22.5Z" stroke="#1F3D83" stroke-width="2"/>
<path d="M14.1504 52.5C10.0083 52.5 6.65039 49.1421 6.65039 45C6.65039 40.8579 10.0083 37.5 14.1504 37.5C18.2925 37.5 21.6504 40.8579 21.6504 45C21.6504 49.1421 18.2925 52.5 14.1504 52.5Z" stroke="#1F3D83" stroke-width="2"/>
<path d="M46.6504 52.5C42.5083 52.5 39.1504 49.1421 39.1504 45C39.1504 40.8579 42.5083 37.5 46.6504 37.5C50.7925 37.5 54.1504 40.8579 54.1504 45C54.1504 49.1421 50.7925 52.5 46.6504 52.5Z" stroke="#1F3D83" stroke-width="2"/>
<path d="M50.4004 32.5001C50.4004 26.5266 47.7816 21.1647 43.6294 17.5M10.4004 32.5001C10.4004 26.5266 13.0192 21.1647 17.1713 17.5M25.4004 51.87C26.9985 52.2813 28.6739 52.5001 30.4004 52.5001C32.1269 52.5001 33.8023 52.2813 35.4004 51.87" stroke="#1F3D83" stroke-width="2" stroke-linecap="round"/>
</svg>
