<svg width="60" height="60" viewBox="0 0 60 60" fill="none" xmlns="http://www.w3.org/2000/svg">
<path d="M5 35C5 25.5719 5 20.8579 7.92893 17.9289C10.8579 15 15.5719 15 25 15H35C44.4281 15 49.1421 15 52.0711 17.9289C55 20.8579 55 25.5719 55 35C55 44.4281 55 49.1421 52.0711 52.0711C49.1421 55 44.4281 55 35 55H25C15.5719 55 10.8579 55 7.92893 52.0711C5 49.1421 5 44.4281 5 35Z" stroke="#1F3D83" stroke-width="2"/>
<path d="M40 15C40 10.286 40 7.92893 38.5355 6.46447C37.0711 5 34.714 5 30 5C25.286 5 22.9289 5 21.4645 6.46447C20 7.92893 20 10.286 20 15" stroke="#1F3D83" stroke-width="2"/>
<path d="M25 37.5H15C13.8215 37.5 13.2322 37.5 12.8661 37.8661C12.5 38.2322 12.5 38.8215 12.5 40V42.5C12.5 43.6785 12.5 44.2678 12.8661 44.6339C13.2322 45 13.8215 45 15 45H25C26.1785 45 26.7678 45 27.1339 44.6339C27.5 44.2678 27.5 43.6785 27.5 42.5V40C27.5 38.8215 27.5 38.2322 27.1339 37.8661C26.7678 37.5 26.1785 37.5 25 37.5Z" stroke="#1F3D83" stroke-width="2" stroke-linejoin="round"/>
<path d="M15 16.25V37.5M15 53.75V46.25" stroke="#1F3D83" stroke-width="2" stroke-linecap="round"/>
<path d="M45 16.25V53.75" stroke="#1F3D83" stroke-width="2" stroke-linecap="round"/>
</svg>
