<svg width="32" height="32" viewBox="0 0 32 32" fill="none" xmlns="http://www.w3.org/2000/svg">
<path d="M26.2924 16.4446C26.4836 17.0848 27.0749 17.556 27.7773 17.556C28.6354 17.556 29.3334 16.858 29.3334 16C29.3334 15.1419 28.6354 14.4439 27.7773 14.4439C27.0749 14.4439 26.488 14.9152 26.2924 15.5554H23.0869C23.0469 14.9374 22.9357 14.3416 22.749 13.777H24.8875C25.0075 13.777 25.1187 13.7281 25.2031 13.6481L26.5414 12.3098C26.7148 12.3943 26.9059 12.4432 27.1149 12.4432C27.8485 12.4432 28.4487 11.843 28.4487 11.1094C28.4487 10.3759 27.8485 9.77566 27.1149 9.77566C26.3813 9.77566 25.7811 10.3759 25.7811 11.1094C25.7811 11.314 25.83 11.5051 25.9145 11.683L24.7096 12.8878H22.3889C21.6909 11.4651 20.5394 10.3092 19.1122 9.61116V7.29039L20.3171 6.08554C20.4905 6.17002 20.6816 6.21892 20.8906 6.21892C21.6242 6.21892 22.2244 5.61872 22.2244 4.88514C22.2244 4.15157 21.6242 3.55137 20.8906 3.55137C20.157 3.55137 19.5568 4.15157 19.5568 4.88514C19.5568 5.08966 19.6057 5.28083 19.6902 5.45867L18.352 6.79689C18.2675 6.88136 18.223 6.99251 18.223 7.11255V9.25104C17.6584 9.06431 17.0627 8.95317 16.4447 8.91315V5.70764C17.0849 5.51646 17.5562 4.92516 17.5562 4.2227C17.5562 3.36464 16.8581 2.66663 16.0001 2.66663C15.142 2.66663 14.444 3.36464 14.444 4.2227C14.444 4.92516 14.9153 5.51202 15.5555 5.70764V8.91315C14.9375 8.95317 14.3417 9.06431 13.7771 9.25104V7.11255C13.7771 6.99251 13.7282 6.88136 13.6482 6.79689L12.31 5.45867C12.3944 5.28528 12.4433 5.0941 12.4433 4.88514C12.4433 4.15157 11.8431 3.55137 11.1096 3.55137C10.376 3.55137 9.77578 4.15157 9.77578 4.88514C9.77578 5.61872 10.376 6.21892 11.1096 6.21892C11.3141 6.21892 11.5052 6.17002 11.6831 6.08554L12.8879 7.29039V9.61116C11.4652 10.3092 10.3093 11.4607 9.61128 12.8878H7.29051L6.08567 11.683C6.17014 11.5096 6.21904 11.3184 6.21904 11.1094C6.21904 10.3759 5.61884 9.77566 4.88527 9.77566C4.15169 9.77566 3.55149 10.3759 3.55149 11.1094C3.55149 11.843 4.15169 12.4432 4.88527 12.4432C5.08978 12.4432 5.28095 12.3943 5.45879 12.3098L6.79701 13.6481C6.88149 13.7325 6.99263 13.777 7.11267 13.777H9.25116C9.06444 14.3416 8.95329 14.9374 8.91327 15.5554H5.70776C5.51659 14.9152 4.92528 14.4439 4.22282 14.4439C3.36476 14.4439 2.66675 15.1419 2.66675 16C2.66675 16.858 3.36476 17.556 4.22282 17.556C4.92528 17.556 5.51214 17.0848 5.70776 16.4446H8.91327C8.95329 17.0625 9.06444 17.6583 9.25116 18.2229H7.11267C6.99263 18.2229 6.88149 18.2718 6.79701 18.3519L5.45879 19.6901C5.2854 19.6056 5.09422 19.5567 4.88527 19.5567C4.15169 19.5567 3.55149 20.1569 3.55149 20.8905C3.55149 21.6241 4.15169 22.2243 4.88527 22.2243C5.61884 22.2243 6.21904 21.6241 6.21904 20.8905C6.21904 20.686 6.17014 20.4948 6.08567 20.317L7.29051 19.1121H9.61128C10.3093 20.5348 11.4608 21.6907 12.8879 22.3888V24.7095L11.6831 25.9144C11.5097 25.8299 11.3185 25.781 11.1096 25.781C10.376 25.781 9.77578 26.3812 9.77578 27.1148C9.77578 27.8484 10.376 28.4486 11.1096 28.4486C11.8431 28.4486 12.4433 27.8484 12.4433 27.1148C12.4433 26.9103 12.3944 26.7191 12.31 26.5413L13.6482 25.203C13.7327 25.1186 13.7771 25.0074 13.7771 24.8874V22.7489C14.3417 22.9356 14.9375 23.0468 15.5555 23.0868V26.2923C14.9153 26.4835 14.444 27.0748 14.444 27.7772C14.444 28.6353 15.142 29.3333 16.0001 29.3333C16.8581 29.3333 17.5562 28.6353 17.5562 27.7772C17.5562 27.0748 17.0849 26.4879 16.4447 26.2923V23.0868C17.0627 23.0468 17.6584 22.9356 18.223 22.7489V24.8874C18.223 25.0074 18.2719 25.1186 18.352 25.203L19.6902 26.5413C19.6057 26.7146 19.5568 26.9058 19.5568 27.1148C19.5568 27.8484 20.157 28.4486 20.8906 28.4486C21.6242 28.4486 22.2244 27.8484 22.2244 27.1148C22.2244 26.3812 21.6242 25.781 20.8906 25.781C20.6861 25.781 20.4949 25.8299 20.3171 25.9144L19.1122 24.7095V22.3888C20.5349 21.6907 21.6909 20.5393 22.3889 19.1121H24.7096L25.9145 20.317C25.83 20.4903 25.7811 20.6815 25.7811 20.8905C25.7811 21.6241 26.3813 22.2243 27.1149 22.2243C27.8485 22.2243 28.4487 21.6241 28.4487 20.8905C28.4487 20.1569 27.8485 19.5567 27.1149 19.5567C26.9104 19.5567 26.7192 19.6056 26.5414 19.6901L25.2031 18.3519C25.1187 18.2674 25.0075 18.2229 24.8875 18.2229H22.749C22.9357 17.6583 23.0469 17.0625 23.0869 16.4446H26.2924ZM27.1104 10.6648C27.355 10.6648 27.555 10.8649 27.555 11.1094C27.555 11.354 27.355 11.554 27.1104 11.554C26.9904 11.554 26.8793 11.5051 26.7992 11.4251C26.7992 11.4251 26.7992 11.4251 26.7992 11.4207C26.7992 11.4162 26.7992 11.4207 26.7948 11.4207C26.7148 11.3406 26.6659 11.2339 26.6659 11.1094C26.6659 10.8649 26.8659 10.6648 27.1104 10.6648ZM20.8862 4.44055C21.1307 4.44055 21.3307 4.64062 21.3307 4.88514C21.3307 5.12967 21.1307 5.32974 20.8862 5.32974C20.7661 5.32974 20.655 5.28083 20.5749 5.2008C20.5749 5.2008 20.5749 5.2008 20.5749 5.19636C20.5749 5.19191 20.5749 5.19636 20.5705 5.19636C20.4905 5.11633 20.4416 5.00963 20.4416 4.88514C20.4416 4.64062 20.6416 4.44055 20.8862 4.44055ZM10.6605 4.88514C10.6605 4.64062 10.8606 4.44055 11.1051 4.44055C11.3496 4.44055 11.5497 4.64062 11.5497 4.88514C11.5497 5.00518 11.5008 5.11633 11.4208 5.19636C11.4208 5.19636 11.4208 5.19636 11.4163 5.19636C11.4119 5.19636 11.4163 5.19636 11.4163 5.2008C11.3363 5.28083 11.2296 5.32974 11.1051 5.32974C10.8606 5.32974 10.6605 5.12967 10.6605 4.88514ZM4.43623 11.1094C4.43623 10.8649 4.63629 10.6648 4.88082 10.6648C5.12535 10.6648 5.32541 10.8649 5.32541 11.1094C5.32541 11.2295 5.27651 11.3406 5.19648 11.4207C5.19648 11.4207 5.19648 11.4207 5.19203 11.4207C5.18759 11.4207 5.19203 11.4207 5.19203 11.4251C5.11201 11.5051 5.00531 11.554 4.88082 11.554C4.63629 11.554 4.43623 11.354 4.43623 11.1094ZM4.88082 21.3351C4.63629 21.3351 4.43623 21.135 4.43623 20.8905C4.43623 20.646 4.63629 20.4459 4.88082 20.4459C5.00086 20.4459 5.11201 20.4948 5.19203 20.5748V20.5793C5.19203 20.5793 5.19203 20.5793 5.19648 20.5793C5.27651 20.6593 5.32541 20.766 5.32541 20.8905C5.32541 21.135 5.12535 21.3351 4.88082 21.3351ZM11.1051 27.5594C10.8606 27.5594 10.6605 27.3593 10.6605 27.1148C10.6605 26.8702 10.8606 26.6702 11.1051 26.6702C11.2252 26.6702 11.3363 26.7191 11.4163 26.7991V26.8036C11.4163 26.8036 11.4163 26.8036 11.4208 26.8036C11.5008 26.8836 11.5497 26.9903 11.5497 27.1148C11.5497 27.3593 11.3496 27.5594 11.1051 27.5594ZM21.3307 27.1148C21.3307 27.3593 21.1307 27.5594 20.8862 27.5594C20.6416 27.5594 20.4416 27.3593 20.4416 27.1148C20.4416 26.9947 20.4905 26.8836 20.5705 26.8036H20.5749C20.5749 26.8036 20.5749 26.8036 20.5749 26.7991C20.655 26.7191 20.7617 26.6702 20.8862 26.6702C21.1307 26.6702 21.3307 26.8702 21.3307 27.1148ZM27.555 20.8905C27.555 21.135 27.355 21.3351 27.1104 21.3351C26.8659 21.3351 26.6659 21.135 26.6659 20.8905C26.6659 20.7704 26.7148 20.6593 26.7948 20.5793H26.7992C26.7992 20.5793 26.7992 20.5793 26.7992 20.5748C26.8793 20.4948 26.986 20.4459 27.1104 20.4459C27.355 20.4459 27.555 20.646 27.555 20.8905ZM27.7773 15.3331C28.1463 15.3331 28.4442 15.6309 28.4442 16C28.4442 16.369 28.1463 16.6668 27.7773 16.6668C27.4083 16.6668 27.1104 16.369 27.1104 16C27.1104 15.6309 27.4083 15.3331 27.7773 15.3331ZM15.3287 4.21825C15.3287 3.84924 15.6266 3.55137 15.9956 3.55137C16.3646 3.55137 16.6625 3.84924 16.6625 4.21825C16.6625 4.58727 16.3646 4.88514 15.9956 4.88514C15.6266 4.88514 15.3287 4.58727 15.3287 4.21825ZM4.21393 16.6668C3.84492 16.6668 3.54704 16.369 3.54704 16C3.54704 15.6309 3.84492 15.3331 4.21393 15.3331C4.58294 15.3331 4.88082 15.6309 4.88082 16C4.88082 16.369 4.58294 16.6668 4.21393 16.6668ZM16.6625 27.7817C16.6625 28.1507 16.3646 28.4486 15.9956 28.4486C15.6266 28.4486 15.3287 28.1507 15.3287 27.7817C15.3287 27.4127 15.6266 27.1148 15.9956 27.1148C16.3646 27.1148 16.6625 27.4127 16.6625 27.7817ZM15.9956 22.2243C12.5634 22.2243 9.77134 19.4322 9.77134 16C9.77134 12.5677 12.5634 9.77566 15.9956 9.77566C19.4279 9.77566 22.2199 12.5677 22.2199 16C22.2199 19.4322 19.4279 22.2243 15.9956 22.2243Z" fill="#0058E6"/>
<path d="M20.3484 16.4623L19.9838 16.2533C19.9883 16.1644 19.9927 16.0844 19.9927 16.0044C19.9927 15.9243 19.9927 15.8399 19.9838 15.7554L20.3484 15.5464C20.7708 15.3019 20.9175 14.7551 20.6729 14.3327L19.7838 12.7944C19.6637 12.5899 19.4725 12.4432 19.2458 12.3809C19.0191 12.3187 18.779 12.3498 18.57 12.4698L18.2055 12.6788C18.0676 12.5854 17.9209 12.501 17.7698 12.4254V12.0075C17.7698 11.5184 17.3696 11.1183 16.8806 11.1183H15.1022C14.6131 11.1183 14.213 11.5184 14.213 12.0075V12.4254C14.0619 12.501 13.9196 12.5854 13.7773 12.6788L13.4127 12.4698C13.2082 12.3498 12.9682 12.3187 12.737 12.3809C12.5058 12.4432 12.3146 12.5899 12.199 12.7944L11.3098 14.3327C11.0653 14.7551 11.212 15.3019 11.6344 15.5464L11.9989 15.7554C11.9945 15.8443 11.9901 15.9243 11.9901 16.0044C11.9901 16.0844 11.9901 16.1689 11.9989 16.2533L11.6344 16.4623C11.212 16.7068 11.0653 17.2537 11.3098 17.676L12.199 19.2143C12.319 19.4188 12.5102 19.5655 12.737 19.6278C12.9682 19.69 13.2038 19.6589 13.4127 19.5389L13.7773 19.3299C13.9151 19.4233 14.0619 19.5077 14.213 19.5833V20.0012C14.213 20.4903 14.6131 20.8904 15.1022 20.8904H16.8806C17.3696 20.8904 17.7698 20.4903 17.7698 20.0012V19.5833C17.9209 19.5077 18.0632 19.4233 18.2055 19.3299L18.57 19.5389C18.7745 19.6589 19.0146 19.69 19.2458 19.6278C19.477 19.5655 19.6682 19.4188 19.7838 19.2143L20.6729 17.676C20.9175 17.2537 20.7708 16.7068 20.3484 16.4623ZM19.108 15.9999C19.108 16.1288 19.0991 16.2622 19.0724 16.4312C19.0457 16.609 19.1347 16.7868 19.2903 16.8758L19.9038 17.2314L19.0146 18.7697L18.4011 18.4141C18.2455 18.3251 18.0498 18.3385 17.9031 18.4496C17.6719 18.6275 17.423 18.7742 17.1562 18.8809C16.9873 18.9476 16.8806 19.1121 16.8806 19.2943V20.0012H15.1022V19.2943C15.1022 19.1121 14.9911 18.952 14.8266 18.8809C14.5598 18.7742 14.3108 18.6275 14.0796 18.4496C13.9996 18.3874 13.9018 18.3563 13.804 18.3563C13.7284 18.3563 13.6528 18.374 13.5817 18.4141L12.9682 18.7697L12.079 17.2314L12.6925 16.8758C12.8481 16.7868 12.937 16.609 12.9104 16.4312C12.8881 16.2622 12.8748 16.1288 12.8748 15.9999C12.8748 15.871 12.8837 15.7376 12.9104 15.5687C12.937 15.3908 12.8481 15.213 12.6925 15.1241L12.079 14.7684L12.9682 13.2301L13.5817 13.5858C13.7373 13.6747 13.9329 13.6614 14.0796 13.5502C14.3108 13.3724 14.5598 13.2257 14.8266 13.119C14.9955 13.0523 15.1022 12.8878 15.1022 12.7055V11.9986H16.8806V12.7055C16.8806 12.8878 16.9917 13.0478 17.1562 13.119C17.423 13.2257 17.6719 13.3724 17.9031 13.5502C18.0454 13.6614 18.241 13.6747 18.4011 13.5858L19.0146 13.2301L19.9038 14.7684L19.2903 15.1241C19.1347 15.213 19.0457 15.3908 19.0724 15.5687C19.0946 15.7376 19.108 15.871 19.108 15.9999Z" fill="#0058E6"/>
<path d="M17.236 14.5728L15.551 16.2578L14.7552 15.462C14.5818 15.2886 14.3017 15.2886 14.1283 15.462C13.9549 15.6354 13.9549 15.9155 14.1283 16.0889L15.2398 17.2003C15.3287 17.2893 15.4399 17.3293 15.5555 17.3293C15.6711 17.3293 15.7822 17.2848 15.8711 17.2003L17.8718 15.1997C18.0452 15.0263 18.0452 14.7462 17.8718 14.5728C17.6984 14.3994 17.4183 14.3994 17.2449 14.5728H17.236Z" fill="#0058E6"/>
</svg>
