<svg width="32" height="32" viewBox="0 0 32 32" fill="none" xmlns="http://www.w3.org/2000/svg">
<path d="M27.449 26.6541H18.862C18.6866 25.7522 17.9706 25.0415 17.0659 24.8735V23.5682H17.1051C17.5284 23.5682 17.8726 23.2572 17.982 22.776L18.1597 21.9952C18.3697 21.9248 18.5749 21.8397 18.7735 21.7407L19.4513 22.1674C19.869 22.4303 20.3323 22.4069 20.6315 22.1075L21.2954 21.4438C21.5946 21.1445 21.6181 20.6812 21.3552 20.2635L20.9284 19.5853C21.0273 19.3868 21.1124 19.1817 21.1827 18.9719L21.9638 18.7942C22.445 18.6848 22.7559 18.3406 22.7559 17.9174V17.8781H24.1253C26.9629 17.8781 29.2716 15.5695 29.2716 12.7318C29.2716 9.89401 26.963 7.5854 24.1253 7.5854C24.0839 7.5854 24.0424 7.58594 24.0007 7.58696C23.8821 4.85362 21.6213 2.66663 18.8593 2.66663C16.8189 2.66663 14.9929 3.8641 14.1679 5.69405C13.656 5.45238 13.0958 5.32631 12.5225 5.32631C10.7867 5.32631 9.28135 6.48072 8.81302 8.11916C6.15302 8.15508 4 10.3301 4 12.9984C4 15.6891 6.18904 17.8781 8.87974 17.8781H10.5157V17.9174C10.5157 18.3406 10.8266 18.6848 11.3078 18.7942L12.0886 18.9718C12.159 19.182 12.2442 19.3872 12.3431 19.5856L11.9164 20.2635C11.6535 20.6812 11.6769 21.1445 11.9762 21.4437L12.64 22.1075C12.9392 22.4067 13.4024 22.4303 13.8202 22.1674L14.4984 21.7405C14.6969 21.8395 14.902 21.9245 15.1118 21.9949L15.2895 22.776C15.4007 23.2646 15.7367 23.5681 16.1664 23.5681H16.2057V24.8802C15.3188 25.0605 14.6202 25.7645 14.4472 26.6541H5.86033C5.6228 26.6541 5.43022 26.8467 5.43022 27.0842C5.43022 27.3217 5.6228 27.5143 5.86033 27.5143H14.4473C14.6486 28.5494 15.5616 29.3333 16.6546 29.3333C17.7477 29.3333 18.6607 28.5494 18.8621 27.5143H27.449C27.6866 27.5143 27.8791 27.3217 27.8791 27.0842C27.8791 26.8467 27.6866 26.6541 27.449 26.6541L27.449 26.6541ZM8.87969 17.0179C6.66329 17.0179 4.86016 15.2148 4.86016 12.9984C4.86016 10.7821 6.66329 8.97895 8.87969 8.97895C8.95899 8.97895 9.03942 8.98148 9.1256 8.98664C9.34345 8.99976 9.53485 8.849 9.57437 8.63556C9.83695 7.21647 11.0767 6.18653 12.5225 6.18653C13.1042 6.18653 13.6683 6.35335 14.1539 6.66895C14.2653 6.74142 14.4041 6.7583 14.5297 6.71454C14.6553 6.67083 14.7536 6.57147 14.7959 6.4455C15.3832 4.6998 17.0162 3.5269 18.8593 3.5269C21.2227 3.5269 23.1454 5.44964 23.1454 7.81303C23.1454 7.88352 23.1436 7.95556 23.1401 8.02717C23.1339 8.15352 23.1836 8.27621 23.276 8.36255C23.3684 8.44884 23.4937 8.49019 23.6198 8.47546C23.7883 8.45567 23.9583 8.44567 24.1253 8.44567C26.4886 8.44567 28.4114 10.3684 28.4114 12.7318C28.4114 15.0952 26.4886 17.0179 24.1253 17.0179H22.7559V16.9787C22.7559 16.5555 22.445 16.2113 21.9638 16.1018L21.183 15.9242C21.1126 15.7141 21.0275 15.5089 20.9285 15.3104L21.3552 14.6326C21.6182 14.2149 21.5947 13.7516 21.2954 13.4523L20.6316 12.7886C20.3323 12.4893 19.8691 12.4658 19.4514 12.7287L18.7732 13.1556C18.5747 13.0566 18.3696 12.9715 18.1598 12.9012L17.9821 12.1201C17.8727 11.6388 17.5285 11.3279 17.1052 11.3279H16.1665C15.7368 11.3279 15.4008 11.6314 15.2896 12.12L15.1119 12.9011C14.902 12.9715 14.6969 13.0565 14.4985 13.1555L13.8203 12.7287C13.4028 12.4658 12.9394 12.4893 12.64 12.7886L11.9763 13.4523C11.677 13.7516 11.6535 14.2149 11.9164 14.6326L12.3432 15.3106C12.2442 15.5091 12.159 15.7143 12.0887 15.9243L11.3078 16.1019C10.8266 16.2113 10.5157 16.5555 10.5157 16.9788V17.018H8.87974L8.87969 17.0179ZM16.1284 22.5852L15.8954 21.5611C15.8602 21.4065 15.7429 21.2838 15.59 21.2418C15.2777 21.1559 14.9759 21.0308 14.6931 20.8699C14.5552 20.7915 14.3854 20.7952 14.2513 20.8797L13.362 21.4395C13.303 21.4766 13.2596 21.4881 13.2394 21.4905L12.5933 20.8444C12.5957 20.8241 12.6072 20.7808 12.6443 20.7218L13.2039 19.8328C13.2884 19.6986 13.2922 19.5288 13.2137 19.391C13.0529 19.1085 12.9278 18.8066 12.8417 18.4937C12.7996 18.3409 12.677 18.2235 12.5224 18.1884L11.4985 17.9555C11.4306 17.9401 11.3918 17.9176 11.3758 17.9049V16.9913C11.3918 16.9786 11.4306 16.9561 11.4985 16.9406L12.5225 16.7077C12.6771 16.6726 12.7999 16.5552 12.8418 16.4023C12.9278 16.0898 13.0529 15.7881 13.2138 15.5054C13.2923 15.3676 13.2885 15.1977 13.204 15.0635L12.6443 14.1743C12.6072 14.1154 12.5957 14.072 12.5933 14.0517L13.2394 13.4057C13.2596 13.408 13.303 13.4196 13.362 13.4567L14.2513 14.0164C14.3856 14.101 14.5553 14.1047 14.6931 14.0263C14.9758 13.8654 15.2775 13.7403 15.59 13.6544C15.7429 13.6123 15.8602 13.4897 15.8954 13.3351L16.1284 12.3109C16.1438 12.243 16.1663 12.2042 16.1789 12.1882H17.0926C17.1052 12.2042 17.1277 12.243 17.1431 12.3109L17.3761 13.3351C17.4113 13.4897 17.5286 13.6123 17.6815 13.6544C17.9938 13.7403 18.2956 13.8654 18.5784 14.0263C18.7162 14.1047 18.8859 14.1009 19.0202 14.0164L19.9095 13.4567C19.9685 13.4196 20.0118 13.4081 20.0321 13.4057L20.6782 14.0518C20.6758 14.072 20.6643 14.1154 20.6272 14.1743L20.0676 15.0633C19.9831 15.1976 19.9793 15.3674 20.0578 15.5052C20.2186 15.7877 20.3437 16.0896 20.4298 16.4025C20.4719 16.5553 20.5945 16.6726 20.7491 16.7078L21.773 16.9406C21.8409 16.9561 21.8797 16.9786 21.8957 16.9913V17.9049C21.8797 17.9176 21.8409 17.9401 21.773 17.9555L20.7488 18.1885C20.5943 18.2236 20.4716 18.341 20.4295 18.4938C20.3436 18.8061 20.2185 19.1079 20.0576 19.3907C19.9792 19.5285 19.9829 19.6984 20.0675 19.8325L20.6272 20.7219C20.6643 20.7808 20.6758 20.8241 20.6782 20.8445L20.0321 21.4905C20.0118 21.4881 19.9684 21.4766 19.9095 21.4395L19.0206 20.8799C18.8863 20.7954 18.7165 20.7917 18.5787 20.8701C18.296 21.031 17.9942 21.1561 17.6815 21.2421C17.5286 21.2841 17.4113 21.4068 17.3761 21.5614L17.1432 22.5854C17.1278 22.6533 17.1053 22.692 17.0926 22.7081H16.179C16.1664 22.692 16.1438 22.6532 16.1284 22.5853L16.1284 22.5852ZM16.6546 28.4731C15.889 28.4731 15.2661 27.8505 15.2657 27.085C15.2657 27.0847 15.2657 27.0845 15.2657 27.0843C15.2657 27.084 15.2657 27.0838 15.2657 27.0836C15.2661 26.318 15.889 25.6954 16.6546 25.6954C17.4202 25.6954 18.0435 26.3184 18.0435 27.0843C18.0435 27.8501 17.4205 28.4731 16.6546 28.4731ZM16.3228 6.58782C16.1617 6.41325 16.1726 6.14115 16.3471 5.98002C17.0887 5.29539 18.0563 5.05765 19.2227 5.27335C20.6277 5.53319 21.6981 6.62497 21.9498 8.05486C21.9909 8.28884 21.8347 8.51185 21.6007 8.55304C21.5755 8.5575 21.5504 8.55965 21.5257 8.55965C21.3208 8.55965 21.1393 8.41277 21.1026 8.204C20.9139 7.13137 20.1146 6.31309 19.0664 6.11927C18.1683 5.95319 17.4698 6.11443 16.9306 6.61212C16.7559 6.77325 16.4838 6.76233 16.3228 6.58782ZM8.01146 15.38C7.92641 15.4788 7.80624 15.5295 7.68533 15.5295C7.58597 15.5295 7.48614 15.4953 7.4049 15.4253C6.6728 14.795 6.25285 13.8884 6.25285 12.938C6.25285 12.0645 6.59871 11.2397 7.22662 10.6156C7.39517 10.4481 7.66748 10.449 7.83485 10.6174C8.00232 10.7859 8.00151 11.0582 7.83302 11.2256C7.36872 11.6871 7.11302 12.2952 7.11302 12.938C7.11302 13.6377 7.42393 14.3067 7.96608 14.7734C8.14608 14.9284 8.16641 15.2 8.01141 15.38L8.01146 15.38ZM19.0135 17.4479C19.0135 16.1369 17.9469 15.0703 16.6358 15.0703C15.3248 15.0703 14.2581 16.1369 14.2581 17.4479C14.2581 18.759 15.3248 19.8256 16.6358 19.8256C17.9469 19.8256 19.0135 18.759 19.0135 17.4479ZM15.1184 17.4479C15.1184 16.6112 15.7991 15.9305 16.6359 15.9305C17.4727 15.9305 18.1534 16.6112 18.1534 17.4479C18.1534 18.2847 17.4727 18.9654 16.6359 18.9654C15.7991 18.9654 15.1184 18.2847 15.1184 17.4479Z" fill="#0058E6"/>
</svg>
