<svg width="32" height="32" viewBox="0 0 32 32" fill="none" xmlns="http://www.w3.org/2000/svg">
<path opacity="0.5" d="M26.5605 22.5224C26.5605 22.9547 26.21 23.3052 25.7777 23.3052C25.3453 23.3052 24.9949 22.9547 24.9949 22.5224C24.9949 22.09 25.3453 21.7396 25.7777 21.7396C26.21 21.7396 26.5605 22.09 26.5605 22.5224Z" fill="#0058E6"/>
<path fill-rule="evenodd" clip-rule="evenodd" d="M18.7419 3.84091C16.8741 3.84091 15.1375 4.07449 13.6723 4.47432C13.3595 4.55968 13.0368 4.37529 12.9514 4.06248C12.866 3.74967 13.0504 3.42688 13.3632 3.34151C14.9388 2.91156 16.7802 2.66669 18.7419 2.66669C21.5658 2.66669 24.1506 3.17434 26.0514 4.01935C27.001 4.44151 27.8059 4.95941 28.3813 5.56416C28.9596 6.17194 29.3289 6.89445 29.3289 7.69923V7.70455C29.3312 7.72561 29.3323 7.7469 29.3323 7.76859V15.3108H29.3333C29.3333 15.3327 29.333 15.3552 29.3323 15.377V23.7813H29.3333C29.3333 26.4671 24.4357 28.6449 18.3941 28.6449C12.3525 28.6449 7.45483 26.4677 7.45483 23.7819L7.4557 23.7813V15.373C7.45515 15.3525 7.45483 15.332 7.45483 15.3114L7.4557 15.3108V14.8338C7.4557 14.5096 7.71856 14.2467 8.04281 14.2467C8.36705 14.2467 8.62992 14.5096 8.62992 14.8338V15.3527C8.64166 15.6353 8.77537 15.9853 9.16521 16.3949C9.58002 16.8309 10.2358 17.277 11.1359 17.6771C12.9331 18.4761 15.4983 19.0002 18.3941 19.0002C21.2898 19.0002 23.8551 18.4761 25.6522 17.6771C26.5524 17.277 27.2081 16.8309 27.6229 16.3949C28.0115 15.9865 28.1457 15.6374 28.1581 15.3554V10.054C27.6052 10.5653 26.8839 11.009 26.0514 11.3791C24.1506 12.2241 21.5658 12.7318 18.7419 12.7318C16.8261 12.7318 15.0251 12.4982 13.4744 12.0868C13.1611 12.0037 12.9744 11.6823 13.0575 11.3688C13.1407 11.0554 13.4622 10.8688 13.7756 10.9519C15.219 11.3348 16.918 11.5576 18.7419 11.5576C21.4408 11.5576 23.8559 11.07 25.5744 10.3062C26.4344 9.92383 27.094 9.48381 27.5306 9.02485C27.9644 8.56901 28.1547 8.12203 28.1547 7.69923C28.1547 7.27643 27.9644 6.82947 27.5306 6.37355C27.094 5.91462 26.4344 5.47461 25.5744 5.09232C23.8559 4.32839 21.4408 3.84091 18.7419 3.84091ZM28.1581 23.7813L28.1582 23.7927L28.1587 23.8084C28.1511 24.0935 28.0196 24.4485 27.6229 24.8654C27.2081 25.3014 26.5524 25.7474 25.6522 26.1476C23.8551 26.9465 21.2898 27.4707 18.3941 27.4707C15.4983 27.4707 12.9331 26.9465 11.1359 26.1476C10.2358 25.7474 9.58002 25.3014 9.16521 24.8654C8.7749 24.4552 8.64135 24.1049 8.62992 23.8222V23.8149V17.5064C10.4342 19.0894 14.1291 20.1744 18.3941 20.1744C22.659 20.1744 26.3538 19.0894 28.1581 17.5065V23.7813Z" fill="#0058E6"/>
<path d="M25.7777 15.7695C26.21 15.7695 26.5605 15.419 26.5605 14.9867C26.5605 14.5544 26.21 14.2039 25.7777 14.2039C25.3453 14.2039 24.9949 14.5544 24.9949 14.9867C24.9949 15.419 25.3453 15.7695 25.7777 15.7695Z" fill="#0058E6"/>
<path d="M5.40645 7.00227C5.0822 7.00227 4.81934 7.26515 4.81934 7.58939C4.81934 7.91363 5.0822 8.1765 5.40645 8.1765H6.77638V9.54643C6.77638 9.87067 7.03924 10.1335 7.36349 10.1335C7.68771 10.1335 7.95057 9.87067 7.95057 9.54643V8.1765H9.3205C9.64474 8.1765 9.90761 7.91363 9.90761 7.58939C9.90761 7.26515 9.64474 7.00227 9.3205 7.00227H7.95057V5.63234C7.95057 5.30808 7.68771 5.04523 7.36349 5.04523C7.03924 5.04523 6.77638 5.30808 6.77638 5.63234V7.00227H5.40645Z" fill="#0058E6"/>
<path fill-rule="evenodd" clip-rule="evenodd" d="M12.0604 7.58932C12.0604 10.1833 9.95751 12.2862 7.36352 12.2862C4.7695 12.2862 2.66663 10.1833 2.66663 7.58932C2.66663 4.99526 4.7695 2.8924 7.36352 2.8924C9.95751 2.8924 12.0604 4.99526 12.0604 7.58932ZM10.8862 7.58932C10.8862 9.53477 9.30903 11.112 7.36352 11.112C5.418 11.112 3.84085 9.53477 3.84085 7.58932C3.84085 5.64377 5.418 4.06662 7.36352 4.06662C9.30903 4.06662 10.8862 5.64377 10.8862 7.58932Z" fill="#0058E6"/>
</svg>
