<svg width="32" height="32" viewBox="0 0 32 32" fill="none" xmlns="http://www.w3.org/2000/svg">
<path fill-rule="evenodd" clip-rule="evenodd" d="M7.83639 24.7567L7.46752 24.9697C5.94142 25.8507 3.97285 25.3214 3.093 23.7975C2.21315 22.2736 2.73907 20.3041 4.26516 19.423C4.6792 19.1839 6.3353 18.2278 6.74939 17.9887C8.26984 16.6243 9.37674 14.7204 10.358 13.0165C10.3617 13.0093 10.3656 13.0021 10.3697 12.995C10.4596 12.8386 10.5491 12.684 10.6376 12.5316C10.7447 12.3467 10.8505 12.1651 10.9555 11.9879C10.9557 11.9874 10.9561 11.987 10.9563 11.9865L10.9565 11.9861C11.1954 11.5841 11.5937 11.3588 12.0588 11.3621C12.5239 11.3654 12.9207 11.5959 13.1528 11.9978L14.7008 14.6792C15.6283 14.3363 16.6952 14.7006 17.2063 15.5858C17.7174 16.4711 17.4994 17.5772 16.7387 18.2089L18.2868 20.8903C18.5257 21.3041 18.5199 21.7786 18.2723 22.1859C18.0251 22.5926 17.611 22.8162 17.1336 22.7975H17.1333L17.1326 22.7974C16.9353 22.7898 16.7372 22.7819 16.5384 22.7748C14.5207 22.7057 12.4303 22.7286 10.4078 23.3766L12.6761 27.3054C12.7949 27.5112 12.7244 27.7742 12.5187 27.893L12.0568 28.1597C11.1256 28.6973 9.92594 28.3758 9.3883 27.4447L7.83639 24.7567ZM6.8453 18.9266L4.69528 20.1679C3.57908 20.8123 3.1945 22.2529 3.83795 23.3674C4.48146 24.482 5.92126 24.8691 7.0374 24.2247L9.18743 22.9833L6.8453 18.9266ZM10.7406 14.0665C9.85169 15.5831 8.84329 17.1859 7.5473 18.4221L9.96847 22.6157C11.7085 22.0283 13.4985 21.886 15.2575 21.8898L10.7406 14.0665ZM17.5418 21.3204L12.4077 12.4279C12.3325 12.2976 12.2035 12.2234 12.0528 12.2223C11.9023 12.2213 11.7739 12.2949 11.6965 12.4248L11.6962 12.4254C11.5474 12.6787 11.3943 12.9409 11.2391 13.2093L16.2594 21.9048C16.4045 21.9093 16.5494 21.9144 16.6939 21.9197C16.852 21.9253 17.0097 21.9315 17.1669 21.9379H17.1673C17.3224 21.944 17.457 21.8712 17.5373 21.7391C17.6173 21.6075 17.6191 21.4541 17.5418 21.3204ZM16.2975 17.4448C16.6515 17.0668 16.7337 16.4877 16.4613 16.0159C16.189 15.5442 15.6464 15.3258 15.142 15.4434L16.2975 17.4448ZM8.5814 24.3266L10.1333 27.0146C10.4342 27.5357 11.1055 27.7156 11.6267 27.4147L11.7161 27.3631L9.61755 23.7284L8.5814 24.3266ZM29.3333 9.69591C29.3333 10.4155 28.7465 11.0009 28.0269 11.0009H24.2517L22.6645 12.6532C22.5429 12.7798 22.3566 12.8197 22.1938 12.7542C22.0309 12.6886 21.9243 12.5307 21.9243 12.3552V11.0009H21.6133C20.8937 11.0009 20.3069 10.4155 20.3069 9.69591V5.3066C20.3069 4.58719 20.8939 4.00019 21.6133 4.00019H28.0269C28.7463 4.00019 29.3333 4.58719 29.3333 5.3066V9.69591ZM28.4731 9.69591V5.3066C28.4731 5.0609 28.2726 4.86041 28.0269 4.86041H21.6133C21.3676 4.86041 21.1672 5.0609 21.1672 5.3066V9.69591C21.1672 9.9414 21.3678 10.1407 21.6133 10.1407H22.3544C22.5919 10.1407 22.7845 10.3333 22.7845 10.5708V11.2866L23.7583 10.2729C23.8394 10.1884 23.9514 10.1407 24.0684 10.1407H28.0269C28.2724 10.1407 28.4731 9.9414 28.4731 9.69591ZM22.4445 6.55598C22.2071 6.55598 22.0144 6.36323 22.0144 6.12586C22.0144 5.88849 22.2071 5.69575 22.4445 5.69575H27.1188C27.3562 5.69575 27.5489 5.88849 27.5489 6.12586C27.5489 6.36323 27.3562 6.55598 27.1188 6.55598H22.4445ZM22.4445 7.94659C22.2071 7.94659 22.0144 7.75389 22.0144 7.51647C22.0144 7.2791 22.2071 7.08636 22.4445 7.08636H27.1188C27.3562 7.08636 27.5489 7.2791 27.5489 7.51647C27.5489 7.75389 27.3562 7.94659 27.1188 7.94659H22.4445ZM22.4445 9.33591C22.2071 9.33591 22.0144 9.14316 22.0144 8.90579C22.0144 8.66842 22.2071 8.47568 22.4445 8.47568H27.1188C27.3562 8.47568 27.5489 8.66842 27.5489 8.90579C27.5489 9.14316 27.3562 9.33591 27.1188 9.33591H22.4445ZM25.2769 13.3615C27.5157 13.3615 29.3333 15.1791 29.3333 17.4179C29.3333 19.6567 27.5157 21.4743 25.2769 21.4743C23.0381 21.4743 21.2205 19.6567 21.2205 17.4179C21.2205 15.1791 23.0381 13.3615 25.2769 13.3615ZM25.2769 14.2217C23.5128 14.2217 22.0807 15.6539 22.0807 17.4179C22.0807 19.182 23.5128 20.6141 25.2769 20.6141C27.0409 20.6141 28.4731 19.182 28.4731 17.4179C28.4731 15.6539 27.0409 14.2217 25.2769 14.2217ZM27.1446 17.7904L24.528 19.301C24.3949 19.3779 24.231 19.3779 24.0979 19.301C23.9648 19.2242 23.8828 19.0822 23.8828 18.9286V15.9072C23.8828 15.7536 23.9648 15.6116 24.0979 15.5348C24.231 15.4579 24.3949 15.4579 24.528 15.5348L27.1446 17.0454C27.2776 17.1222 27.3596 17.2642 27.3596 17.4179C27.3596 17.5716 27.2776 17.7135 27.1446 17.7904ZM26.0693 17.4179L24.7431 16.6522V18.1836L26.0693 17.4179ZM14.213 11.4535C13.3595 10.9515 12.0776 10.058 11.1795 9.01187C10.5314 8.25697 10.0881 7.41878 10.073 6.59033C10.0506 5.35021 10.7499 4.45751 11.7033 4.13272C12.5307 3.85088 13.5744 3.99621 14.5117 4.77859C15.449 3.99712 16.4929 3.85175 17.3205 4.13331C18.2745 4.45783 18.9742 5.3501 18.9518 6.59028C18.9367 7.41873 18.4934 8.25697 17.8453 9.01187C16.9472 10.058 15.6653 10.9515 14.8121 11.4533C14.6228 11.5661 14.4024 11.5661 14.213 11.4535ZM14.5124 10.6304C15.2999 10.1536 16.4063 9.36741 17.1926 8.45148C17.6992 7.86142 18.0799 7.22222 18.0917 6.57469C18.1064 5.7608 17.6695 5.16069 17.0435 4.94767C16.3824 4.72283 15.5448 4.92622 14.8182 5.66489C14.7373 5.74709 14.6268 5.79338 14.5115 5.79333C14.3962 5.79333 14.2857 5.74699 14.2048 5.66473C13.4783 4.92547 12.6413 4.72197 11.9807 4.94698C11.3549 5.16015 10.9184 5.76075 10.9331 6.57469C10.9449 7.22222 11.3256 7.86142 11.8322 8.45148C12.6185 9.36741 13.725 10.1536 14.5124 10.6304ZM16.7581 13.0859C16.6966 13.3152 16.4605 13.4515 16.2313 13.39C16.002 13.3286 15.8657 13.0926 15.9271 12.8633L16.3377 11.3311C16.3991 11.1018 16.6352 10.9655 16.8645 11.0269C17.0938 11.0884 17.23 11.3244 17.1686 11.5537L16.7581 13.0859ZM18.9201 18.0698C18.6908 18.0081 18.5548 17.7719 18.6165 17.5427C18.6782 17.3135 18.9143 17.1774 19.1435 17.2391L20.6768 17.6516C20.9061 17.7132 21.0421 17.9494 20.9804 18.1786C20.9188 18.4079 20.6826 18.5439 20.4534 18.4822L18.9201 18.0698ZM18.8705 15.1318C18.6649 15.2504 18.4017 15.1799 18.283 14.9744C18.1643 14.7688 18.2348 14.5055 18.4404 14.3868L19.8167 13.5922C20.0223 13.4735 20.2855 13.5441 20.4042 13.7496C20.5229 13.9552 20.4524 14.2185 20.2468 14.3372L18.8705 15.1318Z" fill="#0058E6"/>
</svg>
