<svg width="32" height="32" viewBox="0 0 32 32" fill="none" xmlns="http://www.w3.org/2000/svg">
<path d="M28.0001 15.5556H27.5556V6.22222C27.5542 4.99556 26.5601 4.00144 25.3334 4H6.66675C5.44008 4.00144 4.44597 4.99556 4.44453 6.22222V12.8889H4.00008C3.26369 12.8889 2.66675 13.4858 2.66675 14.2222V25.7778C2.66675 26.5142 3.26369 27.1111 4.00008 27.1111H20.889C21.1344 27.1111 21.3334 26.9121 21.3334 26.6667C21.332 25.44 20.3379 24.4459 19.1112 24.4444H17.7779V21.7778H23.1112V25.7778C23.1112 26.5142 23.7081 27.1111 24.4445 27.1111H28.0001C28.7365 27.1111 29.3334 26.5142 29.3334 25.7778V16.8889C29.3334 16.1525 28.7365 15.5556 28.0001 15.5556ZM12.4445 25.7778C12.4445 26.0232 12.2455 26.2222 12.0001 26.2222H4.00008C3.75464 26.2222 3.55564 26.0232 3.55564 25.7778V25.3333H12.4445V25.7778ZM12.4445 24.4444H3.55564V14.2222C3.55564 13.9768 3.75464 13.7778 4.00008 13.7778H12.0001C12.2455 13.7778 12.4445 13.9768 12.4445 14.2222V24.4444ZM19.1112 25.3333C19.6761 25.334 20.1795 25.6899 20.3685 26.2222H13.2516C13.3043 26.0799 13.3319 25.9296 13.3334 25.7778V25.3333H19.1112ZM13.3334 24.4444V21.7778H14.2223V24.4444H13.3334ZM15.1112 24.4444V21.7778H16.889V24.4444H15.1112ZM23.1112 20.8889H13.3334V18.2222H23.1112V20.8889ZM23.1112 16.8889V17.3333H13.3334V14.2222C13.3319 14.0113 13.2797 13.8039 13.1814 13.6173C13.1881 13.6111 13.197 13.6093 13.2032 13.6027L17.6032 9.20267C17.7737 9.02611 17.7689 8.74472 17.5923 8.57422C17.4201 8.40789 17.147 8.40789 16.9747 8.57422L12.5747 12.9742C12.5641 12.9853 12.5596 12.9996 12.5503 13.0111C12.3779 12.9311 12.1901 12.8894 12.0001 12.8889H5.33342V6.22222C5.33342 5.48583 5.93036 4.88889 6.66675 4.88889H25.3334C26.0698 4.88889 26.6667 5.48583 26.6667 6.22222V15.5556H24.4445C23.7081 15.5556 23.1112 16.1525 23.1112 16.8889ZM28.4445 25.7778C28.4445 26.0232 28.2455 26.2222 28.0001 26.2222H24.4445C24.1991 26.2222 24.0001 26.0232 24.0001 25.7778V25.3333H28.4445V25.7778ZM28.4445 24.4444H24.0001V16.8889C24.0001 16.6434 24.1991 16.4444 24.4445 16.4444H28.0001C28.2455 16.4444 28.4445 16.6434 28.4445 16.8889V24.4444Z" fill="#0058E6"/>
<path d="M7.97734 18.2986C7.80378 18.1251 7.52245 18.1251 7.34889 18.2986L5.46356 20.184C5.287 20.3545 5.28211 20.6359 5.45267 20.8124C5.62323 20.989 5.90456 20.9939 6.08111 20.8233C6.08484 20.8198 6.08845 20.8161 6.092 20.8124L7.97734 18.9271C8.05667 18.7896 7.89723 18.5282 7.97734 18.2986Z" fill="#0058E6"/>
<path d="M10.6332 18.2986C10.461 18.1323 10.1879 18.1323 10.0156 18.2986L8.13031 20.184C7.95375 20.3545 7.94886 20.6359 8.11942 20.8124C8.28992 20.989 8.57131 20.9939 8.74786 20.8233C8.75158 20.8198 8.7552 20.8161 8.75875 20.8124L10.6441 18.9271C10.8146 18.7505 10.8098 18.4691 10.6332 18.2986Z" fill="#0058E6"/>
<path d="M20.3034 8.57464C20.1312 8.40831 19.8581 8.40831 19.6858 8.57464L15.2858 12.9746C15.1093 13.1451 15.1044 13.4265 15.2749 13.6031C15.4454 13.7796 15.7268 13.7845 15.9033 13.614C15.9071 13.6105 15.9107 13.6068 15.9143 13.6031L20.3143 9.20308C20.4848 9.02653 20.4799 8.74514 20.3034 8.57464Z" fill="#0058E6"/>
<path d="M27.1542 19.5018C26.9819 19.3354 26.7088 19.3354 26.5366 19.5018L25.2797 20.7587C25.1032 20.9292 25.0983 21.2106 25.2688 21.3871C25.4394 21.5637 25.7207 21.5686 25.8973 21.398C25.9009 21.3945 25.9046 21.3908 25.9082 21.3871L27.1651 20.1302C27.3356 19.9537 27.3307 19.6724 27.1542 19.5018Z" fill="#0058E6"/>
<path d="M16.0089 19.1111H16.0045C15.759 19.1123 15.561 19.3123 15.5623 19.5578C15.5635 19.8032 15.7635 20.0012 16.0089 20C16.2544 20 16.4534 19.801 16.4534 19.5555C16.4534 19.3101 16.2544 19.1111 16.0089 19.1111Z" fill="#0058E6"/>
<path d="M16.889 5.77777H15.1112C14.8657 5.77777 14.6667 5.97677 14.6667 6.22222C14.6667 6.46766 14.8657 6.66666 15.1112 6.66666H16.889C17.1344 6.66666 17.3334 6.46766 17.3334 6.22222C17.3334 5.97677 17.1344 5.77777 16.889 5.77777Z" fill="#0058E6"/>
</svg>
