<svg width="32" height="32" viewBox="0 0 32 32" fill="none" xmlns="http://www.w3.org/2000/svg">
<mask id="mask0_44_323" style="mask-type:luminance" maskUnits="userSpaceOnUse" x="2" y="2" width="28" height="28">
<path d="M2.66663 2.66671H29.3333V29.3334H2.66663V2.66671Z" fill="white"/>
</mask>
<g mask="url(#mask0_44_323)">
<path fill-rule="evenodd" clip-rule="evenodd" d="M15.7778 22.6522C15.7778 22.6522 15.7778 22.6522 15.7778 22.6521L10.3503 19.5185C10.2128 19.4391 10.1281 19.2924 10.1281 19.1337V12.8664C10.1281 12.7077 10.2128 12.561 10.3502 12.4816L10.3503 12.4816L15.7778 9.34797C15.9153 9.26859 16.0847 9.26858 16.2222 9.34796L21.6498 12.4816L21.6499 12.4816C21.7873 12.561 21.872 12.7076 21.872 12.8664V19.1337C21.872 19.2924 21.7873 19.4391 21.6498 19.5185L16.2223 22.6521C16.2223 22.6521 16.2223 22.6522 16.2223 22.6522C16.0847 22.7315 15.9153 22.7315 15.7778 22.6522ZM15.3873 23.3288C15.7664 23.5476 16.2336 23.5476 16.6128 23.3288L16.6129 23.3287L22.0404 20.1951C22.4197 19.9762 22.6533 19.5715 22.6533 19.1337V12.8664C22.6533 12.4286 22.4197 12.0239 22.0404 11.805L16.6129 8.6714C16.6129 8.67139 16.6129 8.6714 16.6129 8.6714C16.2337 8.45245 15.7664 8.45244 15.3872 8.6714L9.95973 11.805C9.95971 11.805 9.95969 11.805 9.95966 11.805C9.5804 12.0239 9.3468 12.4286 9.3468 12.8664V19.1337C9.3468 19.5715 9.58044 19.9762 9.95968 20.1951L15.3873 23.3288Z" fill="#0058E6"/>
<path fill-rule="evenodd" clip-rule="evenodd" d="M15.8047 16.3383C15.9256 16.4081 16.0745 16.4081 16.1954 16.3383L20.7094 13.7321C20.8963 13.6242 20.9603 13.3853 20.8524 13.1985C20.7445 13.0117 20.5056 12.9476 20.3188 13.0555L16.0001 15.5489L10.1822 12.19C9.99536 12.0821 9.75646 12.1461 9.64859 12.333C9.54072 12.5198 9.60474 12.7587 9.79157 12.8666L15.8047 16.3383Z" fill="#0058E6"/>
<path fill-rule="evenodd" clip-rule="evenodd" d="M16.0001 23.4883C16.2159 23.4883 16.3907 23.3134 16.3907 23.0977V16.0001C16.3907 15.7843 16.2159 15.6094 16.0001 15.6094C15.7844 15.6094 15.6095 15.7843 15.6095 16.0001V23.0977C15.6095 23.3134 15.7844 23.4883 16.0001 23.4883Z" fill="#0058E6"/>
<path fill-rule="evenodd" clip-rule="evenodd" d="M16.0001 5.17175C15.524 5.17175 15.1382 4.78591 15.1382 4.30988C15.1382 3.83384 15.524 3.448 16.0001 3.448C16.4761 3.448 16.862 3.83387 16.862 4.30988C16.862 4.78588 16.4761 5.17175 16.0001 5.17175ZM14.3569 4.30988C14.3569 5.21738 15.0926 5.953 16.0001 5.953C16.9075 5.953 17.6432 5.21742 17.6432 4.30988C17.6432 3.40234 16.9075 2.66675 16.0001 2.66675C15.0926 2.66675 14.3569 3.40237 14.3569 4.30988Z" fill="#0058E6"/>
<path fill-rule="evenodd" clip-rule="evenodd" d="M26.0202 11.0168C25.5442 11.0168 25.1583 10.631 25.1583 10.155C25.1583 9.67893 25.5442 9.29304 26.0202 9.29304C26.4962 9.29304 26.8821 9.67894 26.8821 10.155C26.8821 10.6309 26.4962 11.0168 26.0202 11.0168ZM24.3771 10.155C24.3771 11.0624 25.1127 11.7981 26.0202 11.7981C26.9277 11.7981 27.6634 11.0624 27.6634 10.155C27.6634 9.24746 26.9277 8.51179 26.0202 8.51179C25.1127 8.51179 24.3771 9.24747 24.3771 10.155Z" fill="#0058E6"/>
<path fill-rule="evenodd" clip-rule="evenodd" d="M26.0202 22.707C25.5442 22.707 25.1583 22.3211 25.1583 21.8451C25.1583 21.3691 25.5442 20.9832 26.0202 20.9832C26.4962 20.9832 26.8821 21.3691 26.8821 21.8451C26.8821 22.3211 26.4962 22.707 26.0202 22.707ZM24.3771 21.8451C24.3771 22.7526 25.1127 23.4883 26.0202 23.4883C26.9277 23.4883 27.6634 22.7526 27.6634 21.8451C27.6634 20.9376 26.9277 20.202 26.0202 20.202C25.1127 20.202 24.3771 20.9376 24.3771 21.8451Z" fill="#0058E6"/>
<path fill-rule="evenodd" clip-rule="evenodd" d="M16.0001 28.5521C15.524 28.5521 15.1382 28.1663 15.1382 27.6902C15.1382 27.2142 15.524 26.8284 16.0001 26.8284C16.4761 26.8284 16.862 27.2142 16.862 27.6902C16.862 28.1663 16.4761 28.5521 16.0001 28.5521ZM14.3569 27.6902C14.3569 28.5978 15.0926 29.3334 16.0001 29.3334C16.9075 29.3334 17.6432 28.5978 17.6432 27.6902C17.6432 26.7827 16.9075 26.0471 16.0001 26.0471C15.0926 26.0471 14.3569 26.7827 14.3569 27.6902Z" fill="#0058E6"/>
<path fill-rule="evenodd" clip-rule="evenodd" d="M5.97997 22.707C5.50393 22.707 5.11804 22.3211 5.11804 21.8451C5.11804 21.3691 5.50392 20.9832 5.97997 20.9832C6.45595 20.9832 6.84184 21.3691 6.84184 21.8451C6.84184 22.3211 6.45594 22.707 5.97997 22.707ZM4.33679 21.8451C4.33679 22.7526 5.07246 23.4883 5.97997 23.4883C6.88743 23.4883 7.62309 22.7526 7.62309 21.8451C7.62309 20.9376 6.88742 20.202 5.97997 20.202C5.07247 20.202 4.33679 20.9376 4.33679 21.8451Z" fill="#0058E6"/>
<path fill-rule="evenodd" clip-rule="evenodd" d="M5.97997 11.0168C5.50392 11.0168 5.11804 10.6309 5.11804 10.155C5.11804 9.67894 5.50393 9.29304 5.97997 9.29304C6.45594 9.29304 6.84184 9.67893 6.84184 10.155C6.84184 10.631 6.45595 11.0168 5.97997 11.0168ZM4.33679 10.155C4.33679 11.0624 5.07247 11.7981 5.97997 11.7981C6.88742 11.7981 7.62309 11.0624 7.62309 10.155C7.62309 9.24747 6.88743 8.51179 5.97997 8.51179C5.07246 8.51179 4.33679 9.24746 4.33679 10.155Z" fill="#0058E6"/>
<path fill-rule="evenodd" clip-rule="evenodd" d="M8.14371 8.84576C8.25157 9.03259 8.49048 9.09661 8.67731 8.98874L13.6664 6.10832C13.8532 6.00046 13.9172 5.76155 13.8094 5.57472C13.7015 5.38789 13.4626 5.32387 13.2758 5.43174L8.28669 8.31216C8.09985 8.42002 8.03584 8.65893 8.14371 8.84576Z" fill="#0058E6"/>
<path fill-rule="evenodd" clip-rule="evenodd" d="M23.8564 8.84576C23.9643 8.65893 23.9003 8.42002 23.7134 8.31216L18.7244 5.43174C18.5376 5.32387 18.2987 5.38788 18.1908 5.57472C18.083 5.76155 18.147 6.00045 18.3338 6.10832L23.3228 8.98874C23.5096 9.09661 23.7486 9.03259 23.8564 8.84576Z" fill="#0058E6"/>
<path fill-rule="evenodd" clip-rule="evenodd" d="M26.1241 19.3185C26.3399 19.3185 26.5148 19.1436 26.5148 18.9279V13.0722C26.5148 12.8565 26.3399 12.6816 26.1241 12.6816C25.9084 12.6816 25.7335 12.8565 25.7335 13.0722V18.9279C25.7335 19.1436 25.9084 19.3185 26.1241 19.3185Z" fill="#0058E6"/>
<path fill-rule="evenodd" clip-rule="evenodd" d="M18.1908 26.4254C18.2987 26.6122 18.5376 26.6762 18.7244 26.5683L23.7134 23.6879C23.9003 23.58 23.9643 23.3411 23.8564 23.1543C23.7486 22.9675 23.5096 22.9035 23.3228 23.0113L18.3338 25.8917C18.147 25.9996 18.083 26.2385 18.1908 26.4254Z" fill="#0058E6"/>
<path fill-rule="evenodd" clip-rule="evenodd" d="M13.8093 26.4254C13.9172 26.2385 13.8532 25.9996 13.6663 25.8917L8.67731 23.0113C8.49048 22.9035 8.25158 22.9675 8.14371 23.1543C8.03584 23.3411 8.09985 23.58 8.28669 23.6879L13.2757 26.5683C13.4625 26.6762 13.7014 26.6122 13.8093 26.4254Z" fill="#0058E6"/>
<path fill-rule="evenodd" clip-rule="evenodd" d="M5.8761 19.3185C6.09183 19.3185 6.26672 19.1436 6.26672 18.9279V13.0722C6.26672 12.8565 6.09183 12.6816 5.8761 12.6816C5.66036 12.6816 5.48547 12.8565 5.48547 13.0722V18.9279C5.48547 19.1436 5.66036 19.3185 5.8761 19.3185Z" fill="#0058E6"/>
<path fill-rule="evenodd" clip-rule="evenodd" d="M12.8905 16.821C13.1062 16.821 13.2811 16.6462 13.2811 16.4304V14.4183L19.3323 10.9225C19.5191 10.8146 19.583 10.5757 19.4751 10.3889C19.3672 10.2021 19.1283 10.1381 18.9415 10.246L12.6951 13.8546C12.5743 13.9244 12.4999 14.0533 12.4999 14.1928V16.4304C12.4999 16.6462 12.6748 16.821 12.8905 16.821Z" fill="#0058E6"/>
</g>
</svg>
