<svg width="121" height="121" viewBox="0 0 121 121" fill="none" xmlns="http://www.w3.org/2000/svg">
<path fill-rule="evenodd" clip-rule="evenodd" d="M43.6059 87.0059H18.335C14.0049 87.0059 10.5 83.5001 10.5 79.1764V27.875C10.5 23.5452 14.0051 20.0401 18.335 20.0401H62.7862V19.946C62.7862 17.0962 65.118 14.7681 67.9642 14.7681H70.4034V11.8569C70.4034 11.0744 71.0379 10.4399 71.8204 10.4399H76.6549C77.4374 10.4399 78.0719 11.0744 78.0719 11.8569V14.7681H82.8075V11.8569C82.8075 11.0744 83.4419 10.4399 84.2245 10.4399H89.0615C89.8441 10.4399 90.4785 11.0744 90.4785 11.8569V14.7681H95.2142V11.8569C95.2142 11.0744 95.8486 10.4399 96.6312 10.4399H101.466C102.248 10.4399 102.883 11.0744 102.883 11.8569V14.7681H105.322C108.168 14.7681 110.5 17.0962 110.5 19.946V52.3741C110.5 55.2203 108.168 57.5521 105.322 57.5521H102.705V79.1764C102.705 83.5005 99.1994 87.0059 94.8753 87.0059H69.4045C69.5126 91.6841 70.6919 96.6405 72.1569 99.7946H77.4951C80.4225 99.7946 82.8178 102.19 82.8178 105.117C82.8178 108.045 80.4225 110.44 77.4951 110.44H35.7152C32.7877 110.44 30.3925 108.045 30.3925 105.117C30.3925 102.19 32.7877 99.7946 35.7152 99.7946H41.0389C42.4664 96.6383 43.5429 91.6823 43.6059 87.0059ZM62.7862 22.8742H18.335C15.5713 22.8742 13.334 25.1114 13.334 27.875V71.41H25.8816C25.7429 70.4351 25.9476 69.4086 26.5318 68.5167C27.0024 67.796 27.5755 67.3177 28.2802 67.0468C28.7816 66.8541 29.3759 66.7687 30.0943 66.8302L30.0933 56.2563H24.0316C23.249 56.2563 22.6146 55.6219 22.6146 54.8393V41.829C22.6146 41.0464 23.249 40.412 24.0316 40.412H46.1804C46.963 40.412 47.5974 41.0464 47.5974 41.829V54.8393C47.5974 55.6219 46.963 56.2563 46.1804 56.2563H37.5478L37.5441 59.3952C37.836 59.3177 38.1405 59.2762 38.4524 59.2766C39.3225 59.2768 40.1255 59.5796 40.7617 60.0843C41.399 59.5782 42.2043 59.2756 43.0763 59.2766C43.9474 59.2768 44.7506 59.5794 45.3864 60.0839C46.0237 59.578 46.8285 59.2756 47.7004 59.2766C49.7518 59.2772 51.4269 60.9537 51.4285 63.0015L51.485 69.9521V69.9677C51.4836 70.4545 51.4494 70.9361 51.3838 71.41H99.8708V57.5521H67.9642C65.118 57.5521 62.7862 55.2203 62.7862 52.3741V22.8742ZM13.334 74.244V79.1764C13.334 81.9355 15.5717 84.1719 18.335 84.1719H94.8753C97.6342 84.1719 99.8708 81.9353 99.8708 79.1764V74.244H50.5879C48.9059 78.1161 45.0182 80.9051 40.2899 80.6339C33.5101 80.2458 33.1824 78.2942 27.6053 74.244H13.334ZM70.4034 17.6021H67.9642C66.6757 17.6021 65.6202 18.6559 65.6202 19.946V23.1037H107.666V19.946C107.666 18.6559 106.611 17.6021 105.322 17.6021H102.883V20.431C102.883 21.2136 102.248 21.848 101.466 21.848H96.6312C95.8486 21.848 95.2142 21.2136 95.2142 20.431V17.6021H90.4785V20.431C90.4785 21.2136 89.8441 21.848 89.0615 21.848H84.2245C83.4419 21.848 82.8075 21.2136 82.8075 20.431V17.6021H78.0719V20.431C78.0719 21.2136 77.4374 21.848 76.6549 21.848H71.8204C71.0379 21.848 70.4034 21.2136 70.4034 20.431V17.6021ZM65.6202 25.9377V52.3741C65.6202 53.6626 66.6757 54.7181 67.9642 54.7181H105.322C106.611 54.7181 107.666 53.6626 107.666 52.3741V25.9377H65.6202ZM69.0793 99.7946C67.7196 96.3513 66.6715 91.5563 66.5704 87.0059H46.4393C46.3783 91.5578 45.4162 96.3527 44.102 99.7946H69.0793ZM77.4951 102.629H35.7152C34.3464 102.629 33.2265 103.748 33.2265 105.117C33.2265 106.486 34.3464 107.606 35.7152 107.606H77.4951C78.8638 107.606 79.9838 106.486 79.9838 105.117C79.9838 103.748 78.8638 102.629 77.4951 102.629ZM32.9267 50.6462L32.9285 68.5859C32.9285 69.0412 32.7099 69.4687 32.3407 69.7351C31.9715 70.0015 31.497 70.0742 31.0648 69.9308C29.9366 69.5561 29.3126 69.4414 28.904 70.0669C28.498 70.6861 28.6563 71.5047 29.2543 71.9391C34.2247 75.5458 34.4204 77.4594 40.452 77.8045C45.1069 78.0715 48.635 74.2796 48.651 69.9665L48.5945 63.0191V63.0055C48.5951 62.5134 48.1923 62.1106 47.6994 62.1106C47.2091 62.11 46.8051 62.5102 46.8045 63.0011V63.0078C46.8032 63.7895 46.1692 64.4227 45.3874 64.4227C44.6057 64.4227 43.9715 63.7895 43.9704 63.0078V63.0011C43.9696 62.5112 43.567 62.1106 43.0753 62.1106C42.585 62.11 42.181 62.5102 42.1804 63.0011V63.0078C42.1791 63.7895 41.5451 64.4227 40.7634 64.4227C39.9816 64.4227 39.3474 63.7895 39.3464 63.0078V63.0011C39.3455 62.5112 38.9423 62.1106 38.4512 62.1106C37.9486 62.11 37.5431 62.565 37.5399 63.0677V63.078V63.0859C37.5389 63.8669 36.9061 64.4999 36.1251 64.5011C35.3439 64.5023 34.7091 63.8713 34.7059 63.0901L34.7204 50.6497C34.7202 50.1565 34.3174 49.7525 33.8243 49.7511C33.3318 49.7517 32.9267 50.1535 32.9267 50.6462ZM37.5512 53.4223H44.7634V43.246H25.4486V53.4223H30.0929L30.0927 50.6462C30.0927 48.5954 31.7745 46.9171 33.8253 46.9171C35.8757 46.9201 37.5545 48.5997 37.5545 50.6499L37.5512 53.4223ZM77.4028 42.8112C75.835 41.4644 75.6555 39.098 77.0022 37.5302C78.349 35.9624 80.7154 35.7829 82.2832 37.1296L84.7154 39.2189L90.9528 33.665C92.4966 32.2905 94.8656 32.428 96.2401 33.9715C97.6146 35.5152 97.4773 37.8843 95.9336 39.2588L87.25 46.9908C85.8494 48.2379 83.7421 48.2567 82.3194 47.0347L77.4028 42.8112ZM79.2494 40.6614L84.1662 44.8849C84.5121 45.182 85.0247 45.1776 85.3654 44.8741L94.049 37.1424C94.4245 36.808 94.4579 36.2316 94.1235 35.8561C93.7893 35.4806 93.213 35.4472 92.8374 35.7816L85.6745 42.1596C85.1445 42.6314 84.3472 42.6387 83.8089 42.1762L80.4366 39.2794C80.0553 38.9519 79.4796 38.9956 79.152 39.377C78.8245 39.7584 78.868 40.3339 79.2494 40.6614ZM75.2378 13.2739H73.2374V19.014H75.2378V13.2739ZM85.6415 13.2739V19.014H87.6445V13.2739H85.6415ZM53.0741 80.625C52.2921 80.625 51.6571 79.9901 51.6571 79.208C51.6571 78.426 52.2921 77.7909 53.0741 77.7909H60.1308C60.9128 77.7909 61.5478 78.426 61.5478 79.208C61.5478 79.9901 60.9128 80.625 60.1308 80.625H53.0741ZM98.0482 13.2739V19.014H100.049V13.2739H98.0482Z" fill="black"/>
</svg>
