<svg width="120" height="121" viewBox="0 0 120 121" fill="none" xmlns="http://www.w3.org/2000/svg">
<path fill-rule="evenodd" clip-rule="evenodd" d="M43.1059 87.3111H17.835C13.5049 87.3111 10 83.8052 10 79.4816V28.1801C10 23.8504 13.5051 20.3453 17.835 20.3453H62.2862V20.2512C62.2862 17.4014 64.618 15.0733 67.4642 15.0733H69.9034V12.1621C69.9034 11.3795 70.5379 10.7451 71.3204 10.7451H76.1549C76.9374 10.7451 77.5719 11.3795 77.5719 12.1621V15.0733H82.3075V12.1621C82.3075 11.3795 82.9419 10.7451 83.7245 10.7451H88.5615C89.3441 10.7451 89.9785 11.3795 89.9785 12.1621V15.0733H94.7142V12.1621C94.7142 11.3795 95.3486 10.7451 96.1312 10.7451H100.966C101.748 10.7451 102.383 11.3795 102.383 12.1621V15.0733H104.822C107.668 15.0733 110 17.4014 110 20.2512V52.6793C110 55.5255 107.668 57.8573 104.822 57.8573H102.205V79.4816C102.205 83.8056 98.6994 87.3111 94.3753 87.3111H68.9045C69.0126 91.9892 70.1919 96.9457 71.6569 100.1H76.9951C79.9225 100.1 82.3178 102.495 82.3178 105.422C82.3178 108.35 79.9225 110.745 76.9951 110.745H35.2152C32.2877 110.745 29.8925 108.35 29.8925 105.422C29.8925 102.495 32.2877 100.1 35.2152 100.1H40.5389C41.9664 96.9435 43.0429 91.9874 43.1059 87.3111ZM62.2862 23.1793H17.835C15.0713 23.1793 12.834 25.4166 12.834 28.1801V71.7152H25.3816C25.2429 70.7403 25.4476 69.7137 26.0318 68.8218C26.5024 68.1012 27.0755 67.6228 27.7802 67.352C28.2816 67.1593 28.8759 67.0739 29.5943 67.1354L29.5933 56.5615H23.5316C22.749 56.5615 22.1146 55.9271 22.1146 55.1445V42.1342C22.1146 41.3516 22.749 40.7172 23.5316 40.7172H45.6804C46.463 40.7172 47.0974 41.3516 47.0974 42.1342V55.1445C47.0974 55.9271 46.463 56.5615 45.6804 56.5615H37.0478L37.0441 59.7004C37.336 59.6229 37.6405 59.5814 37.9524 59.5818C38.8225 59.582 39.6255 59.8848 40.2617 60.3895C40.899 59.8834 41.7043 59.5807 42.5763 59.5818C43.4474 59.582 44.2506 59.8846 44.8864 60.389C45.5237 59.8832 46.3285 59.5807 47.2004 59.5818C49.2518 59.5824 50.9269 61.2589 50.9285 63.3067L50.985 70.2573V70.2729C50.9836 70.7597 50.9494 71.2413 50.8838 71.7152H99.3708V57.8573H67.4642C64.618 57.8573 62.2862 55.5255 62.2862 52.6793V23.1793ZM12.834 74.5492V79.4816C12.834 82.2407 15.0717 84.4771 17.835 84.4771H94.3753C97.1342 84.4771 99.3708 82.2405 99.3708 79.4816V74.5492H50.0879C48.4059 78.4212 44.5182 81.2103 39.7899 80.939C33.0101 80.551 32.6824 78.5994 27.1053 74.5492H12.834ZM69.9034 17.9073H67.4642C66.1757 17.9073 65.1202 18.9611 65.1202 20.2512V23.4089H107.166V20.2512C107.166 18.9611 106.111 17.9073 104.822 17.9073H102.383V20.7362C102.383 21.5188 101.748 22.1532 100.966 22.1532H96.1312C95.3486 22.1532 94.7142 21.5188 94.7142 20.7362V17.9073H89.9785V20.7362C89.9785 21.5188 89.3441 22.1532 88.5615 22.1532H83.7245C82.9419 22.1532 82.3075 21.5188 82.3075 20.7362V17.9073H77.5719V20.7362C77.5719 21.5188 76.9374 22.1532 76.1549 22.1532H71.3204C70.5379 22.1532 69.9034 21.5188 69.9034 20.7362V17.9073ZM65.1202 26.2429V52.6793C65.1202 53.9678 66.1757 55.0233 67.4642 55.0233H104.822C106.111 55.0233 107.166 53.9678 107.166 52.6793V26.2429H65.1202ZM68.5793 100.1C67.2196 96.6564 66.1715 91.8615 66.0704 87.3111H45.9393C45.8783 91.8629 44.9162 96.6579 43.602 100.1H68.5793ZM76.9951 102.934H35.2152C33.8464 102.934 32.7265 104.054 32.7265 105.422C32.7265 106.791 33.8464 107.911 35.2152 107.911H76.9951C78.3638 107.911 79.4838 106.791 79.4838 105.422C79.4838 104.054 78.3638 102.934 76.9951 102.934ZM32.4267 50.9514L32.4285 68.8911C32.4285 69.3463 32.2099 69.7739 31.8407 70.0403C31.4715 70.3067 30.997 70.3793 30.5648 70.236C29.4366 69.8613 28.8126 69.7465 28.404 70.372C27.998 70.9913 28.1563 71.8099 28.7543 72.2443C33.7247 75.851 33.9204 77.7645 39.952 78.1097C44.6069 78.3767 48.135 74.5848 48.151 70.2716L48.0945 63.3243V63.3107C48.0951 62.8186 47.6923 62.4158 47.1994 62.4158C46.7091 62.4152 46.3051 62.8154 46.3045 63.3063V63.3129C46.3032 64.0947 45.6692 64.7279 44.8874 64.7279C44.1057 64.7279 43.4715 64.0947 43.4704 63.3129V63.3063C43.4696 62.8164 43.067 62.4158 42.5753 62.4158C42.085 62.4152 41.681 62.8154 41.6804 63.3063V63.3129C41.6791 64.0947 41.0451 64.7279 40.2634 64.7279C39.4816 64.7279 38.8474 64.0947 38.8464 63.3129V63.3063C38.8455 62.8164 38.4423 62.4158 37.9512 62.4158C37.4486 62.4152 37.0431 62.8702 37.0399 63.3728V63.3832V63.3911C37.0389 64.172 36.4061 64.805 35.6251 64.8063C34.8439 64.8075 34.2091 64.1765 34.2059 63.3953L34.2204 50.9548C34.2202 50.4617 33.8174 50.0577 33.3243 50.0563C32.8318 50.0569 32.4267 50.4587 32.4267 50.9514ZM37.0512 53.7275H44.2634V43.5512H24.9486V53.7275H29.5929L29.5927 50.9514C29.5927 48.9006 31.2745 47.2222 33.3253 47.2222C35.3757 47.2253 37.0545 48.9048 37.0545 50.955L37.0512 53.7275ZM76.9028 43.1164C75.335 41.7696 75.1555 39.4032 76.5022 37.8354C77.849 36.2676 80.2154 36.088 81.7832 37.4348L84.2154 39.5241L90.4528 33.9702C91.9966 32.5957 94.3656 32.7332 95.7401 34.2767C97.1146 35.8204 96.9773 38.1894 95.4336 39.5639L86.75 47.2959C85.3494 48.5431 83.2421 48.5619 81.8194 47.3399L76.9028 43.1164ZM78.7494 40.9666L83.6662 45.1901C84.0121 45.4872 84.5247 45.4828 84.8654 45.1793L93.549 37.4475C93.9245 37.1131 93.9579 36.5368 93.6235 36.1613C93.2893 35.7858 92.713 35.7524 92.3374 36.0868L85.1745 42.4648C84.6445 42.9366 83.8472 42.9439 83.3089 42.4813L79.9366 39.5846C79.5553 39.2571 78.9796 39.3008 78.652 39.6822C78.3245 40.0635 78.368 40.639 78.7494 40.9666ZM74.7378 13.5791H72.7374V19.3192H74.7378V13.5791ZM85.1415 13.5791V19.3192H87.1445V13.5791H85.1415ZM52.5741 80.9301C51.7921 80.9301 51.1571 80.2953 51.1571 79.5131C51.1571 78.7311 51.7921 78.0961 52.5741 78.0961H59.6308C60.4128 78.0961 61.0478 78.7311 61.0478 79.5131C61.0478 80.2953 60.4128 80.9301 59.6308 80.9301H52.5741ZM97.5482 13.5791V19.3192H99.5486V13.5791H97.5482Z" fill="black"/>
</svg>
