<svg width="120" height="121" viewBox="0 0 120 121" fill="none" xmlns="http://www.w3.org/2000/svg">
<path d="M77.5781 72.7446C76.4996 72.7446 75.625 73.619 75.625 74.6978V88.1743C75.625 93.5591 71.2441 97.9399 65.8594 97.9399H44.7719C43.6936 97.9399 42.8195 98.8136 42.8187 99.8917L42.816 103.775L38.1543 99.1134C37.8525 98.4206 37.1619 97.9399 36.3631 97.9399H23.6719C18.2871 97.9399 13.9062 93.5591 13.9062 88.1743V58.0962C13.9062 52.7114 18.2871 48.3306 23.6719 48.3306H43.3984C44.477 48.3306 45.3516 47.4562 45.3516 46.3774C45.3516 45.2987 44.477 44.4243 43.3984 44.4243H23.6719C16.1332 44.4243 10 50.5575 10 58.0962V88.1743C10 95.713 16.1332 101.846 23.6719 101.846H35.3629L43.3846 109.868C43.7582 110.242 44.2576 110.44 44.766 110.44C45.0174 110.44 45.2711 110.391 45.5123 110.292C46.2422 109.99 46.7182 109.278 46.7188 108.488L46.7234 101.846H65.8594C73.398 101.846 79.5312 95.713 79.5312 88.1743V74.6978C79.5312 73.619 78.6566 72.7446 77.5781 72.7446Z" fill="black"/>
<path d="M81.6123 10.4399H76.6691C61.016 10.4399 48.2812 23.1747 48.2812 38.8278C48.2812 54.481 61.016 67.2155 76.6689 67.2155H81.6121C84.0553 67.2155 86.4734 66.9052 88.8172 66.2919L96.1193 73.5899C96.493 73.9632 96.9922 74.1616 97.5004 74.1616C97.7522 74.1616 98.0061 74.113 98.2477 74.0128C98.9773 73.7105 99.4531 72.9983 99.4531 72.2085V60.9085C102.545 58.4048 105.113 55.2421 106.915 51.7089C108.962 47.696 110 43.3622 110 38.8278C110 23.1747 97.2652 10.4399 81.6123 10.4399ZM96.3248 58.396C95.8352 58.7649 95.5469 59.3427 95.5469 59.9562V67.4952L90.7674 62.7183C90.3955 62.3468 89.8967 62.1466 89.3865 62.1466C89.1951 62.1466 89.0018 62.1749 88.8131 62.2329C86.4883 62.9474 84.0656 63.3095 81.6123 63.3095H76.6691C63.1697 63.3095 52.1875 52.327 52.1875 38.8278C52.1875 25.3286 63.1699 14.3462 76.6691 14.3462H81.6123C95.1115 14.3462 106.094 25.3286 106.094 38.8278C106.094 46.5878 102.533 53.7202 96.3248 58.396Z" fill="black"/>
<path d="M87.9201 31.8116C87.6383 27.7227 84.3422 24.4266 80.2531 24.1448C77.9352 23.9856 75.723 24.7674 74.0299 26.3481C72.36 27.9069 71.4023 30.1104 71.4023 32.3938C71.4023 33.4725 72.277 34.3469 73.3555 34.3469C74.434 34.3469 75.3086 33.4725 75.3086 32.3938C75.3086 31.1714 75.8012 30.0383 76.6953 29.2038C77.5887 28.37 78.7562 27.9573 79.9848 28.0421C82.1387 28.1905 83.8748 29.9266 84.0232 32.0803C84.1732 34.2555 82.7461 36.1778 80.6301 36.6512C78.9156 37.0348 77.7184 38.5247 77.7184 40.2741V44.9665C77.7184 46.0452 78.593 46.9196 79.6715 46.9196C80.7502 46.9196 81.6246 46.0452 81.6244 44.9665V40.4301C85.56 39.4794 88.2004 35.8782 87.9201 31.8116Z" fill="#0058E6"/>
<path d="M81.0684 51.311C80.7051 50.9478 80.2012 50.7388 79.6875 50.7388C79.1738 50.7388 78.6699 50.9478 78.3066 51.311C77.9434 51.6743 77.7344 52.1782 77.7344 52.6919C77.7344 53.2075 77.9436 53.7114 78.3066 54.0747C78.6699 54.438 79.1738 54.645 79.6875 54.645C80.2012 54.645 80.7051 54.438 81.0684 54.0747C81.4316 53.7095 81.6406 53.2075 81.6406 52.6919C81.6406 52.1782 81.4314 51.6743 81.0684 51.311Z" fill="#0058E6"/>
<path d="M63.7109 70.9868H22.5C21.4215 70.9868 20.5469 71.8612 20.5469 72.9399C20.5469 74.0187 21.4215 74.8931 22.5 74.8931H63.7109C64.7896 74.8931 65.6641 74.0187 65.6641 72.9399C65.6641 71.8612 64.7895 70.9868 63.7109 70.9868Z" fill="#0058E6"/>
<path d="M65.0916 82.4966C64.7285 82.1333 64.2246 81.9243 63.7109 81.9243C63.1973 81.9243 62.6934 82.1333 62.3301 82.4966C61.9666 82.8599 61.7578 83.3638 61.7578 83.8774C61.7578 84.3911 61.9668 84.895 62.3301 85.2583C62.6934 85.6216 63.1973 85.8306 63.7109 85.8306C64.2246 85.8306 64.7285 85.6216 65.0916 85.2583C65.4551 84.895 65.6641 84.3931 65.6641 83.8774C65.6641 83.3638 65.4549 82.8599 65.0916 82.4966Z" fill="black"/>
<path d="M56.0287 81.9243H22.5C21.4215 81.9243 20.5469 82.7987 20.5469 83.8774C20.5469 84.9562 21.4215 85.8306 22.5 85.8306H56.0287C57.1074 85.8306 57.9818 84.9562 57.9818 83.8774C57.9818 82.7987 57.1072 81.9243 56.0287 81.9243Z" fill="black"/>
<path d="M51.0156 60.0493H22.5C21.4215 60.0493 20.5469 60.9237 20.5469 62.0024C20.5469 63.0812 21.4215 63.9556 22.5 63.9556H51.0156C52.0943 63.9556 52.9688 63.0812 52.9688 62.0024C52.9688 60.9237 52.0941 60.0493 51.0156 60.0493Z" fill="black"/>
</svg>
