<svg width="120" height="121" viewBox="0 0 120 121" fill="none" xmlns="http://www.w3.org/2000/svg">
<path d="M59.4436 36.71C52.2031 36.71 46.3086 30.8155 46.3086 23.575C46.3086 16.3344 52.2031 10.4399 59.4436 10.4399C66.6842 10.4399 72.5787 16.3344 72.5787 23.575C72.5787 30.8155 66.6842 36.71 59.4436 36.71ZM59.4436 13.6966C53.9942 13.6966 49.5652 18.1256 49.5652 23.575C49.5652 29.0244 53.9942 33.4534 59.4436 33.4534C64.893 33.4534 69.3221 29.0244 69.3221 23.575C69.3221 18.1256 64.893 13.6966 59.4436 13.6966Z" fill="black"/>
<path d="M74.7303 57.3353H44.0963C42.4355 57.2267 41.1328 55.8372 41.1328 54.1655V48.7704C41.1328 47.0552 41.4151 45.3618 41.9795 43.7334C44.1289 37.5784 49.9365 33.4534 56.4498 33.4534H62.442C68.9661 33.4534 74.7737 37.5893 76.9122 43.7334C77.4767 45.3292 77.759 47.0226 77.759 48.7704V54.1655C77.759 55.8481 76.4455 57.2376 74.7737 57.3353H74.7303ZM44.3894 54.0786H74.5023V48.7704C74.5023 47.3917 74.2744 46.0565 73.8402 44.8081C72.1576 39.9558 67.5766 36.71 62.442 36.71H56.4498C51.326 36.71 46.7451 39.9666 45.0625 44.7973C44.6174 46.0782 44.3894 47.4134 44.3894 48.7704V54.0786Z" fill="black"/>
<path d="M97.6026 73.8464H94.3459V66.7361H24.5457V73.8464H21.2891V63.4795H97.6026V73.8464Z" fill="#0058E6"/>
<path d="M57.8125 55.7183H61.0691V73.8468H57.8125V55.7183Z" fill="#0058E6"/>
<path d="M59.4507 96.469C54.2618 96.469 50.0391 92.2463 50.0391 87.0574C50.0391 81.8685 54.2618 77.6458 59.4507 77.6458C64.6396 77.6458 68.8623 81.8685 68.8623 87.0574C68.8623 92.2463 64.6396 96.469 59.4507 96.469ZM59.4507 80.9024C56.053 80.9024 53.2957 83.6596 53.2957 87.0574C53.2957 90.4551 56.053 93.2124 59.4507 93.2124C62.8484 93.2124 65.6057 90.4551 65.6057 87.0574C65.6057 83.6596 62.8484 80.9024 59.4507 80.9024Z" fill="black"/>
<path d="M69.7974 110.44H49.031C47.6198 110.353 46.5234 109.18 46.5234 107.769V104.111C46.5234 102.906 46.7297 101.701 47.1205 100.54C48.6511 96.154 52.787 93.2122 57.4114 93.2122H61.4713C66.1066 93.2122 70.2425 96.154 71.7623 100.529C72.1639 101.658 72.3593 102.863 72.3593 104.111V107.769C72.3593 109.18 71.2629 110.353 69.8517 110.44H69.7974ZM49.7801 107.183H69.1027V104.111C69.1027 103.232 68.9616 102.385 68.6902 101.603C67.6264 98.5313 64.728 96.4688 61.4713 96.4688H57.4114C54.1656 96.4688 51.2673 98.5313 50.2034 101.593C49.9212 102.407 49.7801 103.253 49.7801 104.111V107.183Z" fill="black"/>
<path d="M22.9273 96.469C17.7384 96.469 13.5156 92.2463 13.5156 87.0574C13.5156 81.8685 17.7384 77.6458 22.9273 77.6458C28.1161 77.6458 32.3389 81.8685 32.3389 87.0574C32.3389 92.2463 28.1161 96.469 22.9273 96.469ZM22.9273 80.9024C19.5295 80.9024 16.7722 83.6596 16.7722 87.0574C16.7722 90.4551 19.5295 93.2124 22.9273 93.2124C26.325 93.2124 29.0823 90.4551 29.0823 87.0574C29.0823 83.6596 26.325 80.9024 22.9273 80.9024Z" fill="black"/>
<path d="M33.274 110.44H12.5076C11.0964 110.353 10 109.181 10 107.769V104.111C10 102.906 10.2063 101.701 10.597 100.54C12.1277 96.1542 16.2636 93.2124 20.888 93.2124H24.9479C29.5832 93.2124 33.7191 96.1542 35.2388 100.529C35.6405 101.658 35.8359 102.863 35.8359 104.111V107.769C35.8359 109.181 34.7395 110.353 33.3283 110.44H33.274ZM13.2566 107.183H32.5792V104.111C32.5792 103.232 32.4381 102.385 32.1667 101.604C31.1029 98.5315 28.2045 96.469 24.9479 96.469H20.888C17.6422 96.469 14.7438 98.5315 13.68 101.593C13.3977 102.407 13.2566 103.254 13.2566 104.111V107.183Z" fill="black"/>
<path d="M95.9741 96.469C90.7853 96.469 86.5625 92.2463 86.5625 87.0574C86.5625 81.8685 90.7853 77.6458 95.9741 77.6458C101.163 77.6458 105.386 81.8685 105.386 87.0574C105.386 92.2463 101.163 96.469 95.9741 96.469ZM95.9741 80.9024C92.5764 80.9024 89.8191 83.6596 89.8191 87.0574C89.8191 90.4551 92.5764 93.2124 95.9741 93.2124C99.3719 93.2124 102.129 90.4551 102.129 87.0574C102.129 83.6596 99.3719 80.9024 95.9741 80.9024Z" fill="black"/>
<path d="M106.34 110.44H85.574C84.1628 110.353 83.0664 109.18 83.0664 107.769V104.111C83.0664 102.906 83.2727 101.701 83.6635 100.54C85.1941 96.154 89.33 93.2122 93.9544 93.2122H98.0143C102.65 93.2122 106.785 96.154 108.305 100.529C108.707 101.658 108.902 102.863 108.902 104.111V107.769C108.902 109.18 107.806 110.353 106.395 110.44H106.34ZM86.323 107.183H105.646V104.111C105.646 103.232 105.505 102.385 105.233 101.603C104.169 98.5313 101.271 96.4688 98.0143 96.4688H93.9544C90.7086 96.4688 87.8102 98.5313 86.7464 101.593C86.4642 102.407 86.323 103.253 86.323 104.111V107.183Z" fill="black"/>
</svg>
