<svg width="120" height="121" viewBox="0 0 120 121" fill="none" xmlns="http://www.w3.org/2000/svg">
<path fill-rule="evenodd" clip-rule="evenodd" d="M8.5 44.1616C8.5 43.3332 9.17157 42.6616 10 42.6616H110C110.828 42.6616 111.5 43.3332 111.5 44.1616C111.5 44.99 110.828 45.6616 110 45.6616H10C9.17157 45.6616 8.5 44.99 8.5 44.1616Z" fill="black"/>
<path fill-rule="evenodd" clip-rule="evenodd" d="M80.668 15.7451C80.668 14.9167 81.3395 14.2451 82.168 14.2451H89.2513C90.0797 14.2451 90.7513 14.9167 90.7513 15.7451V33.0784C90.7513 33.9069 90.0797 34.5785 89.2513 34.5785H82.168C81.3395 34.5785 80.668 33.9069 80.668 33.0784V15.7451ZM83.668 17.2451V31.5784H87.7513V17.2451H83.668Z" fill="#0058E6"/>
<path fill-rule="evenodd" clip-rule="evenodd" d="M29.168 15.7451C29.168 14.9167 29.8395 14.2451 30.668 14.2451H37.7513C38.5797 14.2451 39.2513 14.9167 39.2513 15.7451V33.0784C39.2513 33.9069 38.5797 34.5785 37.7513 34.5785H30.668C29.8395 34.5785 29.168 33.9069 29.168 33.0784V15.7451ZM32.168 17.2451V31.5784H36.2513V17.2451H32.168Z" fill="#0058E6"/>
<path fill-rule="evenodd" clip-rule="evenodd" d="M15.4167 25.7451C13.2451 25.7451 11.5 27.4902 11.5 29.6618V98.4951C11.5 100.667 13.2451 102.412 15.4167 102.412H104.583C106.755 102.412 108.5 100.667 108.5 98.4951V29.6618C108.5 27.4902 106.755 25.7451 104.583 25.7451H89.3333C88.5049 25.7451 87.8333 25.0735 87.8333 24.2451C87.8333 23.4167 88.5049 22.7451 89.3333 22.7451H104.583C108.412 22.7451 111.5 25.8334 111.5 29.6618V98.4951C111.5 102.324 108.412 105.412 104.583 105.412H15.4167C11.5882 105.412 8.5 102.324 8.5 98.4951V29.6618C8.5 25.8334 11.5882 22.7451 15.4167 22.7451H30.4167C31.2451 22.7451 31.9167 23.4167 31.9167 24.2451C31.9167 25.0735 31.2451 25.7451 30.4167 25.7451H15.4167Z" fill="black"/>
<path fill-rule="evenodd" clip-rule="evenodd" d="M36.332 24.2451C36.332 23.4167 37.0036 22.7451 37.832 22.7451H82.1654C82.9938 22.7451 83.6654 23.4167 83.6654 24.2451C83.6654 25.0735 82.9938 25.7451 82.1654 25.7451H37.832C37.0036 25.7451 36.332 25.0735 36.332 24.2451Z" fill="black"/>
<path fill-rule="evenodd" clip-rule="evenodd" d="M31.8203 53.9956C31.8203 53.1672 32.4919 52.4956 33.3203 52.4956H59.987C60.8154 52.4956 61.487 53.1672 61.487 53.9956V79.1623H86.6536C87.4821 79.1623 88.1536 79.8338 88.1536 80.6623V93.9956C88.1536 94.824 87.4821 95.4956 86.6536 95.4956H33.3203C32.4919 95.4956 31.8203 94.824 31.8203 93.9956V53.9956ZM34.8203 55.4956V92.4956H85.1536V82.1623H59.987C59.1586 82.1623 58.487 81.4907 58.487 80.6623V55.4956H34.8203Z" fill="black"/>
<path fill-rule="evenodd" clip-rule="evenodd" d="M46.6523 52.4956C47.4808 52.4956 48.1523 53.1672 48.1523 53.9956V92.8289C48.1523 93.6574 47.4808 94.3289 46.6523 94.3289C45.8239 94.3289 45.1523 93.6574 45.1523 92.8289V53.9956C45.1523 53.1672 45.8239 52.4956 46.6523 52.4956Z" fill="black"/>
<path fill-rule="evenodd" clip-rule="evenodd" d="M31.8203 67.3291C31.8203 66.5007 32.4919 65.8291 33.3203 65.8291H59.987C60.8154 65.8291 61.487 66.5007 61.487 67.3291C61.487 68.1575 60.8154 68.8291 59.987 68.8291H33.3203C32.4919 68.8291 31.8203 68.1575 31.8203 67.3291Z" fill="black"/>
<path fill-rule="evenodd" clip-rule="evenodd" d="M31.8203 80.6621C31.8203 79.8337 32.4919 79.1621 33.3203 79.1621H59.987C60.8154 79.1621 61.487 79.8337 61.487 80.6621C61.487 81.4905 60.8154 82.1621 59.987 82.1621H33.3203C32.4919 82.1621 31.8203 81.4905 31.8203 80.6621Z" fill="black"/>
<path fill-rule="evenodd" clip-rule="evenodd" d="M59.9883 77.4956C60.8167 77.4956 61.4883 78.1672 61.4883 78.9956V93.9956C61.4883 94.824 60.8167 95.4956 59.9883 95.4956C59.1599 95.4956 58.4883 94.824 58.4883 93.9956V78.9956C58.4883 78.1672 59.1599 77.4956 59.9883 77.4956Z" fill="black"/>
<path fill-rule="evenodd" clip-rule="evenodd" d="M73.3203 79.1621C74.1487 79.1621 74.8203 79.8337 74.8203 80.6621V92.8288C74.8203 93.6572 74.1487 94.3288 73.3203 94.3288C72.4919 94.3288 71.8203 93.6572 71.8203 92.8288V80.6621C71.8203 79.8337 72.4919 79.1621 73.3203 79.1621Z" fill="black"/>
<path fill-rule="evenodd" clip-rule="evenodd" d="M67.7675 53.3514C68.3533 52.7657 69.303 52.7657 69.8888 53.3514L87.3055 70.7681C87.8912 71.3539 87.8912 72.3036 87.3055 72.8894C86.7197 73.4752 85.7699 73.4752 85.1841 72.8894L67.7675 55.4728C67.1817 54.887 67.1817 53.9372 67.7675 53.3514Z" fill="#0058E6"/>
<path fill-rule="evenodd" clip-rule="evenodd" d="M87.3055 53.3514C87.8912 53.9372 87.8912 54.887 87.3055 55.4728L69.8888 72.8894C69.303 73.4752 68.3533 73.4752 67.7675 72.8894C67.1817 72.3036 67.1817 71.3539 67.7675 70.7681L85.1841 53.3514C85.7699 52.7657 86.7197 52.7657 87.3055 53.3514Z" fill="#0058E6"/>
</svg>
