<svg width="120" height="121" viewBox="0 0 120 121" fill="none" xmlns="http://www.w3.org/2000/svg">
<path d="M103.537 34.83H101.442C103.313 32.7427 104.54 30.1582 104.974 27.3887C105.408 24.6192 105.031 21.7832 103.888 19.2235C102.745 16.6638 100.885 14.4898 98.5336 12.9643C96.1817 11.4388 93.4384 10.627 90.6351 10.627C87.8318 10.627 85.0884 11.4388 82.7366 12.9643C80.3847 14.4898 78.5249 16.6638 77.3819 19.2235C76.239 21.7832 75.8617 24.6192 76.2958 27.3887C76.7299 30.1582 77.9567 32.7427 79.8279 34.83H59.9937V18.703C59.9937 18.2753 59.8238 17.8651 59.5214 17.5626C59.219 17.2602 58.8088 17.0903 58.381 17.0903H51.9302C51.5025 17.0903 51.0923 17.2602 50.7899 17.5626C50.4874 17.8651 50.3175 18.2753 50.3175 18.703V34.83H48.7048V12.2522C48.7048 11.8245 48.5349 11.4143 48.2325 11.1118C47.93 10.8094 47.5198 10.6395 47.0921 10.6395H40.6413C40.2136 10.6395 39.8034 10.8094 39.501 11.1118C39.1985 11.4143 39.0286 11.8245 39.0286 12.2522V34.83H37.4159V23.5411C37.4159 23.1134 37.246 22.7032 36.9436 22.4007C36.6411 22.0983 36.2309 21.9284 35.8032 21.9284H29.3524C28.9247 21.9284 28.5145 22.0983 28.2121 22.4007C27.9096 22.7032 27.7397 23.1134 27.7397 23.5411V34.83H16.4508C14.7405 34.8319 13.1009 35.5122 11.8915 36.7215C10.6822 37.9309 10.0019 39.5705 10 41.2808V89.6618C10.0019 91.3721 10.6822 93.0118 11.8915 94.2211C13.1009 95.4305 14.7405 96.1107 16.4508 96.1126H49.6926L47.5417 102.563H42.254C41.8263 102.563 41.4161 102.733 41.1137 103.036C40.8112 103.338 40.6413 103.748 40.6413 104.176V107.402H24.5143C24.0866 107.402 23.6764 107.571 23.374 107.874C23.0715 108.176 22.9016 108.587 22.9016 109.014C22.9016 109.442 23.0715 109.852 23.374 110.155C23.6764 110.457 24.0866 110.627 24.5143 110.627H95.4732C95.9009 110.627 96.3111 110.457 96.6135 110.155C96.916 109.852 97.0859 109.442 97.0859 109.014C97.0859 108.587 96.916 108.176 96.6135 107.874C96.3111 107.571 95.9009 107.402 95.4732 107.402H79.3462V104.176C79.3462 103.748 79.1762 103.338 78.8738 103.036C78.5714 102.733 78.1612 102.563 77.7335 102.563H72.4458L70.2949 96.1126H103.537C105.247 96.1107 106.887 95.4305 108.096 94.2211C109.305 93.0118 109.986 91.3721 109.987 89.6618V41.2808C109.986 39.5705 109.305 37.9309 108.096 36.7215C106.887 35.5122 105.247 34.8319 103.537 34.83ZM92.2478 13.9818C94.658 14.3335 96.8903 15.4539 98.6127 17.1762C100.335 18.8985 101.455 21.1309 101.807 23.5411H92.2478V13.9818ZM91.3023 26.7665H101.807C101.529 28.7043 100.75 30.5364 99.5494 32.0824C98.3483 33.6285 96.7655 34.8353 94.9567 35.5844C93.1479 36.3334 91.1753 36.5988 89.2328 36.3545C87.2903 36.1102 85.4449 35.3646 83.8778 34.191L91.3023 26.7665ZM79.3462 25.1538C79.35 22.4404 80.3296 19.8189 82.106 17.7678C83.8825 15.7168 86.3373 14.373 89.0224 13.9818V24.4865L81.5979 31.911C80.134 29.9626 79.3437 27.5909 79.3462 25.1538ZM53.5429 20.3157H56.7683V50.957H53.5429V20.3157ZM48.7048 38.0554H50.3175V50.957H48.7048V38.0554ZM42.254 13.8649H45.4794V50.957H42.254V13.8649ZM37.4159 38.0554H39.0286V50.957H37.4159V38.0554ZM30.9651 25.1538H34.1905V50.957H30.9651V25.1538ZM76.1208 105.789V107.402H43.8667V105.789H76.1208ZM50.9425 102.563L53.0934 96.1126H66.8941L69.045 102.563H50.9425ZM106.762 89.6618C106.761 90.5169 106.421 91.3367 105.816 91.9413C105.212 92.5459 104.392 92.8861 103.537 92.8872H16.4508C15.5957 92.8861 14.776 92.5459 14.1713 91.9413C13.5667 91.3367 13.2265 90.5169 13.2254 89.6618V86.4364H106.762V89.6618ZM106.762 83.211H13.2254V41.2808C13.2265 40.4257 13.5667 39.606 14.1713 39.0013C14.776 38.3967 15.5957 38.0565 16.4508 38.0554H27.7397V50.957H26.127V41.2808C26.127 40.8531 25.9571 40.4429 25.6547 40.1404C25.3522 39.838 24.942 39.6681 24.5143 39.6681H18.0635C17.6358 39.6681 17.2256 39.838 16.9232 40.1404C16.6207 40.4429 16.4508 40.8531 16.4508 41.2808V52.5697C16.4508 52.9974 16.6207 53.4076 16.9232 53.7101C17.2256 54.0125 17.6358 54.1824 18.0635 54.1824H69.6699C70.0977 54.1824 70.5079 54.0125 70.8103 53.7101C71.1127 53.4076 71.2826 52.9974 71.2826 52.5697V41.2808C71.2826 40.8531 71.1127 40.4429 70.8103 40.1404C70.5079 39.838 70.0977 39.6681 69.6699 39.6681H63.2191C62.7914 39.6681 62.3812 39.838 62.0788 40.1404C61.7763 40.4429 61.6064 40.8531 61.6064 41.2808V50.957H59.9937V38.0554H83.9988C86.0504 39.1151 88.3259 39.6681 90.6351 39.6681C92.9442 39.6681 95.2197 39.1151 97.2713 38.0554H103.537C104.392 38.0565 105.212 38.3967 105.816 39.0013C106.421 39.606 106.761 40.4257 106.762 41.2808V83.211ZM22.9016 42.8935V50.957H19.6762V42.8935H22.9016ZM64.8318 50.957V42.8935H68.0572V50.957H64.8318Z" fill="black"/>
<path d="M27.7381 88.0488H18.0619C17.6342 88.0488 17.224 88.2187 16.9216 88.5212C16.6191 88.8236 16.4492 89.2338 16.4492 89.6615C16.4492 90.0892 16.6191 90.4994 16.9216 90.8019C17.224 91.1043 17.6342 91.2742 18.0619 91.2742H27.7381C28.1658 91.2742 28.576 91.1043 28.8785 90.8019C29.1809 90.4994 29.3508 90.0892 29.3508 89.6615C29.3508 89.2338 29.1809 88.8236 28.8785 88.5212C28.576 88.2187 28.1658 88.0488 27.7381 88.0488Z" fill="#0058E6"/>
<path d="M34.1902 88.0488H32.5775C32.1498 88.0488 31.7396 88.2187 31.4372 88.5212C31.1348 88.8236 30.9648 89.2338 30.9648 89.6615C30.9648 90.0892 31.1348 90.4994 31.4372 90.8019C31.7396 91.1043 32.1498 91.2742 32.5775 91.2742H34.1902C34.618 91.2742 35.0282 91.1043 35.3306 90.8019C35.633 90.4994 35.8029 90.0892 35.8029 89.6615C35.8029 89.2338 35.633 88.8236 35.3306 88.5212C35.0282 88.2187 34.618 88.0488 34.1902 88.0488Z" fill="#0058E6"/>
<path d="M77.7339 50.9575C77.9457 50.9578 78.1555 50.9162 78.3512 50.8351C78.5469 50.7541 78.7247 50.6351 78.8742 50.4851L84.8525 44.5067H98.699C99.1267 44.5067 99.5369 44.3367 99.8393 44.0343C100.142 43.7319 100.312 43.3217 100.312 42.894C100.312 42.4662 100.142 42.056 99.8393 41.7536C99.5369 41.4512 99.1267 41.2813 98.699 41.2813H84.1847C83.9729 41.2812 83.7632 41.323 83.5675 41.404C83.3718 41.485 83.194 41.6038 83.0443 41.7536L76.5935 48.2044C76.3679 48.4299 76.2143 48.7173 76.1521 49.0301C76.0899 49.343 76.1218 49.6672 76.2439 49.9619C76.3659 50.2566 76.5726 50.5085 76.8379 50.6857C77.1031 50.8629 77.4149 50.9575 77.7339 50.9575Z" fill="black"/>
<path d="M98.6987 68.6971C97.8512 68.6977 97.0187 68.9209 96.2846 69.3444C95.5505 69.7679 94.9406 70.3768 94.5158 71.1101L77.6328 61.2605C77.4041 60.1615 76.8003 59.1763 75.9249 58.4735C75.0495 57.7708 73.957 57.3943 72.8346 57.4086C71.7121 57.4229 70.6295 57.8271 69.7723 58.5519C68.9151 59.2767 68.3367 60.277 68.136 61.3815L51.1462 74.1238C50.684 73.4121 50.0426 72.8345 49.2864 72.4493C48.5302 72.064 47.6859 71.8847 46.8384 71.9292C45.9909 71.9737 45.17 72.2406 44.4584 72.703C43.7467 73.1654 43.1694 73.807 42.7843 74.5633L25.9921 67.5662C25.7271 66.4615 25.082 65.4851 24.1697 64.8081C23.2574 64.1311 22.136 63.7966 21.0019 63.8632C19.8678 63.9297 18.7932 64.3931 17.9664 65.1721C17.1395 65.9512 16.613 66.9963 16.4791 68.1244C16.3451 69.2525 16.6123 70.3918 17.2338 71.3428C17.8553 72.2938 18.7915 72.9959 19.8785 73.3261C20.9655 73.6564 22.1341 73.5937 23.1795 73.1491C24.225 72.7046 25.0807 71.9064 25.597 70.8944L42.3892 77.8915C42.6485 78.9705 43.2708 79.9275 44.1519 80.6021C45.033 81.2766 46.1192 81.6278 47.2284 81.5966C48.3376 81.5654 49.4024 81.1538 50.2442 80.4307C51.086 79.7077 51.6535 78.7172 51.8518 77.6254L68.8416 64.8831C69.2916 65.5764 69.912 66.1428 70.6435 66.5279C71.3749 66.913 72.1929 67.1041 73.0192 67.0829C73.8456 67.0617 74.6527 66.8288 75.3634 66.4066C76.0741 65.9844 76.6646 65.387 77.0784 64.6714L93.9614 74.521C94.1477 75.4164 94.5841 76.2407 95.2199 76.8982C95.8556 77.5557 96.6647 78.0196 97.5534 78.236C98.4421 78.4523 99.3739 78.4124 100.241 78.1208C101.108 77.8291 101.874 77.2977 102.451 76.5882C103.028 75.8787 103.393 75.0201 103.502 74.112C103.611 73.2039 103.46 72.2835 103.067 71.4575C102.674 70.6315 102.056 69.9338 101.282 69.4452C100.509 68.9566 99.6133 68.6972 98.6987 68.6971ZM22.9018 68.7052C22.9007 69.1336 22.7296 69.5441 22.4261 69.8465C22.1226 70.1489 21.7114 70.3184 21.283 70.3179C20.8546 70.3173 20.4439 70.1468 20.1411 69.8436C19.8383 69.5405 19.6683 69.1296 19.6683 68.7011C19.6683 68.2727 19.8383 67.8618 20.1411 67.5586C20.4439 67.2555 20.8546 67.0849 21.283 67.0844C21.7114 67.0839 22.1226 67.2534 22.4261 67.5558C22.7296 67.8582 22.9007 68.2687 22.9018 68.6971V68.7052ZM47.0923 78.3733C46.6647 78.3727 46.2549 78.2026 45.9526 77.9003C45.6503 77.598 45.4802 77.1881 45.4796 76.7606V76.7525C45.4812 76.4339 45.5771 76.1229 45.7553 75.8588C45.9334 75.5946 46.1859 75.3892 46.4807 75.2684C46.7755 75.1475 47.0995 75.1168 47.4118 75.1799C47.7241 75.243 48.0107 75.3972 48.2354 75.6231C48.4602 75.849 48.613 76.1363 48.6745 76.4489C48.7361 76.7615 48.7037 77.0854 48.5814 77.3796C48.4591 77.6738 48.2524 77.9252 47.9874 78.1021C47.7224 78.2789 47.4109 78.3733 47.0923 78.3733ZM72.8955 63.859C72.5765 63.859 72.2647 63.7644 71.9995 63.5872C71.7343 63.41 71.5276 63.1581 71.4055 62.8634C71.2835 62.5688 71.2515 62.2445 71.3138 61.9317C71.376 61.6188 71.5296 61.3315 71.7551 61.1059C71.9807 60.8804 72.268 60.7268 72.5809 60.6646C72.8937 60.6024 73.218 60.6343 73.5126 60.7564C73.8073 60.8784 74.0592 61.0851 74.2364 61.3503C74.4136 61.6155 74.5082 61.9273 74.5082 62.2463C74.5076 62.6738 74.3375 63.0837 74.0352 63.386C73.7329 63.6883 73.323 63.8584 72.8955 63.859ZM98.6987 75.1479C98.3797 75.1479 98.0679 75.0533 97.8027 74.8761C97.5375 74.6989 97.3308 74.447 97.2088 74.1524C97.0867 73.8577 97.0548 73.5334 97.117 73.2206C97.1792 72.9077 97.3328 72.6204 97.5583 72.3949C97.7839 72.1693 98.0712 72.0157 98.3841 71.9535C98.6969 71.8913 99.0212 71.9232 99.3159 72.0453C99.6105 72.1673 99.8624 72.374 100.04 72.6392C100.217 72.9044 100.311 73.2162 100.311 73.5352C100.311 73.9627 100.141 74.3726 99.8384 74.6749C99.5361 74.9772 99.1262 75.1473 98.6987 75.1479Z" fill="#0058E6"/>
<path d="M85.7961 78.373H74.5072C74.0795 78.373 73.6693 78.543 73.3669 78.8454C73.0644 79.1478 72.8945 79.558 72.8945 79.9857C72.8945 80.4135 73.0644 80.8237 73.3669 81.1261C73.6693 81.4285 74.0795 81.5984 74.5072 81.5984H85.7961C86.2239 81.5984 86.6341 81.4285 86.9365 81.1261C87.2389 80.8237 87.4088 80.4135 87.4088 79.9857C87.4088 79.558 87.2389 79.1478 86.9365 78.8454C86.6341 78.543 86.2239 78.373 85.7961 78.373Z" fill="black"/>
<path d="M85.7985 73.5352H80.9604C80.5326 73.5352 80.1224 73.7051 79.82 74.0075C79.5176 74.3099 79.3477 74.7201 79.3477 75.1479C79.3477 75.5756 79.5176 75.9858 79.82 76.2882C80.1224 76.5906 80.5326 76.7606 80.9604 76.7606H85.7985C86.2262 76.7606 86.6364 76.5906 86.9388 76.2882C87.2413 75.9858 87.4112 75.5756 87.4112 75.1479C87.4112 74.7201 87.2413 74.3099 86.9388 74.0075C86.6364 73.7051 86.2262 73.5352 85.7985 73.5352Z" fill="black"/>
<path d="M18.0619 59.0203H35.8016C36.2293 59.0203 36.6395 58.8504 36.942 58.548C37.2444 58.2455 37.4143 57.8353 37.4143 57.4076C37.4143 56.9799 37.2444 56.5697 36.942 56.2673C36.6395 55.9648 36.2293 55.7949 35.8016 55.7949H18.0619C17.6342 55.7949 17.224 55.9648 16.9216 56.2673C16.6191 56.5697 16.4492 56.9799 16.4492 57.4076C16.4492 57.8353 16.6191 58.2455 16.9216 58.548C17.224 58.8504 17.6342 59.0203 18.0619 59.0203Z" fill="black"/>
<path d="M40.64 59.0203H42.2527C42.6805 59.0203 43.0907 58.8504 43.3931 58.548C43.6955 58.2455 43.8654 57.8353 43.8654 57.4076C43.8654 56.9799 43.6955 56.5697 43.3931 56.2673C43.0907 55.9648 42.6805 55.7949 42.2527 55.7949H40.64C40.2123 55.7949 39.8021 55.9648 39.4997 56.2673C39.1973 56.5697 39.0273 56.9799 39.0273 57.4076C39.0273 57.8353 39.1973 58.2455 39.4997 58.548C39.8021 58.8504 40.2123 59.0203 40.64 59.0203Z" fill="black"/>
</svg>
