<svg width="121" height="121" viewBox="0 0 121 121" fill="none" xmlns="http://www.w3.org/2000/svg">
<path fill-rule="evenodd" clip-rule="evenodd" d="M8.83203 43.8567C8.83203 43.0283 9.5036 42.3567 10.332 42.3567H110.332C111.16 42.3567 111.832 43.0283 111.832 43.8567C111.832 44.6851 111.16 45.3567 110.332 45.3567H10.332C9.5036 45.3567 8.83203 44.6851 8.83203 43.8567Z" fill="black"/>
<path fill-rule="evenodd" clip-rule="evenodd" d="M81 15.4399C81 14.6115 81.6716 13.9399 82.5 13.9399H89.5833C90.4118 13.9399 91.0833 14.6115 91.0833 15.4399V32.7733C91.0833 33.6017 90.4118 34.2733 89.5833 34.2733H82.5C81.6716 34.2733 81 33.6017 81 32.7733V15.4399ZM84 16.9399V31.2733H88.0833V16.9399H84Z" fill="#0058E6"/>
<path fill-rule="evenodd" clip-rule="evenodd" d="M29.5 15.4399C29.5 14.6115 30.1716 13.9399 31 13.9399H38.0833C38.9118 13.9399 39.5833 14.6115 39.5833 15.4399V32.7733C39.5833 33.6017 38.9118 34.2733 38.0833 34.2733H31C30.1716 34.2733 29.5 33.6017 29.5 32.7733V15.4399ZM32.5 16.9399V31.2733H36.5833V16.9399H32.5Z" fill="#0058E6"/>
<path fill-rule="evenodd" clip-rule="evenodd" d="M15.7487 25.4399C13.5771 25.4399 11.832 27.185 11.832 29.3566V98.19C11.832 100.362 13.5771 102.107 15.7487 102.107H104.915C107.087 102.107 108.832 100.362 108.832 98.19V29.3566C108.832 27.185 107.087 25.4399 104.915 25.4399H89.6654C88.8369 25.4399 88.1654 24.7684 88.1654 23.9399C88.1654 23.1115 88.8369 22.4399 89.6654 22.4399H104.915C108.744 22.4399 111.832 25.5282 111.832 29.3566V98.19C111.832 102.018 108.744 105.107 104.915 105.107H15.7487C11.9203 105.107 8.83203 102.018 8.83203 98.19V29.3566C8.83203 25.5282 11.9203 22.4399 15.7487 22.4399H30.7487C31.5771 22.4399 32.2487 23.1115 32.2487 23.9399C32.2487 24.7684 31.5771 25.4399 30.7487 25.4399H15.7487Z" fill="black"/>
<path fill-rule="evenodd" clip-rule="evenodd" d="M36.6641 23.9399C36.6641 23.1115 37.3356 22.4399 38.1641 22.4399H82.4974C83.3258 22.4399 83.9974 23.1115 83.9974 23.9399C83.9974 24.7684 83.3258 25.4399 82.4974 25.4399H38.1641C37.3356 25.4399 36.6641 24.7684 36.6641 23.9399Z" fill="black"/>
<path fill-rule="evenodd" clip-rule="evenodd" d="M32.1523 53.6907C32.1523 52.8622 32.8239 52.1907 33.6523 52.1907H60.319C61.1474 52.1907 61.819 52.8622 61.819 53.6907V78.8573H86.9857C87.8141 78.8573 88.4857 79.5289 88.4857 80.3573V93.6907C88.4857 94.5191 87.8141 95.1907 86.9857 95.1907H33.6523C32.8239 95.1907 32.1523 94.5191 32.1523 93.6907V53.6907ZM35.1523 55.1907V92.1907H85.4857V81.8573H60.319C59.4906 81.8573 58.819 81.1858 58.819 80.3573V55.1907H35.1523Z" fill="black"/>
<path fill-rule="evenodd" clip-rule="evenodd" d="M46.9844 52.1907C47.8128 52.1907 48.4844 52.8622 48.4844 53.6907V92.524C48.4844 93.3524 47.8128 94.024 46.9844 94.024C46.1559 94.024 45.4844 93.3524 45.4844 92.524V53.6907C45.4844 52.8622 46.1559 52.1907 46.9844 52.1907Z" fill="black"/>
<path fill-rule="evenodd" clip-rule="evenodd" d="M32.1523 67.0239C32.1523 66.1955 32.8239 65.5239 33.6523 65.5239H60.319C61.1474 65.5239 61.819 66.1955 61.819 67.0239C61.819 67.8524 61.1474 68.5239 60.319 68.5239H33.6523C32.8239 68.5239 32.1523 67.8524 32.1523 67.0239Z" fill="black"/>
<path fill-rule="evenodd" clip-rule="evenodd" d="M32.1523 80.3574C32.1523 79.529 32.8239 78.8574 33.6523 78.8574H60.319C61.1474 78.8574 61.819 79.529 61.819 80.3574C61.819 81.1858 61.1474 81.8574 60.319 81.8574H33.6523C32.8239 81.8574 32.1523 81.1858 32.1523 80.3574Z" fill="black"/>
<path fill-rule="evenodd" clip-rule="evenodd" d="M60.3203 77.1907C61.1487 77.1907 61.8203 77.8622 61.8203 78.6907V93.6907C61.8203 94.5191 61.1487 95.1907 60.3203 95.1907C59.4919 95.1907 58.8203 94.5191 58.8203 93.6907V78.6907C58.8203 77.8622 59.4919 77.1907 60.3203 77.1907Z" fill="black"/>
<path fill-rule="evenodd" clip-rule="evenodd" d="M73.6523 78.8574C74.4808 78.8574 75.1523 79.529 75.1523 80.3574V92.5241C75.1523 93.3525 74.4808 94.0241 73.6523 94.0241C72.8239 94.0241 72.1523 93.3525 72.1523 92.5241V80.3574C72.1523 79.529 72.8239 78.8574 73.6523 78.8574Z" fill="black"/>
<path fill-rule="evenodd" clip-rule="evenodd" d="M68.0995 53.0463C68.6853 52.4605 69.635 52.4605 70.2208 53.0463L87.6375 70.4629C88.2233 71.0487 88.2233 71.9985 87.6375 72.5843C87.0517 73.17 86.102 73.17 85.5162 72.5843L68.0995 55.1676C67.5137 54.5818 67.5137 53.6321 68.0995 53.0463Z" fill="#0058E6"/>
<path fill-rule="evenodd" clip-rule="evenodd" d="M87.6375 53.0463C88.2233 53.6321 88.2233 54.5818 87.6375 55.1676L70.2208 72.5843C69.635 73.17 68.6853 73.17 68.0995 72.5843C67.5137 71.9985 67.5137 71.0487 68.0995 70.4629L85.5162 53.0463C86.102 52.4605 87.0517 52.4605 87.6375 53.0463Z" fill="#0058E6"/>
</svg>
