<svg width="121" height="121" viewBox="0 0 121 121" fill="none" xmlns="http://www.w3.org/2000/svg">
<path d="M36.7619 97.3096C34.7022 97.3106 32.6711 96.8271 30.8328 95.898C28.9946 94.969 27.4006 93.6206 26.1799 91.9616C24.9591 90.3027 24.1457 88.3799 23.8054 86.3485C23.4651 84.3171 23.6075 82.2342 24.2211 80.268C24.8347 78.3018 25.9022 76.5075 27.3374 75.0302C28.7726 73.5528 30.5352 72.4338 32.4828 71.7636C34.4304 71.0934 36.5083 70.8908 38.5487 71.1721C40.5891 71.4535 42.5347 72.2109 44.2283 73.3831C44.3983 73.501 44.5434 73.6513 44.6554 73.8253C44.7673 73.9993 44.8439 74.1937 44.8808 74.3973C44.9176 74.6009 44.914 74.8098 44.8701 75.012C44.8262 75.2142 44.7429 75.4058 44.625 75.5759C44.5071 75.7459 44.3568 75.891 44.1828 76.003C44.0088 76.1149 43.8144 76.1915 43.6108 76.2284C43.4072 76.2652 43.1983 76.2616 42.9961 76.2177C42.7939 76.1738 42.6023 76.0905 42.4322 75.9726C40.4011 74.5696 37.9221 73.969 35.4741 74.2869C33.026 74.6048 30.7826 75.8185 29.1771 77.6937C27.5716 79.5689 26.718 81.9726 26.7811 84.4403C26.8441 86.9081 27.8194 89.265 29.5186 91.0557C31.2178 92.8465 33.5203 93.9441 35.9814 94.1365C38.4424 94.3289 40.8875 93.6025 42.8444 92.0975C44.8012 90.5926 46.1309 88.416 46.5767 85.988C47.0226 83.56 46.5528 81.0529 45.2583 78.951C45.0386 78.5955 44.9691 78.1673 45.0651 77.7606C45.1612 77.3539 45.4148 77.002 45.7703 76.7823C46.1258 76.5626 46.5539 76.4931 46.9607 76.5891C47.3674 76.6851 47.7193 76.9388 47.939 77.2942C49.1653 79.2832 49.8385 81.5635 49.889 83.8996C49.9395 86.2357 49.3655 88.543 48.2262 90.5831C47.087 92.6232 45.4238 94.3223 43.4084 95.5047C41.393 96.6872 39.0985 97.3103 36.7619 97.3096ZM36.7619 91.007C35.4115 91.007 34.0914 90.6066 32.9686 89.8564C31.8457 89.1061 30.9706 88.0398 30.4538 86.7922C29.9371 85.5446 29.8019 84.1718 30.0653 82.8473C30.3288 81.5229 30.979 80.3063 31.9339 79.3514C32.8888 78.3965 34.1054 77.7462 35.4298 77.4828C36.7543 77.2193 38.1271 77.3545 39.3747 77.8713C40.6223 78.3881 41.6887 79.2632 42.4389 80.386C43.1892 81.5089 43.5896 82.8289 43.5896 84.1793C43.5875 85.9895 42.8675 87.725 41.5875 89.005C40.3075 90.285 38.5721 91.005 36.7619 91.007ZM36.7619 80.5029C36.0347 80.5029 35.3239 80.7185 34.7193 81.1224C34.1147 81.5264 33.6435 82.1006 33.3652 82.7724C33.087 83.4442 33.0142 84.1834 33.156 84.8966C33.2979 85.6097 33.648 86.2648 34.1622 86.779C34.6764 87.2931 35.3314 87.6433 36.0446 87.7852C36.7578 87.927 37.497 87.8542 38.1688 87.5759C38.8406 87.2977 39.4148 86.8264 39.8187 86.2219C40.2227 85.6173 40.4383 84.9065 40.4383 84.1793C40.4372 83.2046 40.0495 82.2701 39.3603 81.5809C38.6711 80.8917 37.7366 80.504 36.7619 80.5029Z" fill="#0058E6"/>
<path d="M103.672 84.3896C103.255 84.3896 102.854 84.5556 102.558 84.851C102.263 85.1465 102.097 85.5473 102.097 85.9652V93.8782C102.096 94.5744 101.819 95.2419 101.327 95.7342C100.835 96.2266 100.167 96.5035 99.4708 96.5043H58.3096C58.1681 96.1767 57.9803 95.8712 57.7518 95.5971L55.4253 92.8057C55.658 92.3047 55.8699 91.7953 56.061 91.2774L59.6774 90.9486C60.5926 90.8694 61.4446 90.4489 62.064 89.7706C62.6835 89.0923 63.0251 88.2058 63.0211 87.2872V81.0715C63.0251 80.1529 62.6835 79.2665 62.0641 78.5882C61.4447 77.9099 60.5928 77.4894 59.6777 77.4102L56.061 77.0814C55.8703 76.5646 55.6584 76.0551 55.4253 75.553L57.7518 72.7612C58.343 72.0582 58.648 71.1585 58.6064 70.2409C58.5648 69.3233 58.1796 68.4549 57.5272 67.8083L53.132 63.4131C52.4854 62.7606 51.617 62.3752 50.6993 62.3336C49.7816 62.292 48.8818 62.5971 48.1787 63.1883L45.3871 65.515C44.8858 65.2822 44.3764 65.0702 43.8587 64.8791L43.5299 61.2627C43.4508 60.3475 43.0303 59.4955 42.352 58.8761C41.6737 58.2566 40.7872 57.9149 39.8686 57.919H33.6526C32.734 57.9149 31.8475 58.2565 31.1693 58.8759C30.491 59.4954 30.0705 60.3473 29.9915 61.2625L29.6625 64.8791C29.1459 65.0698 28.6365 65.2818 28.1341 65.515L25.3425 63.1883C24.6394 62.5972 23.7396 62.2921 22.8219 62.3338C21.9043 62.3754 21.0358 62.7607 20.3891 63.4131L15.994 67.8083C15.3416 68.4549 14.9563 69.3234 14.9147 70.241C14.8731 71.1586 15.1782 72.0583 15.7694 72.7614L18.0958 75.553C17.8634 76.0543 17.6515 76.5637 17.4601 77.0814L13.8435 77.4102C12.9284 77.4894 12.0765 77.9099 11.4571 78.5882C10.8377 79.2665 10.496 80.1529 10.5 81.0715V87.2872C10.496 88.2058 10.8376 89.0924 11.457 89.7707C12.0764 90.449 12.9283 90.8696 13.8435 90.9488L17.4601 91.2776C17.6509 91.7944 17.8628 92.3038 18.0958 92.8059L15.7694 95.5975C15.1782 96.3007 14.8732 97.2004 14.9148 98.118C14.9564 99.0357 15.3416 99.9041 15.994 100.551L20.3891 104.946C21.0359 105.598 21.9043 105.983 22.8219 106.025C23.7396 106.067 24.6393 105.762 25.3425 105.171L28.1341 102.844C28.6354 103.077 29.1448 103.289 29.6625 103.48L29.9912 107.096C30.0703 108.011 30.4908 108.863 31.1691 109.483C31.8474 110.102 32.734 110.444 33.6526 110.44H39.8686C40.7872 110.444 41.6737 110.103 42.352 109.483C43.0303 108.864 43.4507 108.012 43.5297 107.096L43.8587 103.48C44.3754 103.289 44.8848 103.077 45.3871 102.844L48.1789 105.171C48.8819 105.762 49.7817 106.067 50.6994 106.025C51.617 105.984 52.4854 105.598 53.132 104.946L57.5272 100.551C57.7904 100.287 58.0124 99.9855 58.1856 99.6557H99.4708C101.002 99.6539 102.471 99.0447 103.554 97.9616C104.637 96.8786 105.246 95.4101 105.248 93.8784V85.9652C105.248 85.5473 105.082 85.1465 104.787 84.851C104.491 84.5556 104.09 84.3896 103.672 84.3896ZM55.2989 98.3223L50.9035 102.718C50.8111 102.811 50.6871 102.866 50.556 102.872C50.425 102.878 50.2965 102.834 50.1961 102.75L46.6157 99.7664C46.3755 99.5663 46.0812 99.4422 45.7703 99.4098C45.4594 99.3774 45.1459 99.4382 44.8696 99.5845C43.9251 100.085 42.9361 100.496 41.9154 100.814C41.6175 100.906 41.3537 101.085 41.1574 101.327C40.9612 101.57 40.8414 101.865 40.8131 102.176L40.3913 106.812C40.3799 106.942 40.3198 107.064 40.223 107.152C40.1262 107.241 39.9997 107.289 39.8686 107.289H33.6526C33.5214 107.289 33.3947 107.24 33.2978 107.152C33.201 107.063 33.1409 106.942 33.1297 106.811L32.7081 102.175C32.6798 101.865 32.56 101.569 32.3637 101.327C32.1675 101.084 31.9037 100.906 31.6057 100.813C30.5851 100.496 29.5961 100.084 28.6515 99.5839C28.3753 99.4376 28.0618 99.3768 27.7509 99.4092C27.4399 99.4416 27.1457 99.5657 26.9055 99.7658L23.3253 102.749C23.2249 102.834 23.0963 102.877 22.9653 102.871C22.8342 102.865 22.7101 102.81 22.6177 102.717L18.2225 98.3225C18.1293 98.2302 18.0742 98.1062 18.0682 97.9751C18.0622 97.844 18.1057 97.7154 18.1902 97.615L21.1734 94.0345C21.3735 93.7943 21.4977 93.5 21.5301 93.1891C21.5625 92.8781 21.5016 92.5646 21.3553 92.2883C20.8549 91.3438 20.4434 90.3549 20.1261 89.3343C20.0337 89.0364 19.8549 88.7726 19.6125 88.5764C19.37 88.3801 19.0748 88.2603 18.7641 88.232L14.128 87.8104C13.9974 87.7988 13.8759 87.7386 13.7876 87.6417C13.6994 87.5449 13.6507 87.4183 13.6513 87.2872V81.0715C13.6507 80.9403 13.6995 80.8136 13.788 80.7167C13.8766 80.6199 13.9983 80.5598 14.129 80.5486L18.765 80.127C19.0756 80.0987 19.3709 79.9788 19.6133 79.7826C19.8558 79.5863 20.0345 79.3226 20.1269 79.0246C20.4443 78.0039 20.8558 77.0148 21.3561 76.0702C21.5024 75.794 21.5633 75.4805 21.5309 75.1695C21.4985 74.8586 21.3743 74.5644 21.1742 74.3242L18.191 70.7438C18.1066 70.6433 18.063 70.5148 18.069 70.3837C18.075 70.2526 18.1301 70.1285 18.2234 70.0362L22.6177 65.6412C22.7101 65.5481 22.8341 65.4932 22.9652 65.4873C23.0962 65.4813 23.2247 65.5249 23.3251 65.6093L26.9055 68.5925C27.1457 68.7926 27.4399 68.9168 27.7508 68.9493C28.0617 68.9817 28.3753 68.9209 28.6515 68.7746C29.5961 68.2743 30.585 67.8629 31.6057 67.5457C31.9037 67.4532 32.1675 67.2744 32.3637 67.0319C32.56 66.7894 32.6798 66.4941 32.7081 66.1835L33.1299 61.5473C33.1412 61.4167 33.2013 61.2952 33.2981 61.2068C33.395 61.1184 33.5215 61.0696 33.6526 61.0702H39.8686C39.9998 61.0697 40.1264 61.1185 40.2233 61.207C40.3202 61.2955 40.3802 61.4172 40.3915 61.548L40.8131 66.1839C40.8414 66.4946 40.9612 66.7899 41.1574 67.0324C41.3537 67.2749 41.6175 67.4537 41.9154 67.5461C42.9361 67.8633 43.9251 68.2747 44.8696 68.7751C45.1459 68.9213 45.4594 68.9821 45.7704 68.9497C46.0813 68.9172 46.3755 68.7931 46.6157 68.5929L50.1961 65.6097C50.2965 65.5252 50.425 65.4816 50.556 65.4875C50.6871 65.4934 50.8111 65.5485 50.9035 65.6417L55.2986 70.0368C55.3919 70.1292 55.447 70.2532 55.453 70.3843C55.459 70.5154 55.4155 70.6439 55.331 70.7444L52.3478 74.3249C52.1477 74.565 52.0236 74.8593 51.9912 75.1702C51.9588 75.4811 52.0196 75.7946 52.1659 76.0709C52.6663 77.0154 53.0778 78.0044 53.3951 79.0251C53.4875 79.323 53.6663 79.5868 53.9087 79.783C54.1512 79.9792 54.4464 80.0991 54.7571 80.1274L59.393 80.549C59.5235 80.5604 59.645 80.6205 59.7333 80.7173C59.8216 80.814 59.8704 80.9405 59.8699 81.0715V87.2872C59.8705 87.4185 59.8217 87.5452 59.7332 87.6421C59.6446 87.739 59.5229 87.7991 59.3921 87.8104L54.7562 88.232C54.4456 88.2603 54.1503 88.3801 53.9079 88.5764C53.6654 88.7726 53.4866 89.0364 53.3942 89.3343C53.0769 90.3549 52.6654 91.3438 52.165 92.2883C52.0187 92.5646 51.9578 92.8781 51.9902 93.1891C52.0226 93.5 52.1468 93.7943 52.347 94.0345L55.3302 97.6148C55.4147 97.7151 55.4584 97.8436 55.4526 97.9748C55.4468 98.1059 55.392 98.23 55.2989 98.3225V98.3223Z" fill="black"/>
<path d="M68.5756 45.9192V48.7553H63.8487C63.1525 48.7561 62.485 49.033 61.9927 49.5253C61.5004 50.0176 61.2234 50.6851 61.2227 51.3814V60.2049C61.2235 60.9011 61.5004 61.5686 61.9927 62.0609C62.485 62.5532 63.1525 62.8301 63.8487 62.8309H91.1597C91.8559 62.8302 92.5234 62.5532 93.0157 62.0609C93.508 61.5686 93.785 60.9011 93.7857 60.2049V34.7847C93.785 34.0885 93.508 33.421 93.0157 32.9287C92.5234 32.4364 91.8559 32.1595 91.1597 32.1587H85.9076C85.2113 32.1595 84.5438 32.4364 84.0515 32.9287C83.5592 33.421 83.2823 34.0885 83.2815 34.7847V37.6209H78.5546C77.8584 37.6217 77.1909 37.8986 76.6986 38.3909C76.2063 38.8832 75.9293 39.5507 75.9286 40.2469V43.2931H71.2017C70.5054 43.2939 69.8379 43.5708 69.3456 44.0632C68.8533 44.5555 68.5764 45.223 68.5756 45.9192ZM68.5756 59.6797H64.3739V51.9066H68.5756V59.6797ZM86.4328 39.1965V35.31H90.6345V59.6797H86.4328V39.1965ZM79.0798 44.8688V40.7721H83.2815V59.6797H79.0798V44.8688ZM71.7269 50.331V46.4444H75.9286V59.6797H71.7269V50.331Z" fill="#0058E6"/>
<path d="M93.1108 23.8158C93.981 23.8158 94.6864 23.1104 94.6864 22.2402C94.6864 21.37 93.981 20.6646 93.1108 20.6646C92.2406 20.6646 91.5352 21.37 91.5352 22.2402C91.5352 23.1104 92.2406 23.8158 93.1108 23.8158Z" fill="black"/>
<path d="M76.5288 23.8158C77.399 23.8158 78.1044 23.1104 78.1044 22.2402C78.1044 21.37 77.399 20.6646 76.5288 20.6646C75.6586 20.6646 74.9531 21.37 74.9531 22.2402C74.9531 23.1104 75.6586 23.8158 76.5288 23.8158Z" fill="black"/>
<path d="M59.9272 23.8158C60.7974 23.8158 61.5028 23.1104 61.5028 22.2402C61.5028 21.37 60.7974 20.6646 59.9272 20.6646C59.057 20.6646 58.3516 21.37 58.3516 22.2402C58.3516 23.1104 59.057 23.8158 59.9272 23.8158Z" fill="black"/>
<path d="M43.3256 23.8158C44.1958 23.8158 44.9013 23.1104 44.9013 22.2402C44.9013 21.37 44.1958 20.6646 43.3256 20.6646C42.4554 20.6646 41.75 21.37 41.75 22.2402C41.75 23.1104 42.4554 23.8158 43.3256 23.8158Z" fill="black"/>
<path d="M30.9883 46.0842C30.9883 46.5021 31.1543 46.9028 31.4498 47.1983C31.7453 47.4938 32.146 47.6598 32.5639 47.6598H55.6732C56.0911 47.6598 56.4919 47.4938 56.7873 47.1983C57.0828 46.9028 57.2488 46.5021 57.2488 46.0842C57.2488 45.6663 57.0828 45.2655 56.7873 44.97C56.4919 44.6745 56.0911 44.5085 55.6732 44.5085H32.5639C32.146 44.5085 31.7453 44.6745 31.4498 44.97C31.1543 45.2655 30.9883 45.6663 30.9883 46.0842Z" fill="black"/>
<path d="M41.1186 51.6521C40.7007 51.6521 40.3 51.8181 40.0045 52.1136C39.709 52.4091 39.543 52.8098 39.543 53.2277C39.543 53.6456 39.709 54.0464 40.0045 54.3419C40.3 54.6374 40.7007 54.8034 41.1186 54.8034H49.34C49.7579 54.8034 50.1587 54.6374 50.4542 54.3419C50.7497 54.0464 50.9157 53.6456 50.9157 53.2277C50.9157 52.8098 50.7497 52.4091 50.4542 52.1136C50.1587 51.8181 49.7579 51.6521 49.34 51.6521H41.1186Z" fill="black"/>
<path d="M32.5639 54.8034H36.2404C36.6583 54.8034 37.059 54.6374 37.3545 54.3419C37.65 54.0464 37.816 53.6456 37.816 53.2277C37.816 52.8098 37.65 52.4091 37.3545 52.1136C37.059 51.8181 36.6583 51.6521 36.2404 51.6521H32.5639C32.146 51.6521 31.7453 51.8181 31.4498 52.1136C31.1543 52.4091 30.9883 52.8098 30.9883 53.2277C30.9883 53.6456 31.1543 54.0464 31.4498 54.3419C31.7453 54.6374 32.146 54.8034 32.5639 54.8034Z" fill="black"/>
<path d="M36.8672 38.9406C36.8672 39.3585 37.0332 39.7593 37.3287 40.0548C37.6242 40.3502 38.0249 40.5163 38.4428 40.5163H55.6697C56.0876 40.5163 56.4884 40.3502 56.7839 40.0548C57.0794 39.7593 57.2454 39.3585 57.2454 38.9406C57.2454 38.5227 57.0794 38.122 56.7839 37.8265C56.4884 37.531 56.0876 37.365 55.6697 37.365H38.4428C38.0249 37.365 37.6242 37.531 37.3287 37.8265C37.0332 38.122 36.8672 38.5227 36.8672 38.9406Z" fill="black"/>
<path d="M34.1459 40.5175C35.0161 40.5175 35.7216 39.812 35.7216 38.9418C35.7216 38.0716 35.0161 37.3662 34.1459 37.3662C33.2757 37.3662 32.5703 38.0716 32.5703 38.9418C32.5703 39.812 33.2757 40.5175 34.1459 40.5175Z" fill="black"/>
<path d="M54.1069 54.8034C54.9771 54.8034 55.6825 54.0979 55.6825 53.2277C55.6825 52.3575 54.9771 51.6521 54.1069 51.6521C53.2367 51.6521 52.5312 52.3575 52.5312 53.2277C52.5312 54.0979 53.2367 54.8034 54.1069 54.8034Z" fill="black"/>
<path d="M91.6824 79.6621C91.6824 79.2442 91.5164 78.8434 91.2209 78.5479C90.9254 78.2524 90.5247 78.0864 90.1068 78.0864H66.9975C66.5796 78.0864 66.1789 78.2524 65.8834 78.5479C65.5879 78.8434 65.4219 79.2442 65.4219 79.6621C65.4219 80.0799 65.5879 80.4807 65.8834 80.7762C66.1789 81.0717 66.5796 81.2377 66.9975 81.2377H90.1068C90.5247 81.2377 90.9254 81.0717 91.2209 80.7762C91.5164 80.4807 91.6824 80.0799 91.6824 79.6621Z" fill="black"/>
<path d="M75.5522 85.23C75.1343 85.23 74.7335 85.396 74.4381 85.6915C74.1426 85.987 73.9766 86.3877 73.9766 86.8056C73.9766 87.2235 74.1426 87.6243 74.4381 87.9198C74.7335 88.2152 75.1343 88.3812 75.5522 88.3812H83.7734C84.1913 88.3812 84.5921 88.2152 84.8876 87.9198C85.1831 87.6243 85.3491 87.2235 85.3491 86.8056C85.3491 86.3877 85.1831 85.987 84.8876 85.6915C84.5921 85.396 84.1913 85.23 83.7734 85.23H75.5522Z" fill="black"/>
<path d="M66.9975 85.23C66.5796 85.23 66.1789 85.396 65.8834 85.6915C65.5879 85.987 65.4219 86.3877 65.4219 86.8056C65.4219 87.2235 65.5879 87.6243 65.8834 87.9198C66.1789 88.2152 66.5796 88.3812 66.9975 88.3812H70.674C71.0919 88.3812 71.4926 88.2152 71.7881 87.9198C72.0836 87.6243 72.2496 87.2235 72.2496 86.8056C72.2496 86.3877 72.0836 85.987 71.7881 85.6915C71.4926 85.396 71.0919 85.23 70.674 85.23H66.9975Z" fill="black"/>
<path d="M90.1033 70.9441H72.8764C72.4585 70.9441 72.0578 71.1101 71.7623 71.4056C71.4668 71.7011 71.3008 72.1018 71.3008 72.5197C71.3008 72.9376 71.4668 73.3384 71.7623 73.6339C72.0578 73.9294 72.4585 74.0954 72.8764 74.0954H90.1033C90.5212 74.0954 90.922 73.9294 91.2175 73.6339C91.513 73.3384 91.679 72.9376 91.679 72.5197C91.679 72.1018 91.513 71.7011 91.2175 71.4056C90.922 71.1101 90.5212 70.9441 90.1033 70.9441Z" fill="black"/>
<path d="M68.56 74.0954C68.8716 74.0954 69.1763 74.0029 69.4354 73.8298C69.6945 73.6567 69.8964 73.4106 70.0157 73.1227C70.135 72.8348 70.1662 72.518 70.1054 72.2123C70.0446 71.9067 69.8945 71.6259 69.6741 71.4056C69.4538 71.1852 69.173 71.0352 68.8674 70.9744C68.5618 70.9136 68.245 70.9448 67.957 71.064C67.6691 71.1833 67.423 71.3852 67.2499 71.6444C67.0768 71.9035 66.9844 72.2081 66.9844 72.5197C66.9844 72.9376 67.1504 73.3384 67.4459 73.6339C67.7414 73.9294 68.1421 74.0954 68.56 74.0954Z" fill="black"/>
<path d="M86.9453 86.8056C86.9453 87.1172 87.0377 87.4219 87.2109 87.681C87.384 87.9401 87.6301 88.142 87.918 88.2613C88.2059 88.3806 88.5227 88.4118 88.8283 88.351C89.134 88.2902 89.4147 88.1401 89.6351 87.9198C89.8554 87.6994 90.0055 87.4186 90.0663 87.113C90.1271 86.8074 90.0959 86.4906 89.9766 86.2026C89.8574 85.9147 89.6554 85.6687 89.3963 85.4955C89.1372 85.3224 88.8326 85.23 88.5209 85.23C88.1031 85.23 87.7023 85.396 87.4068 85.6915C87.1113 85.987 86.9453 86.3877 86.9453 86.8056Z" fill="black"/>
<path d="M103.669 10.4399C102.258 10.4417 100.882 10.8801 99.7293 11.6952C98.5769 12.5102 97.705 13.6618 97.2331 14.992H37.5628C37.1451 14.9924 36.7446 15.1587 36.4493 15.4542L21.7434 30.1601C21.4479 30.4553 21.2816 30.8558 21.2812 31.2735V59.2948C21.2812 59.7126 21.4473 60.1134 21.7427 60.4089C22.0382 60.7044 22.439 60.8704 22.8569 60.8704C23.2748 60.8704 23.6755 60.7044 23.971 60.4089C24.2665 60.1134 24.4325 59.7126 24.4325 59.2948V32.8492H33.3611C34.8928 32.8475 36.3613 32.2382 37.4444 31.1551C38.5275 30.0721 39.1367 28.6036 39.1384 27.0719V18.1433H96.8417V71.1092C96.8417 71.339 96.8919 71.5659 96.9888 71.7742L101.289 81.0126C101.5 81.4661 101.836 81.8498 102.258 82.1187C102.68 82.3876 103.169 82.5305 103.67 82.5305C104.17 82.5305 104.66 82.3876 105.081 82.1187C105.503 81.8498 105.839 81.4661 106.05 81.0126L110.35 71.7742C110.447 71.5659 110.497 71.339 110.497 71.1092V17.2677C110.495 15.4575 109.775 13.722 108.495 12.4419C107.215 11.1619 105.48 10.4419 103.669 10.4399ZM33.3611 29.6979H26.6607L35.9872 20.3717V27.0719C35.9864 27.7681 35.7095 28.4356 35.2171 28.9279C34.7248 29.4202 34.0573 29.6971 33.3611 29.6979ZM107.346 70.7605L103.669 78.6597L99.993 70.7605V29.3475H107.346V70.7605ZM107.346 26.1962H99.993V23.045H107.346V26.1962ZM107.346 19.8937H99.993V17.2677C99.993 16.2926 100.38 15.3575 101.07 14.668C101.759 13.9785 102.694 13.5912 103.669 13.5912C104.645 13.5912 105.58 13.9785 106.269 14.668C106.959 15.3575 107.346 16.2926 107.346 17.2677V19.8937Z" fill="black"/>
</svg>
