<svg width="120" height="121" viewBox="0 0 120 121" fill="none" xmlns="http://www.w3.org/2000/svg">
<path d="M99.9998 65.4398V62.1065C100.92 62.1065 101.666 61.3604 101.666 60.4398V50.4399C101.666 49.5193 100.92 48.7732 99.9998 48.7732H90.9998L90.6769 47.5212C89.9399 44.658 88.7954 41.9151 87.2765 39.378L86.6099 38.2628L92.9998 31.8618C93.6431 31.2172 93.6431 30.173 92.9998 29.5284L85.9217 22.4399C85.2681 21.8169 84.2414 21.8169 83.5878 22.4399L77.1861 28.8416L76.0715 28.1749C73.5305 26.6554 70.785 25.5109 67.9179 24.7732L66.6666 24.4477V15.4399C66.6666 14.5194 65.9205 13.7733 64.9999 13.7733H54.9999C54.0793 13.7733 53.3333 14.5194 53.3333 15.4399V24.4399L52.0813 24.7635C49.218 25.4998 46.4752 26.6443 43.9368 28.1613L42.8216 28.8286L36.4218 22.4399C35.7675 21.8117 34.7343 21.8117 34.08 22.4399L27 29.518C26.6888 29.8286 26.5136 30.2504 26.5136 30.6899C26.5136 31.13 26.6888 31.5512 27 31.8618L33.4017 38.2628L32.735 39.378C31.2168 41.9151 30.0716 44.658 29.3353 47.5212L29.0084 48.7732H20C19.0794 48.7732 18.3333 49.5193 18.3333 50.4399V60.4398C18.3333 61.3604 19.0794 62.1065 20 62.1065V65.4398C17.2389 65.4398 15 63.2009 15 60.4398V50.4399C15 47.6788 17.2389 45.4399 20 45.4399H26.4485C27.136 43.1352 28.0657 40.9099 29.222 38.8019L24.6387 34.2185C23.7012 33.283 23.1745 32.0135 23.1745 30.6899C23.1745 29.3663 23.7012 28.0968 24.6387 27.1619L31.722 20.0786C33.6953 18.1899 36.8066 18.1899 38.7799 20.0786L43.3619 24.66C45.47 23.5044 47.6959 22.5766 49.9999 21.8898V15.4399C49.9999 12.6789 52.2389 10.4399 54.9999 10.4399H64.9999C67.761 10.4399 69.9999 12.6789 69.9999 15.4399V21.8898C72.3046 22.5766 74.5292 23.5063 76.6379 24.6619L81.2212 20.0786C83.1952 18.1899 86.3058 18.1899 88.2798 20.0786L95.3618 27.16C96.2987 28.0955 96.8247 29.3637 96.8247 30.6879C96.8247 32.0122 96.2987 33.2817 95.3618 34.2166L90.7785 38.7999C91.9341 40.9093 92.8631 43.1352 93.5513 45.4399H99.9998C102.761 45.4399 105 47.6788 105 50.4399V60.4398C105 63.2009 102.761 65.4398 99.9998 65.4398Z" fill="#0058E6"/>
<path d="M83.3267 55.4395H79.9934C79.9934 44.3939 71.039 35.4395 59.9934 35.4395C48.9479 35.4395 39.9935 44.3939 39.9935 55.4395H36.6602C36.6602 42.5528 47.1067 32.1062 59.9934 32.1062C72.8795 32.1062 83.3267 42.5528 83.3267 55.4395Z" fill="#0058E6"/>
<path d="M60 68.7732C54.4772 68.7732 50 64.2953 50 58.7732C50 53.2504 54.4772 48.7732 60 48.7732C65.5234 48.7732 70 53.2504 70 58.7732C69.9941 64.294 65.5208 68.7673 60 68.7732ZM60 52.1065C56.3183 52.1065 53.3333 55.0915 53.3333 58.7732C53.3333 62.4548 56.3183 65.4398 60 65.4398C63.6816 65.4398 66.6666 62.4548 66.6666 58.7732C66.6666 55.0915 63.6816 52.1065 60 52.1065Z" fill="black"/>
<path d="M88.3398 75.4399C82.817 75.4399 78.3398 70.962 78.3398 65.4399C78.3398 59.9171 82.817 55.4399 88.3398 55.4399C93.8626 55.4399 98.3398 59.9171 98.3398 65.4399C98.3339 70.9607 93.8606 75.434 88.3398 75.4399ZM88.3398 58.7733C84.6582 58.7733 81.6732 61.7583 81.6732 65.4399C81.6732 69.1216 84.6582 72.1066 88.3398 72.1066C92.0215 72.1066 95.0065 69.1216 95.0065 65.4399C95.0065 61.7583 92.0215 58.7733 88.3398 58.7733Z" fill="black"/>
<path d="M31.6601 75.4399C26.1374 75.4399 21.6602 70.962 21.6602 65.4399C21.6602 59.9171 26.1374 55.4399 31.6601 55.4399C37.1836 55.4399 41.6601 59.9171 41.6601 65.4399C41.6543 70.9607 37.181 75.434 31.6601 75.4399ZM31.6601 58.7733C27.9785 58.7733 24.9935 61.7583 24.9935 65.4399C24.9935 69.1216 27.9785 72.1066 31.6601 72.1066C35.3418 72.1066 38.3268 69.1216 38.3268 65.4399C38.3268 61.7583 35.3418 58.7733 31.6601 58.7733Z" fill="black"/>
<path d="M103.443 79.7158C100.959 78.0088 98.0141 77.098 94.9998 77.1064H81.6665C80.856 77.1136 80.0467 77.1872 79.2479 77.3258C78.1815 75.6579 76.7941 74.2191 75.1665 73.0908C74.9224 72.9066 74.6659 72.7393 74.3983 72.5915C72.0669 71.1794 69.3918 70.4359 66.6665 70.4398H53.3332C48.2362 70.4216 43.4869 73.0225 40.7564 77.3258C39.9557 77.1872 39.1451 77.1136 38.3333 77.1064H25C21.9883 77.098 19.0443 78.0075 16.5618 79.7126C12.459 82.5042 10.0026 87.1442 10 92.1064V98.7731C10.0059 103.324 12.6536 107.457 16.7871 109.363C18.3131 110.082 19.9804 110.449 21.6666 110.44H38.3333V107.106H23.3333V88.7731H20V106.939C19.3724 106.813 18.763 106.61 18.1849 106.336C15.2324 104.975 13.3398 102.024 13.3333 98.7731V92.1064C13.3372 88.2444 15.2506 84.6344 18.4433 82.4626C20.3724 81.1383 22.6595 80.4333 25 80.4398H38.3333C38.6269 80.4398 38.9101 80.471 39.1966 80.4906C38.6328 82.0804 38.3404 83.7536 38.3333 85.4398V102.106C38.3391 106.707 42.067 110.434 46.6666 110.44H51.6666V83.7731H48.3333V107.106H46.6666C43.9055 107.106 41.6666 104.867 41.6666 102.106V85.4398C41.6666 78.9958 46.8905 73.7731 53.3332 73.7731H66.6665C68.8111 73.7744 70.9126 74.3682 72.7414 75.488C72.9107 75.5804 73.0734 75.6846 73.2277 75.7992C74.7896 76.8688 76.0715 78.2978 76.9647 79.9658C77.8625 81.6507 78.3332 83.5303 78.3332 85.4398V102.106C78.3332 104.867 76.0943 107.106 73.3332 107.106H71.6665V83.7731H68.3332V110.44H73.3332C77.9334 110.434 81.6607 106.707 81.6665 102.106V85.4398C81.6587 83.7536 81.3677 82.081 80.8045 80.4906C81.0916 80.471 81.3748 80.4398 81.6665 80.4398H94.9998C97.3416 80.4333 99.6307 81.1403 101.561 82.4658C104.751 84.639 106.662 88.2464 106.666 92.1064V98.7731C106.661 102.035 104.754 104.995 101.787 106.349C101.217 106.619 100.617 106.817 99.9998 106.939V88.7731H96.6665V107.106H81.6665V110.44H98.3331C100.01 110.45 101.667 110.087 103.185 109.376C107.332 107.476 109.993 103.335 110 98.7731V92.1064C109.997 87.1461 107.543 82.5081 103.443 79.7158Z" fill="black"/>
<path d="M53.3398 107.106H66.6731V110.44H53.3398V107.106Z" fill="black"/>
</svg>
