<svg width="121" height="121" viewBox="0 0 121 121" fill="none" xmlns="http://www.w3.org/2000/svg">
<path d="M104.572 15.4399H85.7279C84.9189 15.4399 84.263 16.0958 84.263 16.9048C84.263 17.7138 84.9189 18.3696 85.7279 18.3696H104.572C106.318 18.3696 107.738 19.7901 107.738 21.5362V77.1953H13.5977V21.5362C13.5977 19.7901 15.0182 18.3696 16.7643 18.3696H78.8917C79.7007 18.3696 80.3566 17.7138 80.3566 16.9048C80.3566 16.0958 79.7007 15.4399 78.8917 15.4399H16.7643C13.4027 15.4399 10.668 18.1747 10.668 21.5362V81.8412C10.668 85.2028 13.4027 87.9375 16.7643 87.9375H30.7879C31.5969 87.9375 32.2528 87.2817 32.2528 86.4727C32.2528 85.6637 31.5969 85.0079 30.7879 85.0079H16.7643C15.0182 85.0079 13.5977 83.5873 13.5977 81.8412V80.125H107.738V81.8412C107.738 83.5873 106.318 85.0079 104.572 85.0079H37.5594C36.7504 85.0079 36.0946 85.6637 36.0946 86.4727C36.0946 87.2817 36.7504 87.9375 37.5594 87.9375H46.779L45.3327 96.296H42.6596C40.2364 96.296 38.2651 98.2673 38.2651 100.69C38.2651 103.114 40.2364 105.085 42.6596 105.085H78.6765C81.0997 105.085 83.071 103.114 83.071 100.69C83.071 98.2673 81.0997 96.296 78.6765 96.296H76.0034L74.5572 87.9375H104.572C107.933 87.9375 110.668 85.2028 110.668 81.8412V21.5362C110.668 18.1747 107.933 15.4399 104.572 15.4399ZM73.0302 96.296H69.0423C68.2333 96.296 67.5775 96.9518 67.5775 97.7608C67.5775 98.5698 68.2333 99.2257 69.0423 99.2257H78.6765C79.4843 99.2257 80.1413 99.8827 80.1413 100.69C80.1413 101.498 79.4843 102.155 78.6765 102.155H42.6596C41.8518 102.155 41.1948 101.498 41.1948 100.69C41.1948 99.8827 41.8518 99.2257 42.6596 99.2257H62.204C63.013 99.2257 63.6689 98.5698 63.6689 97.7608C63.6689 96.9518 63.013 96.296 62.204 96.296H48.3059L49.7522 87.9375H71.5841L73.0302 96.296Z" fill="black"/>
<path d="M89.9178 52.5042C89.3667 52.5042 88.8622 52.8135 88.6122 53.3047L81.6993 66.8917L75.8657 55.4258C75.6157 54.9346 75.1112 54.6252 74.56 54.6252C74.0088 54.6252 73.5043 54.9346 73.2543 55.4258L70.092 61.6413H65.043C64.234 61.6413 63.5781 62.2971 63.5781 63.1061C63.5781 63.9151 64.234 64.571 65.043 64.571H70.9903C71.5414 64.571 72.0459 64.2616 72.2959 63.7704L74.56 59.3206L80.3936 70.7864C80.6436 71.2776 81.1481 71.587 81.6993 71.587C82.2504 71.587 82.7549 71.2776 83.0049 70.7864L89.9178 57.1995L93.261 63.7706C93.511 64.2618 94.0155 64.5712 94.5667 64.5712H100.514C101.323 64.5712 101.979 63.9153 101.979 63.1063C101.979 62.2973 101.323 61.6415 100.514 61.6415H95.4649L91.2235 53.3049C90.9735 52.8135 90.469 52.5042 89.9178 52.5042Z" fill="#0058E6"/>
<path d="M65.043 48.1641H72.6444C73.4533 48.1641 74.1092 47.5083 74.1092 46.6993V31.2786C74.1092 30.4696 73.4533 29.8137 72.6444 29.8137H65.043C64.234 29.8137 63.5781 30.4696 63.5781 31.2786V46.6993C63.5781 47.5083 64.234 48.1641 65.043 48.1641ZM66.5078 32.7434H71.1795V45.2345H66.5078V32.7434Z" fill="black"/>
<path d="M86.6287 34.0044H79.0273C78.2184 34.0044 77.5625 34.6603 77.5625 35.4692V46.6995C77.5625 47.5085 78.2184 48.1644 79.0273 48.1644H86.6287C87.4377 48.1644 88.0936 47.5085 88.0936 46.6995V35.4692C88.0936 34.6603 87.4377 34.0044 86.6287 34.0044ZM85.1639 45.2347H80.4922V36.9341H85.1639V45.2347Z" fill="#0058E6"/>
<path d="M100.515 48.1644C101.324 48.1644 101.98 47.5085 101.98 46.6996V27.4126C101.98 26.6036 101.324 25.9478 100.515 25.9478H92.9141C92.1051 25.9478 91.4492 26.6036 91.4492 27.4126V46.6996C91.4492 47.5085 92.1051 48.1644 92.9141 48.1644H100.515ZM94.3789 28.8774H99.0506V45.2347H94.3789V28.8774Z" fill="black"/>
<path d="M54.0079 42.5188H20.8047C19.9957 42.5188 19.3398 43.1747 19.3398 43.9836C19.3398 44.7926 19.9957 45.4485 20.8047 45.4485H54.0079C54.8169 45.4485 55.4727 44.7926 55.4727 43.9836C55.4727 43.1747 54.8169 42.5188 54.0079 42.5188Z" fill="black"/>
<path d="M20.8047 53.2297H26.7465C27.5555 53.2297 28.2113 52.5739 28.2113 51.7649C28.2113 50.9559 27.5555 50.3 26.7465 50.3H20.8047C19.9957 50.3 19.3398 50.9559 19.3398 51.7649C19.3398 52.5739 19.9957 53.2297 20.8047 53.2297Z" fill="#0058E6"/>
<path d="M54.0104 50.2996H33.4609C32.652 50.2996 31.9961 50.9554 31.9961 51.7644C31.9961 52.5734 32.652 53.2293 33.4609 53.2293H54.0104C54.8194 53.2293 55.4752 52.5734 55.4752 51.7644C55.4752 50.9554 54.8194 50.2996 54.0104 50.2996Z" fill="#0058E6"/>
<path d="M54.0079 25.948H20.8047C19.9957 25.948 19.3398 26.6039 19.3398 27.4128C19.3398 28.2218 19.9957 28.8777 20.8047 28.8777H54.0079C54.8169 28.8777 55.4727 28.2218 55.4727 27.4128C55.4727 26.6039 54.8169 25.948 54.0079 25.948Z" fill="black"/>
<path d="M20.8047 36.6594H41.395C42.204 36.6594 42.8598 36.0036 42.8598 35.1946C42.8598 34.3856 42.204 33.7297 41.395 33.7297H20.8047C19.9957 33.7297 19.3398 34.3856 19.3398 35.1946C19.3398 36.0036 19.9957 36.6594 20.8047 36.6594Z" fill="black"/>
<path d="M54.0104 33.7297H48.1094C47.3004 33.7297 46.6445 34.3856 46.6445 35.1946C46.6445 36.0036 47.3004 36.6594 48.1094 36.6594H54.0104C54.8194 36.6594 55.4752 36.0036 55.4752 35.1946C55.4752 34.3856 54.8194 33.7297 54.0104 33.7297Z" fill="black"/>
<path d="M55.4727 59.4522C55.4727 58.6432 54.8169 57.9873 54.0079 57.9873H20.8047C19.9957 57.9873 19.3398 58.6432 19.3398 59.4522C19.3398 60.2611 19.9957 60.917 20.8047 60.917H54.0079C54.8169 60.917 55.4727 60.2611 55.4727 59.4522Z" fill="black"/>
<path d="M20.8047 65.7275C19.9957 65.7275 19.3398 66.3834 19.3398 67.1924C19.3398 68.0014 19.9957 68.6572 20.8047 68.6572H36.4297C37.2387 68.6572 37.8946 68.0014 37.8946 67.1924C37.8946 66.3834 37.2387 65.7275 36.4297 65.7275H20.8047Z" fill="black"/>
</svg>
