<svg width="120" height="121" viewBox="0 0 120 121" fill="none" xmlns="http://www.w3.org/2000/svg">
<path d="M103.904 15.627H85.0599C84.2509 15.627 83.5951 16.2828 83.5951 17.0918C83.5951 17.9008 84.2509 18.5566 85.0599 18.5566H103.904C105.65 18.5566 107.071 19.9772 107.071 21.7233V77.3824H12.9297V21.7233C12.9297 19.9772 14.3502 18.5566 16.0963 18.5566H78.2238C79.0328 18.5566 79.6886 17.9008 79.6886 17.0918C79.6886 16.2828 79.0328 15.627 78.2238 15.627H16.0963C12.7348 15.627 10 18.3617 10 21.7233V82.0283C10 85.3898 12.7348 88.1246 16.0963 88.1246H30.12C30.9289 88.1246 31.5848 87.4687 31.5848 86.6597C31.5848 85.8507 30.9289 85.1949 30.12 85.1949H16.0963C14.3502 85.1949 12.9297 83.7744 12.9297 82.0283V80.312H107.071V82.0283C107.071 83.7744 105.65 85.1949 103.904 85.1949H36.8915C36.0825 85.1949 35.4266 85.8507 35.4266 86.6597C35.4266 87.4687 36.0825 88.1246 36.8915 88.1246H46.111L44.6647 96.483H41.9917C39.5684 96.483 37.5971 98.4543 37.5971 100.878C37.5971 103.301 39.5684 105.272 41.9917 105.272H78.0085C80.4318 105.272 82.4031 103.301 82.4031 100.878C82.4031 98.4543 80.4318 96.483 78.0085 96.483H75.3355L73.8892 88.1246H103.904C107.265 88.1246 110 85.3898 110 82.0283V21.7233C110 18.3617 107.265 15.627 103.904 15.627ZM72.3622 96.483H68.3743C67.5653 96.483 66.9095 97.1388 66.9095 97.9478C66.9095 98.7568 67.5653 99.4127 68.3743 99.4127H78.0085C78.8163 99.4127 79.4734 100.07 79.4734 100.878C79.4734 101.685 78.8163 102.342 78.0085 102.342H41.9917C41.1839 102.342 40.5268 101.685 40.5268 100.878C40.5268 100.07 41.1839 99.4127 41.9917 99.4127H61.536C62.345 99.4127 63.0009 98.7568 63.0009 97.9478C63.0009 97.1388 62.345 96.483 61.536 96.483H47.638L49.0843 88.1246H70.9161L72.3622 96.483Z" fill="black"/>
<path d="M89.2499 52.6914C88.6987 52.6914 88.1942 53.0008 87.9442 53.492L81.0313 67.0789L75.1977 55.6131C74.9477 55.1219 74.4432 54.8125 73.892 54.8125C73.3408 54.8125 72.8364 55.1219 72.5864 55.6131L69.424 61.8285H64.375C63.566 61.8285 62.9102 62.4844 62.9102 63.2934C62.9102 64.1024 63.566 64.7582 64.375 64.7582H70.3223C70.8735 64.7582 71.3779 64.4489 71.6279 63.9576L73.892 59.5078L79.7256 70.9737C79.9756 71.4649 80.4801 71.7743 81.0313 71.7743C81.5825 71.7743 82.087 71.4649 82.337 70.9737L89.2499 57.3867L92.593 63.9578C92.843 64.449 93.3475 64.7584 93.8987 64.7584H99.846C100.655 64.7584 101.311 64.1026 101.311 63.2936C101.311 62.4846 100.655 61.8287 99.846 61.8287H94.7969L90.5555 53.4922C90.3055 53.0008 89.801 52.6914 89.2499 52.6914Z" fill="#0058E6"/>
<path d="M64.375 48.3514H71.9764C72.7854 48.3514 73.4412 47.6955 73.4412 46.8866V31.4658C73.4412 30.6568 72.7854 30.001 71.9764 30.001H64.375C63.566 30.001 62.9102 30.6568 62.9102 31.4658V46.8866C62.9102 47.6955 63.566 48.3514 64.375 48.3514ZM65.8398 32.9307H70.5115V45.4217H65.8398V32.9307Z" fill="black"/>
<path d="M85.9608 34.1914H78.3594C77.5504 34.1914 76.8945 34.8473 76.8945 35.6563V46.8866C76.8945 47.6955 77.5504 48.3514 78.3594 48.3514H85.9608C86.7697 48.3514 87.4256 47.6955 87.4256 46.8866V35.6563C87.4256 34.8473 86.7697 34.1914 85.9608 34.1914ZM84.4959 45.4217H79.8242V37.1211H84.4959V45.4217Z" fill="#0058E6"/>
<path d="M99.8475 48.3514C100.656 48.3514 101.312 47.6956 101.312 46.8866V27.5996C101.312 26.7906 100.656 26.1348 99.8475 26.1348H92.2461C91.4371 26.1348 90.7812 26.7906 90.7812 27.5996V46.8866C90.7812 47.6956 91.4371 48.3514 92.2461 48.3514H99.8475ZM93.7109 29.0645H98.3826V45.4217H93.7109V29.0645Z" fill="black"/>
<path d="M53.3399 42.7061H20.1367C19.3277 42.7061 18.6719 43.3619 18.6719 44.1709C18.6719 44.9799 19.3277 45.6357 20.1367 45.6357H53.3399C54.1489 45.6357 54.8048 44.9799 54.8048 44.1709C54.8048 43.3619 54.1489 42.7061 53.3399 42.7061Z" fill="black"/>
<path d="M20.1367 53.417H26.0785C26.8875 53.417 27.5434 52.7611 27.5434 51.9522C27.5434 51.1432 26.8875 50.4873 26.0785 50.4873H20.1367C19.3277 50.4873 18.6719 51.1432 18.6719 51.9522C18.6719 52.7611 19.3277 53.417 20.1367 53.417Z" fill="#0058E6"/>
<path d="M53.3424 50.4863H32.793C31.984 50.4863 31.3281 51.1422 31.3281 51.9512C31.3281 52.7602 31.984 53.416 32.793 53.416H53.3424C54.1514 53.416 54.8073 52.7602 54.8073 51.9512C54.8073 51.1422 54.1514 50.4863 53.3424 50.4863Z" fill="#0058E6"/>
<path d="M53.3399 26.1348H20.1367C19.3277 26.1348 18.6719 26.7906 18.6719 27.5996C18.6719 28.4086 19.3277 29.0645 20.1367 29.0645H53.3399C54.1489 29.0645 54.8048 28.4086 54.8048 27.5996C54.8048 26.7906 54.1489 26.1348 53.3399 26.1348Z" fill="black"/>
<path d="M20.1367 36.8467H40.727C41.536 36.8467 42.1918 36.1908 42.1918 35.3818C42.1918 34.5729 41.536 33.917 40.727 33.917H20.1367C19.3277 33.917 18.6719 34.5729 18.6719 35.3818C18.6719 36.1908 19.3277 36.8467 20.1367 36.8467Z" fill="black"/>
<path d="M53.3424 33.917H47.4414C46.6324 33.917 45.9766 34.5729 45.9766 35.3818C45.9766 36.1908 46.6324 36.8467 47.4414 36.8467H53.3424C54.1514 36.8467 54.8072 36.1908 54.8072 35.3818C54.8072 34.5729 54.1514 33.917 53.3424 33.917Z" fill="black"/>
<path d="M54.8048 59.6387C54.8048 58.8297 54.1489 58.1738 53.3399 58.1738H20.1367C19.3277 58.1738 18.6719 58.8297 18.6719 59.6387C18.6719 60.4477 19.3277 61.1035 20.1367 61.1035H53.3399C54.1489 61.1035 54.8048 60.4477 54.8048 59.6387Z" fill="black"/>
<path d="M20.1367 65.9141C19.3277 65.9141 18.6719 66.5699 18.6719 67.3789C18.6719 68.1879 19.3277 68.8438 20.1367 68.8438H35.7618C36.5707 68.8438 37.2266 68.1879 37.2266 67.3789C37.2266 66.5699 36.5707 65.9141 35.7618 65.9141H20.1367Z" fill="black"/>
</svg>
