<svg width="121" height="120" viewBox="0 0 121 120" fill="none" xmlns="http://www.w3.org/2000/svg">
<path d="M105.333 70.6765V49.3235H91.4583C91.0172 48.0364 90.4915 46.7719 89.8895 45.5431L99.703 35.7301L84.6034 20.6305L74.7975 30.4363C73.5825 29.8431 72.3146 29.3201 71.01 28.8746V15H49.657V28.8752C48.3699 29.3174 47.1049 29.8425 45.8766 30.444L36.0636 20.6305L20.964 35.7301L30.7775 45.5431C30.1755 46.7719 29.6498 48.037 29.2087 49.3235H15.3335V70.6765H29.2087C29.6498 71.9636 30.1755 73.2281 30.7775 74.4569L20.964 84.2699L36.0636 99.3695L45.8766 89.556C47.1049 90.158 48.3699 90.6826 49.657 91.1248V105H71.01V91.132C72.2861 90.6925 73.5522 90.1652 74.791 89.5565L84.6034 99.3695L99.703 84.2699L89.8895 74.4569C90.4915 73.2281 91.0172 71.963 91.4583 70.6765H105.333ZM95.9742 84.2699L84.6034 95.6407L75.2908 86.3276L74.4301 86.7814C72.764 87.6603 71.0386 88.3788 69.3016 88.9171L68.3733 89.2044V102.363H52.2937V89.1967C49.4823 88.326 48.4254 87.936 45.3762 86.3276L36.0636 95.6407L24.6933 84.2699L34.0059 74.9573C32.3953 71.9037 32.0074 70.8517 31.1368 68.0398H17.9702V51.9602H31.1362C31.9992 49.1757 32.3903 48.1046 34.0059 45.0427L24.6933 35.7301L36.0636 24.3593L45.3762 33.6724L46.2369 33.2186C47.8799 32.3524 49.6053 31.636 51.3654 31.09L52.2937 30.8027V17.6367H68.3744V30.8027L69.3016 31.09C71.099 31.647 72.8271 32.3606 74.4388 33.2109L75.2991 33.6647L84.6045 24.3593L95.9742 35.7301L86.6617 45.0427C88.0564 47.6854 88.5288 48.7225 89.5308 51.9602H102.697V68.0398H89.5308C89.1501 69.2697 88.5508 71.3758 87.1149 74.0966L86.6611 74.9573L95.9742 84.2699Z" fill="#03111A"/>
<path d="M27.3965 84.0499L33.5455 77.9014L35.4099 79.7652L29.2609 85.9142L27.3965 84.0499Z" fill="#2787AD"/>
<path d="M55.4997 70.0863L58.7835 66.8031L56.9181 64.9387L53.6354 68.2225C49.0991 72.7588 41.7284 72.7588 37.1916 68.2225C34.9949 66.0263 33.7858 63.1067 33.7858 60.0003C33.7858 56.8945 34.9949 53.9749 37.1916 51.7793C41.7251 47.2452 49.1013 47.2452 53.6354 51.7782L68.5581 66.7025C72.2539 70.3978 78.2667 70.3978 81.9614 66.702C85.6654 62.999 85.6671 57.0033 81.9614 53.2992C78.2634 49.5996 72.2588 49.5996 68.5581 53.2987L65.2748 56.5825L67.1397 58.4463L70.4225 55.1636C71.7128 53.8733 73.4305 53.1635 75.2597 53.1635C79.0566 53.1635 82.1009 56.2293 82.1009 60.0003C82.1009 61.8285 81.3896 63.5456 80.0976 64.8376C77.4306 67.5045 73.091 67.5051 70.4236 64.8376L55.4997 49.9143C49.9379 44.3525 40.8885 44.3531 35.3266 49.9143C29.7527 55.4893 29.7522 64.5113 35.3266 70.0869C40.894 75.6536 49.9324 75.6536 55.4997 70.0863Z" fill="#2787AD"/>
<path d="M85.3467 49.9131C79.7849 44.3518 70.7354 44.3518 65.1736 49.9136L61.8903 53.1969L63.7547 55.0613L67.038 51.7775C71.5715 47.2439 78.9488 47.2445 83.4818 51.7775C88.0158 56.311 88.0158 63.6883 83.4818 68.2218C78.9488 72.7553 71.572 72.7553 67.038 68.2218L52.1147 53.298C48.4189 49.6022 42.4066 49.6022 38.7114 53.298C35.0161 56.9938 35.0161 63.0055 38.7114 66.7013C42.4066 70.3971 48.4194 70.3971 52.1147 66.7013L55.398 63.4175L53.5336 61.5536L50.2503 64.8369C47.5834 67.5038 43.2432 67.5038 40.5758 64.8369C37.9083 62.1694 37.9083 57.8298 40.5758 55.1623C43.2432 52.4954 47.5828 52.4954 50.2503 55.1623L65.1736 70.0862C70.7387 75.6507 79.7882 75.6442 85.3467 70.0862C90.908 64.5249 90.908 55.4755 85.3467 49.9131Z" fill="#2787AD"/>
<path d="M44.6095 75.7236L42.7451 77.588C52.4664 87.3087 68.1993 87.3093 77.9217 77.588L76.0562 75.7236C67.366 84.4138 53.3002 84.4149 44.6095 75.7236Z" fill="#03111A"/>
<path d="M77.9216 37.2576L76.0562 35.3932L77.9205 33.5288L79.7855 35.3932L77.9216 37.2576ZM81.0286 34.1501L79.1636 32.2852L81.0286 30.4208L82.8929 32.2863L81.0286 34.1501ZM84.1355 31.0426L82.2711 29.1782L84.7189 26.7305L86.5844 28.5948L84.1355 31.0426Z" fill="#2787AD"/>
<path d="M76.0562 44.2762C69.4139 37.6345 59.6042 36.0447 51.4216 39.6208L50.3658 37.2043C59.4323 33.2432 70.4219 34.9131 77.9217 42.4119L76.0562 44.2762ZM44.6095 44.2762L42.7451 42.4119C43.4005 41.7571 44.097 41.1331 44.8177 40.5568L46.4645 42.6151C45.8207 43.1309 45.1967 43.6901 44.6095 44.2762ZM47.7983 41.628L46.3102 39.451C47.0737 38.9286 47.8757 38.4441 48.6931 38.0113L49.9274 40.3409C49.1979 40.7277 48.4816 41.1611 47.7983 41.628Z" fill="#03111A"/>
</svg>
