<svg width="120" height="120" viewBox="0 0 120 120" fill="none" xmlns="http://www.w3.org/2000/svg">
<path d="M64.4025 56.2106C64.2882 56.3614 65.0129 57.3221 65.1637 57.541C67.6324 61.1114 70.7553 64.5602 73.1072 68.1671C73.9608 69.4756 74.5251 70.3828 73.6909 71.9613C73.3917 72.528 71.6138 74.1794 71.0447 74.5953C69.9016 75.4344 68.6052 75.5755 67.4038 74.7801L57.2811 61.3206C53.3872 63.3393 48.9972 63.3101 45.5532 60.4012C41.0854 56.6265 40.9857 49.5416 45.3806 45.6551C46.2367 44.8987 53.358 40.601 54.1169 40.5378C54.4549 40.511 54.8903 40.7105 55.1214 40.6302C55.6686 40.4405 59.8519 36.768 60.5791 36.0942C62.9797 33.8664 65.5383 31.0597 67.4621 28.4111C68.0312 27.6255 69.9454 24.9185 70.1497 24.1694C70.354 23.4203 69.6073 22.3866 69.5197 21.5086C69.0236 16.4789 75.2426 13.823 78.6841 17.442L84.4313 27.1804C85.2461 27.2509 85.9854 26.7596 86.8805 26.711C91.4554 26.4556 94.5758 31.4683 92.3358 35.4449C91.8275 36.3496 90.9422 36.819 90.4606 37.7019L95.8065 46.9271C97.8738 51.7573 92.6228 56.4149 88.1233 53.5182C87.2477 52.954 86.8853 52.1416 86.1192 51.5166C78.5941 51.429 71.3268 53.4817 64.4025 56.2155V56.2106ZM73.9973 18.3808C72.3508 18.7554 71.5506 21.1292 72.5234 22.5082L88.7168 50.5534C90.4412 53.0561 94.2475 51.5944 93.6321 48.5518L76.9354 19.3707C76.2641 18.4976 75.0578 18.1376 73.9973 18.3808ZM72.0467 26.5334L71.6017 26.7231C67.754 33.1027 62.3254 38.3586 56.4177 42.8216L62.8799 54.0387C65.3607 53.2142 67.7637 52.1805 70.2713 51.4266C75.0237 49.9989 79.8223 49.1403 84.7937 48.9239L72.0467 26.5334ZM88.9843 35.2722C92.3163 32.9981 89.675 28.2238 85.8857 29.4472L88.9843 35.2722ZM60.9293 56.1936L53.7521 43.4661C50.6851 45.7353 46.0908 46.7398 44.9744 50.8891C43.6975 55.6318 47.1512 60.2869 52.1152 60.2261C55.1895 60.1872 58.1543 57.2905 60.9293 56.1912V56.1936ZM62.3424 58.2342L59.6646 59.7616L59.5552 60.2237L69.2011 72.7639C69.6851 72.1121 71.7208 71.1076 71.4314 70.2223L62.3424 58.2342Z" fill="#03111A"/>
<path d="M58.2129 92.8023C56.0288 93.2523 53.7961 93.7168 51.5658 93.8919C48.7396 94.1157 45.9256 93.9065 43.0946 93.819L27.6869 104.601C26.4513 105.479 25.2037 104.829 25.459 103.29L28.5527 89.8205C19.7581 85.5496 12.4081 76.806 15.9736 66.4888C18.3012 59.7542 24.9896 54.9336 31.4032 52.4261C32.8455 51.8618 36.9315 50.4512 38.313 50.4414C39.3661 50.4341 40.0228 51.5675 39.4439 52.4553C39.1107 52.966 34.5675 54.024 33.5435 54.3815C17.1459 60.0776 10.5231 76.215 27.575 86.3912C29.0829 87.2911 31.8897 87.741 31.2232 89.9299L28.723 100.624L42.3698 91.2409C44.0067 91.1144 45.9451 91.5376 47.5649 91.54C48.0805 91.54 48.5256 91.3479 49.0145 91.3333C52.1763 91.2457 55.1168 90.9806 58.208 90.2413C58.2275 88.0572 57.6316 84.3384 60.6645 84.0514C63.8896 83.7474 67.5864 84.2995 70.865 84.0563C78.5238 78.4307 80.0342 69.2104 73.6012 61.8458C72.9761 61.1308 70.1597 58.8835 70.004 58.5259C69.5127 57.4047 70.2448 56.2373 71.5144 56.6459C72.1662 56.855 74.574 59.1267 75.1504 59.7493C80.6447 65.6789 81.9678 73.5494 77.5899 80.5856C76.8189 81.8236 75.7488 82.8353 74.9632 84.0587H82.3375C82.9941 84.0587 84.6018 85.861 84.4316 86.6976C84.0278 91.6033 84.9715 97.3724 84.4316 102.173C84.2589 103.703 83.3103 104.72 81.7951 105L60.8542 104.995C59.8741 105.087 58.2153 103.596 58.2153 102.718V92.795L58.2129 92.8023ZM60.7618 86.6125V102.178L61.0342 102.451H81.6054L81.8778 102.178V86.8849L81.6054 86.6125H60.7594H60.7618Z" fill="#03111A"/>
<path d="M27.9425 15.105C28.604 14.9713 30.6616 14.9761 31.3645 15.0588C34.0667 15.3823 32.6098 18.4249 34.4947 18.8481C36.1924 19.23 36.4915 17.3645 38.3765 17.8801C39.2715 18.1258 41.6599 20.6114 41.7936 21.5746C42.0223 23.2284 40.1422 23.5738 40.8767 25.3931C41.4896 26.9156 44.1674 25.6119 44.5444 28.2776C44.6636 29.124 44.6684 31.454 44.272 32.1617C43.3697 33.7767 41.1442 32.85 40.7746 34.4918C40.4097 36.1067 42.0709 36.5153 41.7523 38.1911C41.5577 39.215 39.0964 41.6447 38.0481 41.7882C36.4672 42.0071 35.9297 40.1757 34.2296 40.8713C32.8092 41.4502 33.7845 43.3618 32.1647 44.2666C31.457 44.663 29.1318 44.6582 28.2806 44.539C25.5249 44.1499 27.0183 41.2069 25.1334 40.7716C23.2436 40.3362 22.7401 42.8 20.5366 41.3602C19.9407 40.971 17.9731 38.894 17.8393 38.2324C17.4599 36.3913 19.4737 36.0046 18.7514 34.2242C18.1506 32.7455 15.4436 33.8813 15.0788 31.527C14.9742 30.8484 14.9791 28.9537 15.0618 28.2581C15.3804 25.6022 18.4425 26.9399 18.8511 25.1279C19.2329 23.4279 17.3675 23.1311 17.8831 21.2462C18.0996 20.4582 20.5804 18.0017 21.3878 17.8339C23.2168 17.4569 23.6741 19.4926 25.396 18.7484C26.7872 18.1477 25.829 15.5331 27.9401 15.105H27.9425ZM30.6981 17.6369L28.891 17.6928C28.2733 21.1441 24.7004 22.4842 21.7989 20.609L20.5706 21.8883C22.5577 24.5126 21.0911 28.3822 17.7931 28.8029L17.6399 30.6952C20.9963 31.2448 22.5553 34.7763 20.6047 37.6292L21.8937 39.0618C24.5156 37.0309 28.39 38.5072 28.8083 41.8271L30.7006 41.9804C31.3062 38.4246 34.8304 37.1088 37.8268 39.0083L39.055 37.729C36.9658 34.7398 38.5929 31.3543 42.0198 30.5979L41.9323 28.8856C38.4591 28.2679 37.1142 24.712 39.021 21.7959L37.7368 20.5725C34.8255 22.5109 31.2916 21.0833 30.7006 17.632L30.6981 17.6369Z" fill="#03111A"/>
<path d="M98.0324 54.9754C99.5355 54.664 100.946 55.4083 102.072 56.3155C110.13 62.7972 99.6206 81.4105 91.2053 83.2857C88.0168 83.9959 82.1504 82.269 83.6681 78.1125C83.9891 77.232 85.7695 74.1553 86.4456 73.6105C88.2989 72.1196 89.9552 73.343 91.7647 74.0289C92.8835 73.7394 97.0133 66.4649 96.8188 65.2269C96.7288 64.648 95.2987 64.2005 94.8244 63.7481C93.9099 62.8774 93.6083 61.547 93.9488 60.3577C94.1337 59.7156 95.9943 56.4225 96.4466 55.9385C96.7823 55.5785 97.5703 55.0726 98.0324 54.9778V54.9754ZM98.5699 57.5072C98.2999 57.5997 96.3226 61.0533 96.3348 61.3987C96.6534 62.3059 97.8816 62.3861 98.548 63.1182C98.8326 63.4295 99.2801 64.2735 99.3458 64.6845C99.7033 66.927 96.9987 71.5092 95.6829 73.3795C94.2455 75.4225 92.937 77.3366 90.1595 76.2397C89.5004 75.9795 88.7367 75.1088 87.9657 75.6754C87.8052 75.7946 86.0078 78.937 85.9713 79.134C85.7427 80.3549 89.0383 81.0311 89.9601 80.9508C96.4296 80.3865 104.215 66.46 102.048 60.528C101.664 59.4748 99.7763 57.0938 98.5699 57.5072Z" fill="#2787AD"/>
<path d="M63.9924 75.5516C64.6248 76.2375 64.2575 77.6555 63.2312 77.6992H32.0801C30.3216 77.259 30.7594 75.2403 32.4498 75.1357L62.6839 75.1309C63.022 75.1284 63.7857 75.3255 63.9924 75.5492V75.5516Z" fill="#2787AD"/>
<path d="M31.3158 67.9947C30.2384 66.9732 31.3304 65.8034 32.6341 65.6745C39.449 64.9959 47.3656 66.1828 54.2973 65.6793C56.1603 65.5164 56.8243 67.9996 54.8494 68.2282C47.548 67.7515 39.4708 68.8509 32.2644 68.2331C31.9652 68.2063 31.542 68.2088 31.3183 67.9972L31.3158 67.9947Z" fill="#2787AD"/>
<path d="M90.0206 22.4746C89.0185 23.2966 87.3817 22.3213 87.9313 21.025L91.1637 15.5186C92.3117 14.4217 93.7515 15.4019 93.2626 16.8903L90.0181 22.4746H90.0206Z" fill="#2787AD"/>
<path d="M97.8572 35.1384C98.8763 34.9876 103.719 34.9511 104.444 35.3719C105.336 35.8899 105.18 37.4392 103.986 37.6265C103.084 37.7675 98.1102 37.7846 97.3003 37.5997C95.9991 37.3006 96.0842 35.401 97.8548 35.1384H97.8572Z" fill="#2787AD"/>
<path d="M101.129 23.1169C102.539 22.8177 103.415 24.0168 102.559 25.0918C102.335 25.3739 97.7697 28.0639 97.3052 28.2122C95.751 28.7035 94.8438 27.4291 95.7996 26.1619L101.129 23.1169Z" fill="#2787AD"/>
<path d="M67.4509 89.0057C67.8377 88.9351 67.9812 89.0519 68.2998 89.1784C69.5086 89.6599 74.5626 92.5688 75.5719 93.3763C76.9218 94.4586 76.0219 95.2417 74.9493 95.9714C73.4511 96.9929 70.2139 98.9313 68.6014 99.6342C67.5507 100.094 66.5583 100.053 66.4051 98.7197C66.0914 96.0225 66.641 92.7463 66.4124 89.9834C66.4829 89.5724 67.0618 89.0762 67.4534 89.0057H67.4509ZM68.954 92.6199V96.4432C69.8515 95.9008 70.9484 95.4095 71.8118 94.8404C72.0039 94.714 72.2763 94.6483 72.2326 94.3516L68.954 92.6199Z" fill="#03111A"/>
<path d="M29.5987 22.0245C40.2394 21.8081 40.1226 38.6289 28.6307 37.4541C19.7801 36.5494 19.9527 22.2215 29.5987 22.0245ZM29.5962 24.5734C23.4551 24.8045 22.9783 33.7743 28.5285 34.825C36.5936 36.3524 37.0046 24.2937 29.5962 24.5734Z" fill="#2787AD"/>
</svg>
