<svg width="120" height="120" viewBox="0 0 120 120" fill="none" xmlns="http://www.w3.org/2000/svg">
<path d="M100.166 26.5398H76.4508C76.4259 26.5398 76.4016 26.5421 76.377 26.5435C75.5079 25.7277 74.5742 24.9702 73.5784 24.2812C72.9793 23.8672 72.1584 24.0168 71.7439 24.6151C71.3298 25.2138 71.4792 26.0353 72.0779 26.4496C77.901 30.4781 81.3773 37.1046 81.3773 44.175C81.3773 56.0513 71.7151 65.7135 59.8388 65.7135C47.9627 65.7135 38.3005 56.0513 38.3005 44.175C38.3005 32.2989 47.9627 22.6367 59.8388 22.6367C62.1964 22.6367 64.5134 23.0148 66.7252 23.7607C67.4153 23.9939 68.1633 23.6227 68.3957 22.9327C68.6284 22.2428 68.2577 21.4948 67.5677 21.2623C65.0838 20.4247 62.4834 20 59.8388 20C46.5086 20 35.6638 30.8448 35.6638 44.175C35.6638 57.5052 46.5086 68.3502 59.8388 68.3502C73.169 68.3502 84.014 57.5052 84.014 44.175C84.014 38.665 82.1317 33.3965 78.7947 29.1765H100.166C101.378 29.1765 102.363 30.1621 102.363 31.3737V72.8676H91.9356C91.2073 72.8676 90.6172 73.4577 90.6172 74.186C90.6172 74.9142 91.2073 75.5043 91.9356 75.5043H102.363V82.428C102.363 83.6397 101.378 84.6253 100.166 84.6253H19.834C18.6223 84.6253 17.6367 83.6397 17.6367 82.428V75.5043H85.296C86.0242 75.5043 86.6143 74.9142 86.6143 74.186C86.6143 73.4577 86.0242 72.8676 85.296 72.8676H17.6367V31.3737C17.6367 30.1621 18.6223 29.1765 19.834 29.1765H35.5555C36.2838 29.1765 36.8739 28.5864 36.8739 27.8581C36.8739 27.1299 36.2838 26.5398 35.5555 26.5398H19.834C17.1684 26.5398 15 28.7084 15 31.3737V82.4278C15 85.0932 17.1684 87.2618 19.834 87.2618H48.7317V97.5651H44.7517C44.0234 97.5651 43.4333 98.1552 43.4333 98.8834C43.4333 99.6117 44.0234 100.202 44.7517 100.202H74.9259C75.6542 100.202 76.2443 99.6117 76.2443 98.8834C76.2443 98.1552 75.6542 97.5651 74.9259 97.5651H70.9459V87.2618H100.166C102.832 87.2618 105 85.0932 105 82.4278V31.3737C105 28.7084 102.832 26.5398 100.166 26.5398ZM68.3094 97.5652H51.3684V87.262H68.3094V97.5652Z" fill="#03111A"/>
<path d="M50.4451 33.6438C50.1639 32.1534 48.8589 31.0713 47.3419 31.0713H45.9321C45.2039 31.0713 44.6138 31.6614 44.6138 32.3896C44.6138 33.1179 45.2039 33.708 45.9321 33.708H47.3419C47.5924 33.708 47.8077 33.8866 47.8541 34.1329L51.7558 54.7984C51.8734 55.4212 52.4176 55.8721 53.0513 55.8721H53.9407C53.5514 56.3073 53.3125 56.8802 53.3125 57.5102C53.3125 58.869 54.4141 59.9706 55.7729 59.9706C57.1317 59.9706 58.2333 58.869 58.2333 57.5102C58.2333 56.8802 57.9946 56.3073 57.6051 55.8721H63.0286C62.6393 56.3073 62.4004 56.8802 62.4004 57.5102C62.4004 58.869 63.502 59.9706 64.8608 59.9706C66.2196 59.9706 67.3212 58.869 67.3212 57.5102C67.3212 56.8802 67.0825 56.3073 66.6929 55.8721H67.8793C68.6076 55.8721 69.1977 55.282 69.1977 54.5537C69.1977 53.8255 68.6076 53.2354 67.8793 53.2354H54.1436L53.6057 50.3865H68.3393C68.9728 50.3865 69.5165 49.9361 69.6346 49.3135L71.9746 36.9689C71.9761 36.961 71.9776 36.9531 71.9789 36.9452C72.0574 36.4838 71.9296 36.0141 71.6278 35.6564C71.326 35.2987 70.8845 35.0935 70.4163 35.0935H50.7188L50.4451 33.6438ZM52.4114 44.0584H56.0083L56.2781 47.7498H53.1086L52.4114 44.0584ZM61.8259 44.0584L61.5561 47.7498H58.9218L58.652 44.0584H61.8259ZM58.4594 41.4216L58.1895 37.7304H62.2884L62.0186 41.4216H58.4594ZM64.2 47.7498L64.4698 44.0584H67.9475L67.2477 47.7498H64.2ZM68.4474 41.4216H64.6627L64.9325 37.7304H69.1472L68.4474 41.4216ZM55.5456 37.7304L55.8154 41.4216H51.9136L51.2166 37.7304H55.5456Z" fill="#2787AD"/>
<path d="M23.5869 63.459H31.3847C32.113 63.459 32.7031 62.8689 32.7031 62.1406C32.7031 61.4124 32.113 60.8223 31.3847 60.8223H23.5869C22.8587 60.8223 22.2686 61.4124 22.2686 62.1406C22.2686 62.8689 22.8587 63.459 23.5869 63.459Z" fill="#03111A"/>
<path d="M23.5869 69.4053H38.137C38.8653 69.4053 39.4554 68.8152 39.4554 68.0869C39.4554 67.3587 38.8653 66.7686 38.137 66.7686H23.5869C22.8587 66.7686 22.2686 67.3587 22.2686 68.0869C22.2686 68.8152 22.8587 69.4053 23.5869 69.4053Z" fill="#03111A"/>
<path d="M93.2097 34.1504C92.4815 34.1504 91.8914 34.7405 91.8914 35.4688V38.7683H88.5918C87.8635 38.7683 87.2734 39.3584 87.2734 40.0867C87.2734 40.815 87.8635 41.4051 88.5918 41.4051H91.8914V44.7046C91.8914 45.4329 92.4815 46.023 93.2097 46.023C93.938 46.023 94.5281 45.4329 94.5281 44.7046V41.4051H97.8275C98.5558 41.4051 99.1459 40.815 99.1459 40.0867C99.1459 39.3584 98.5558 38.7683 97.8275 38.7683H94.5281V35.4688C94.5281 34.7407 93.9378 34.1504 93.2097 34.1504Z" fill="#03111A"/>
</svg>
