<svg width="121" height="120" viewBox="0 0 121 120" fill="none" xmlns="http://www.w3.org/2000/svg">
<path d="M104.894 58.8427H101.224C99.4859 58.8427 98.134 57.4908 98.134 55.7526C98.134 54.0144 99.4859 52.6625 101.224 52.6625H104.894C103.542 50.1518 100.838 48.4136 97.5546 48.7998C94.4644 49.1861 91.9537 51.6968 91.5674 54.787C90.988 59.0359 94.2713 62.7054 98.5202 62.7054C101.224 62.7054 103.735 61.1603 104.894 58.8427Z" stroke="#2787AD" stroke-width="2" stroke-miterlimit="10" stroke-linecap="round" stroke-linejoin="round"/>
<path d="M92.1469 52.6621H82.8765" stroke="#2787AD" stroke-width="2" stroke-miterlimit="10" stroke-linecap="round" stroke-linejoin="round"/>
<path d="M92.1469 58.8428H82.8765" stroke="#2787AD" stroke-width="2" stroke-miterlimit="10" stroke-linecap="round" stroke-linejoin="round"/>
<path d="M37.6834 96.1166C37.2971 96.8891 36.5246 97.4685 35.5589 97.4685H34.207C33.0482 97.4685 31.8894 96.5029 31.6962 95.3441C31.5031 94.5715 30.9237 93.799 30.1512 93.4127C29.958 93.4127 29.7649 93.2196 29.5718 93.2196C28.9924 92.8333 28.0267 93.0265 27.4473 93.4127C27.061 93.799 26.4816 93.9921 25.9022 93.9921C25.3228 93.9921 24.5503 93.799 24.164 93.2196L23.1984 92.2539C22.2327 91.4814 22.2327 89.9363 23.0052 88.9707C23.3915 88.7775 23.5846 88.1981 23.5846 87.6187C23.5846 87.2325 23.5846 87.0393 23.3915 86.6531C23.3915 86.4599 23.1984 86.2668 23.1984 86.0737C22.8121 85.3011 22.2327 84.7217 21.267 84.5286C20.1082 84.3355 19.1426 83.3698 19.1426 82.0179V80.6659C19.1426 79.5071 20.1082 78.3483 21.267 78.1552C22.0396 77.9621 22.8121 77.3827 23.1984 76.6101C23.1984 76.417 23.3915 76.2239 23.3915 76.0307C23.5846 75.6445 23.5846 74.6788 23.0052 73.9063C22.2327 72.9406 22.4258 71.5887 23.1984 70.623L24.164 69.6574C24.9366 69.078 26.2885 68.8848 27.4473 69.6574C28.2198 70.2368 28.9924 70.2368 29.7649 69.8505C29.958 69.8505 30.1512 69.6574 30.3443 69.6574C31.1168 69.2711 31.6962 68.6917 31.8894 67.726C32.0825 66.5672 33.0482 65.6016 34.4001 65.6016H35.752C36.7177 65.6016 37.4902 66.181 37.8765 66.9535" stroke="#2787AD" stroke-width="2" stroke-miterlimit="10" stroke-linecap="round" stroke-linejoin="round"/>
<path d="M37.6831 86.0736C36.9106 86.653 35.9449 86.8462 34.9792 86.8462C32.0822 86.8462 29.7646 84.5286 29.7646 81.6316C29.7646 78.7346 32.0822 76.417 34.9792 76.417C35.9449 76.417 36.9106 76.8033 37.6831 77.1895" stroke="#2787AD" stroke-width="2" stroke-miterlimit="10" stroke-linecap="round" stroke-linejoin="round"/>
<path d="M82.877 34.3135V75.2577" stroke="#03111A" stroke-width="2" stroke-miterlimit="10" stroke-linecap="round" stroke-linejoin="round"/>
<path d="M37.6836 45.515V19.2489C37.6836 16.9313 39.6149 15 41.7394 15H78.6278C80.9454 15 82.6836 16.9313 82.6836 19.2489V20.6009" stroke="#03111A" stroke-width="2" stroke-miterlimit="10" stroke-linecap="round" stroke-linejoin="round"/>
<path d="M82.8767 88.0042V100.751C82.8767 103.069 80.9454 105 78.8209 105H41.7394C39.4218 105 37.6836 103.069 37.6836 100.751V58.2617" stroke="#03111A" stroke-width="2" stroke-miterlimit="10" stroke-linecap="round" stroke-linejoin="round"/>
<path d="M63.3702 20.4072H57.1899" stroke="#03111A" stroke-width="2" stroke-miterlimit="10" stroke-linecap="round" stroke-linejoin="round"/>
<path d="M57.1899 99.5918H63.3702" stroke="#03111A" stroke-width="2" stroke-miterlimit="10" stroke-linecap="round" stroke-linejoin="round"/>
<path d="M101.031 87.4249H47.3402C45.2157 87.4249 43.4775 85.6867 43.4775 83.5622V79.6996C43.4775 77.5751 45.2157 75.8369 47.3402 75.8369H100.838C102.963 75.8369 104.701 77.5751 104.701 79.6996V83.5622C104.894 85.6867 103.156 87.4249 101.031 87.4249Z" stroke="#03111A" stroke-width="2" stroke-miterlimit="10" stroke-linecap="round" stroke-linejoin="round"/>
<path d="M90.6021 87.0389V76.0303" stroke="#03111A" stroke-width="2" stroke-miterlimit="10" stroke-linecap="round" stroke-linejoin="round"/>
<path d="M60.6665 58.0685H17.5978C16.439 58.0685 15.6665 57.296 15.6665 56.1372V47.6393C15.6665 46.4805 16.439 45.708 17.5978 45.708H60.4734C61.6322 45.708 62.4047 46.4805 62.4047 47.6393V56.1372C62.5978 57.1029 61.6322 58.0685 60.6665 58.0685Z" stroke="#03111A" stroke-width="2" stroke-miterlimit="10" stroke-linecap="round" stroke-linejoin="round"/>
<path d="M50.4307 57.8756V45.9014" stroke="#03111A" stroke-width="2" stroke-miterlimit="10" stroke-linecap="round" stroke-linejoin="round"/>
<path d="M25.1299 51.8887H45.0226" stroke="#03111A" stroke-width="2" stroke-miterlimit="10" stroke-linecap="round" stroke-linejoin="round"/>
<path d="M21.0742 51.8887H21.4605" stroke="#03111A" stroke-width="2" stroke-miterlimit="10" stroke-linecap="round" stroke-linejoin="round"/>
<path d="M98.5206 82.4041C97.748 83.1767 96.5892 83.1767 95.8167 82.4041C95.0442 81.6316 95.0442 80.2797 95.8167 79.5071C96.5892 78.7346 97.748 78.7346 98.5206 79.5071C99.2931 80.4728 99.2931 81.6316 98.5206 82.4041Z" stroke="#2787AD" stroke-width="2" stroke-miterlimit="10" stroke-linecap="round" stroke-linejoin="round"/>
<path d="M98.7139 82.5977L100.259 84.1427" stroke="#2787AD" stroke-width="2" stroke-miterlimit="10" stroke-linecap="round" stroke-linejoin="round"/>
<path d="M98.5209 28.52C98.5209 31.6101 96.2033 33.9277 93.3063 33.9277C91.7613 33.9277 78.4351 33.9277 77.0832 33.9277C74.7656 33.9277 72.6411 31.9964 72.6411 29.4857C72.6411 26.975 74.5724 25.0436 77.0832 25.0436C77.6626 25.0436 78.242 25.2368 78.6282 25.4299C79.4008 22.726 81.9115 20.6016 85.0016 20.6016C87.5124 20.6016 89.6368 21.9535 90.7956 24.078C91.5682 23.4986 92.5338 23.3054 93.4995 23.3054C96.2033 23.1123 98.5209 25.623 98.5209 28.52Z" stroke="#03111A" stroke-width="2" stroke-miterlimit="10" stroke-linecap="round" stroke-linejoin="round"/>
<path d="M25.9023 25.8151C19.722 20.4074 14.1212 31.4159 25.9023 36.6305C37.6834 31.2228 32.0826 20.2142 25.9023 25.8151Z" stroke="#2787AD" stroke-width="2" stroke-miterlimit="10" stroke-linecap="round" stroke-linejoin="round"/>
</svg>
