<svg width="120" height="120" viewBox="0 0 120 120" fill="none" xmlns="http://www.w3.org/2000/svg">
<path d="M84.3857 57.3788V53.0477C84.3857 52.3384 84.8486 51.7182 85.5231 51.4993C86.3262 51.2387 87.1016 50.9171 87.8439 50.5393C88.4764 50.2173 89.2423 50.328 89.744 50.8298L91.6388 52.7245C92.2727 53.3585 93.3008 53.3585 93.9347 52.7245L97.0838 49.5754C97.7178 48.9414 97.7178 47.9134 97.0838 47.2794L95.1891 45.3847C94.6873 44.8829 94.5769 44.1171 94.8987 43.4845C95.2764 42.7423 95.598 41.9669 95.8586 41.1637C96.0775 40.489 96.6978 40.0263 97.4071 40.0263H100.088C100.985 40.0263 101.712 39.2995 101.712 38.4029V33.9494C101.712 33.0529 100.985 32.326 100.088 32.326H97.4071C96.6978 32.326 96.0775 31.8631 95.8586 31.1886C95.598 30.3855 95.2764 29.6101 94.8987 28.8678C94.5767 28.2353 94.6873 27.4694 95.1891 26.9676L97.0838 25.0729C97.7178 24.439 97.7178 23.4109 97.0838 22.7769L93.9347 19.6278C93.3008 18.9939 92.2727 18.9939 91.6388 19.6278L89.744 21.5226C89.2423 22.0243 88.4764 22.1348 87.8439 21.813C87.1016 21.4353 86.3262 21.1138 85.5231 20.8531C84.8484 20.6341 84.3857 20.0139 84.3857 19.3046V16.6234C84.3857 15.7269 83.6588 15 82.7623 15H78.3088C77.4122 15 76.6854 15.7269 76.6854 16.6234V19.3046C76.6854 20.0139 76.2225 20.6341 75.548 20.8531C74.7448 21.1137 73.9692 21.4353 73.2271 21.813C72.5946 22.135 71.8288 22.0245 71.327 21.5226L69.4323 19.6278C68.7983 18.9939 67.7703 18.9939 67.1363 19.6278L63.9872 22.7769C63.3532 23.4109 63.3532 24.439 63.9872 25.0729L65.8819 26.9676C66.3837 27.4694 66.4942 28.2353 66.1724 28.8678C65.7946 29.6101 65.4732 30.3855 65.2126 31.1886C65.1512 31.3778 65.058 31.5502 64.9401 31.7005" stroke="#2787AD" stroke-width="3" stroke-miterlimit="10" stroke-linejoin="round"/>
<path d="M76.9136 42.5371C77.9822 43.147 79.217 43.4988 80.5355 43.4988C84.5799 43.4988 87.8586 40.2202 87.8586 36.1757C87.8586 32.1313 84.5801 28.8525 80.5355 28.8525C80.0002 28.8525 79.479 28.9116 78.9763 29.0206" stroke="#03111A" stroke-width="3" stroke-miterlimit="10" stroke-linecap="round" stroke-linejoin="round"/>
<path d="M73.9688 32.9346C73.4855 33.9119 73.2124 35.012 73.2124 36.1762C73.2124 36.2787 73.2158 36.3801 73.2205 36.4813" stroke="#03111A" stroke-width="3" stroke-miterlimit="10" stroke-linecap="round" stroke-linejoin="round"/>
<path d="M47.957 87.8876V55.332" stroke="#03111A" stroke-width="3" stroke-miterlimit="10" stroke-linejoin="round"/>
<path d="M19.291 38.7812L47.9566 55.3313L76.6221 38.7812" stroke="#03111A" stroke-width="3" stroke-miterlimit="10" stroke-linejoin="round"/>
<path d="M98.5243 88.8511C103.56 80.8426 102.593 70.1398 95.6204 63.1673C87.5236 55.0705 74.3963 55.0705 66.2996 63.1673C59.1436 70.3233 58.3122 81.4089 63.8053 89.4779" stroke="#03111A" stroke-width="3" stroke-miterlimit="10" stroke-linecap="round" stroke-linejoin="round"/>
<path d="M69.8323 83.7228C67.3101 78.9656 68.052 72.9317 72.058 68.9257C76.9745 64.0092 84.9458 64.0092 89.8623 68.9257C94.7788 73.8422 94.7788 81.8134 89.8623 86.7299" stroke="#03111A" stroke-width="3" stroke-miterlimit="10" stroke-linecap="round" stroke-linejoin="round"/>
<path d="M76.3535 94.2255V99.0241C76.3535 102.325 79.0291 105 82.3295 105H94.0828C97.3833 105 100.059 102.325 100.059 99.0241V92.8485C100.059 89.548 97.3833 86.8724 94.0828 86.8724H85.2431V78.6821C85.2431 76.272 83.369 74.2194 80.9604 74.1337C78.4317 74.0439 76.3535 76.067 76.3535 78.5756V87.8874" stroke="#2787AD" stroke-width="3" stroke-miterlimit="10" stroke-linecap="round" stroke-linejoin="round"/>
<path d="M19 58.7323V70.7952C19 71.5715 19.4141 72.289 20.0865 72.6771L46.8701 88.1406C47.5425 88.5288 48.3708 88.5288 49.0432 88.1406L60.5557 81.4938C59.4028 75.0433 61.3147 68.1523 66.2996 63.1675C69.3134 60.1537 73.0244 58.2626 76.9135 57.4924V39.8682C76.9135 39.0919 76.4993 38.3744 75.8269 37.9863L49.0433 22.5226C48.371 22.1344 47.5427 22.1344 46.8703 22.5226L20.0865 37.9862C19.4141 38.3744 19 39.0917 19 39.868V52.3943" stroke="#03111A" stroke-width="3" stroke-miterlimit="10" stroke-linecap="round" stroke-linejoin="round"/>
</svg>
