<svg width="120" height="120" viewBox="0 0 120 120" fill="none" xmlns="http://www.w3.org/2000/svg">
<path d="M102 87V33C101.995 28.8599 98.6401 25.505 94.5 25.5H79.0905C79.1196 24.6723 78.8053 23.8694 78.222 23.2815L75.7185 20.7795C74.7086 19.7673 73.1248 19.6085 71.934 20.4L68.085 22.9305C67.288 22.5302 66.4616 22.1912 65.613 21.9165L64.713 17.4165C64.4345 16.0118 63.202 14.9999 61.77 15H58.23C56.8004 15 55.5694 16.0088 55.2885 17.4105L54.3525 21.924C53.5054 22.2024 52.681 22.5454 51.8865 22.95L48.0675 20.4C46.8778 19.6061 45.2931 19.7624 44.2815 20.7735L41.7795 23.2815C41.1947 23.8686 40.8797 24.6719 40.9095 25.5H25.5C21.3599 25.505 18.005 28.8599 18 33V87C16.3431 87 15 88.3431 15 90V94.5C15.0066 100.296 19.7038 104.993 25.5 105H94.5C100.296 104.993 104.993 100.296 105 94.5V90C105 88.3431 103.657 87 102 87ZM46.4025 22.899L50.223 25.449C51.1338 26.0447 52.2936 26.1076 53.2635 25.614C53.9181 25.2853 54.5959 25.005 55.2915 24.7755C56.3311 24.4397 57.1094 23.5703 57.3285 22.5L58.2285 18H61.7685L62.6685 22.5C62.8901 23.5674 63.6679 24.4335 64.7055 24.768C65.4015 24.9978 66.0798 25.278 66.735 25.6065C67.7042 26.1008 68.864 26.0379 69.774 25.4415L73.5945 22.8915L76.098 25.395L73.548 29.2155C72.9517 30.1261 72.8887 31.2863 73.383 32.256C73.7117 32.9106 73.992 33.5884 74.2215 34.284C74.5556 35.3273 75.4268 36.109 76.5 36.3285L81 37.2285V40.7685L76.5 41.6685C75.4326 41.8901 74.5665 42.6679 74.232 43.7055C74.0022 44.4015 73.722 45.0798 73.3935 45.735C72.8992 46.7042 72.9621 47.864 73.5585 48.774L76.1085 52.5945L73.605 55.098L69.7845 52.548C68.8732 51.9538 67.7142 51.8909 66.744 52.383C66.0894 52.7117 65.4116 52.992 64.716 53.2215C63.6727 53.5556 62.891 54.4268 62.6715 55.5L61.7715 60H58.23L57.33 55.5C57.1084 54.4326 56.3306 53.5665 55.293 53.232C54.597 53.0022 53.9187 52.722 53.2635 52.3935C52.833 52.1771 52.3579 52.0641 51.876 52.0635C51.2892 52.0623 50.7152 52.2345 50.226 52.5585L46.4055 55.1085L43.902 52.605L46.452 48.7845C47.0483 47.8739 47.1113 46.7137 46.617 45.744C46.2883 45.0894 46.008 44.4116 45.7785 43.716C45.4444 42.6727 44.5732 41.891 43.5 41.6715L39 40.7715V37.23L43.5 36.33C44.5674 36.1084 45.4335 35.3306 45.768 34.293C45.9978 33.597 46.278 32.9187 46.6065 32.2635C47.1008 31.2943 47.0379 30.1345 46.4415 29.2245L43.8915 25.404L46.4025 22.899ZM21 33C21 30.5147 23.0147 28.5 25.5 28.5H42.3435L43.9305 30.915C43.5302 31.712 43.1912 32.5384 42.9165 33.387L38.4165 34.287C37.0118 34.5655 35.9999 35.798 36 37.23V40.77C36 42.1996 37.0088 43.4306 38.4105 43.7115L42.924 44.6475C43.2024 45.4946 43.5454 46.319 43.95 47.1135L41.4 50.9325C40.6061 52.1222 40.7624 53.7069 41.7735 54.7185L44.277 57.2205C45.2876 58.2317 46.8714 58.3893 48.0615 57.597L51.9105 55.0695C52.7075 55.4698 53.5339 55.8088 54.3825 56.0835L55.2825 60.5835C55.5614 61.9898 56.7963 63.0023 58.23 63H61.77C63.1996 63 64.4306 61.9912 64.7115 60.5895L65.6475 56.076C66.4946 55.7976 67.319 55.4546 68.1135 55.05L71.9325 57.6C73.1222 58.3939 74.7069 58.2376 75.7185 57.2265L78.2205 54.723C79.2317 53.7124 79.3893 52.1286 78.597 50.9385L76.0695 47.085C76.4698 46.288 76.8088 45.4616 77.0835 44.613L81.5835 43.713C82.9882 43.4345 84.0001 42.202 84 40.77V37.23C84 35.8004 82.9912 34.5694 81.5895 34.2885L77.076 33.3525C76.7976 32.5054 76.4546 31.681 76.05 30.8865L77.6415 28.5H94.5C96.9853 28.5 99 30.5147 99 33V87H21V33ZM46.5 90H73.5V91.5C73.5 93.1569 72.1569 94.5 70.5 94.5H49.5C47.8431 94.5 46.5 93.1569 46.5 91.5V90ZM102 94.5C101.995 98.6401 98.6401 101.995 94.5 102H25.5C21.3599 101.995 18.005 98.6401 18 94.5V90H43.5V91.5C43.5 94.8137 46.1863 97.5 49.5 97.5H70.5C73.8137 97.5 76.5 94.8137 76.5 91.5V90H102V94.5Z" fill="#03111A"/>
<path d="M37.5 93H33C32.1716 93 31.5 93.6716 31.5 94.5C31.5 95.3284 32.1716 96 33 96H37.5C38.3284 96 39 95.3284 39 94.5C39 93.6716 38.3284 93 37.5 93Z" fill="#03111A"/>
<path d="M24 96C24.8284 96 25.5 95.3284 25.5 94.5C25.5 93.6716 24.8284 93 24 93C23.1716 93 22.5 93.6716 22.5 94.5C22.5 95.3284 23.1716 96 24 96Z" fill="#03111A"/>
<path d="M28.5 96C29.3284 96 30 95.3284 30 94.5C30 93.6716 29.3284 93 28.5 93C27.6716 93 27 93.6716 27 94.5C27 95.3284 27.6716 96 28.5 96Z" fill="#03111A"/>
<path d="M60 51C66.6274 51 72 45.6274 72 39C72 32.3726 66.6274 27 60 27C53.3726 27 48 32.3726 48 39C48.0074 45.6243 53.3757 50.9926 60 51ZM60 30C64.9706 30 69 34.0294 69 39C69 43.9706 64.9706 48 60 48C55.0294 48 51 43.9706 51 39C51.005 34.0315 55.0315 30.005 60 30Z" fill="#2787AD"/>
<path d="M51 70.5C51 63.0442 44.9558 57 37.5 57C30.0442 57 24 63.0442 24 70.5C24 77.9558 30.0442 84 37.5 84C44.9521 83.9909 50.9909 77.9521 51 70.5ZM37.5 81C31.701 81 27 76.299 27 70.5C27 64.701 31.701 60 37.5 60C43.299 60 48 64.701 48 70.5C47.9934 76.2962 43.2962 80.9934 37.5 81Z" fill="#03111A"/>
<path d="M82.5 84C89.9558 84 96 77.9558 96 70.5C96 63.0442 89.9558 57 82.5 57C75.0442 57 69 63.0442 69 70.5C69.0091 77.9521 75.0479 83.9909 82.5 84ZM82.5 60C88.299 60 93 64.701 93 70.5C93 76.299 88.299 81 82.5 81C76.701 81 72 76.299 72 70.5C72.0066 64.7038 76.7038 60.0066 82.5 60Z" fill="#03111A"/>
<path d="M44.5606 64.9392C43.9749 64.3536 43.0254 64.3536 42.4396 64.9392L34.5001 72.8787L32.5606 70.9392C31.9721 70.3707 31.0365 70.3788 30.4579 70.9575C29.8793 71.5361 29.8712 72.4716 30.4396 73.0602L33.4396 76.0602C34.0254 76.6458 34.9749 76.6458 35.5606 76.0602L44.5606 67.0602C45.1462 66.4744 45.1462 65.5249 44.5606 64.9392Z" fill="#2787AD"/>
<path d="M76.9397 76.0606C77.5254 76.6462 78.4749 76.6462 79.0607 76.0606L82.5002 72.6211L85.9397 76.0606C86.5282 76.6291 87.4638 76.621 88.0424 76.0424C88.621 75.4638 88.6291 74.5282 88.0607 73.9396L84.6212 70.5001L88.0607 67.0606C88.6291 66.4721 88.621 65.5365 88.0424 64.9579C87.4638 64.3793 86.5282 64.3712 85.9397 64.9396L82.5002 68.3791L79.0607 64.9396C78.4721 64.3712 77.5365 64.3793 76.9579 64.9579C76.3793 65.5365 76.3712 66.4721 76.9397 67.0606L80.3792 70.5001L76.9397 73.9396C76.3541 74.5254 76.3541 75.4749 76.9397 76.0606Z" fill="#2787AD"/>
</svg>
