<svg width="120" height="120" viewBox="0 0 120 120" fill="none" xmlns="http://www.w3.org/2000/svg">
<path d="M84.6277 35.3496H92.8811C95.4449 35.3496 99.1379 39.0377 99.1379 41.6063V46.9568H104.941V73.0766H99.1379V84.2331C99.1379 86.7968 95.4497 90.4898 92.8811 90.4898H74.4696V96.2934C79.7473 95.6706 83.7989 99.7198 83.1762 105H36.7426C36.1198 99.7198 40.1714 95.6706 45.4492 96.2934V90.4898H27.0376C26.7953 90.4898 25.6927 90.1021 25.3729 89.9785C18.2244 87.2064 21.5587 77.436 20.7494 71.5645C13.0823 66.8998 13.0848 56.0317 20.7494 51.3695C21.2728 46.7484 19.2421 40.3051 23.4149 36.9829C24.1152 36.4255 26.1968 35.3472 27.0376 35.3472H35.2911V18.5713C35.2911 17.0471 38.0947 14.7281 39.728 15.0261L80.5446 15.0358C82.0566 14.9025 84.6277 17.1634 84.6277 18.5713V35.3496ZM39.19 38.2502H55.6049V43.6006C55.6049 43.8018 56.5548 44.2404 56.8189 43.9181L65.4988 38.2599C70.195 37.8431 75.7781 38.7881 80.3677 38.255C81.2643 38.1508 81.7441 37.6056 81.7319 36.7187C81.2667 31.252 82.3232 24.8256 81.7271 19.4751C81.635 18.6585 81.3079 18.1666 80.5009 17.98L39.9024 17.9267C39.0107 17.9582 38.2934 18.358 38.1795 19.2886C38.5769 24.9031 37.6779 31.1817 38.1795 36.7187C38.2353 37.3269 38.5067 38.1072 39.1852 38.2526L39.19 38.2502ZM23.6815 41.7881V50.2233C30.2847 48.4131 37.3944 53.1844 38.0099 60.0179H43.9952V55.6658H52.7019V70.176H55.6049V49.8598H64.3115V70.176H67.2145V52.7628H75.9211V60.0179H84.6277V46.9592H96.2373V41.7905C96.2373 40.9012 94.7664 39.2316 93.9764 38.7906C91.7495 37.5523 86.9903 38.6137 84.3878 38.2453C83.7868 39.5587 82.6067 40.9303 81.0752 41.1387C76.5802 41.7517 70.8784 40.6831 66.2549 41.192C63.5675 42.5635 61.011 45.0303 58.3819 46.3801C56.848 47.1676 55.4231 47.2403 54.0177 46.0966C53.6202 45.7743 52.7019 44.3979 52.7019 43.9641V41.1532L38.8411 41.1362C37.2563 40.8455 36.1731 39.6314 35.5285 38.2429C33.0205 38.4295 30.2217 38.0176 27.7525 38.2429C25.9665 38.4053 23.9626 39.9731 23.679 41.7881H23.6815ZM102.041 49.8598H87.5307V70.176H102.041V49.8598ZM25.4553 52.8113C14.6138 54.1174 15.8957 70.8715 27.2169 70.1712C38.7369 69.4587 37.3411 51.3792 25.4553 52.8113ZM61.4109 52.7628H58.5079V70.176H61.4109V52.7628ZM73.0205 55.6634H70.1175V70.1736H73.0205V55.6634ZM49.8013 58.5664H46.8983V70.176H49.8013V58.5664ZM43.9977 62.9185H38.0123C37.3944 69.752 30.2871 74.5233 23.6839 72.7131V75.9772H96.2397V73.0742H84.6301V62.9161H75.9235V70.1712H78.8265V73.0742H41.0947V70.1712H43.9977V62.9161V62.9185ZM96.2373 78.8826H23.6815V84.0513C23.6815 85.4132 26.1241 87.6498 27.5804 87.5892L91.9821 87.5965C93.5669 87.8606 96.2373 85.5077 96.2373 84.0513V78.8826ZM71.569 90.4898H48.3522V96.2934H71.569V90.4898ZM79.9121 102.099C79.6237 100.592 77.8572 99.3563 76.3766 99.1964L43.9007 99.1891C42.2336 99.2134 40.3725 100.444 40.0091 102.099H79.9145H79.9121Z" fill="#03111A"/>
<path d="M53.7433 81.82C55.8685 81.3571 56.2368 84.2868 54.5672 84.6503C52.4421 85.1131 52.0737 82.1834 53.7433 81.82Z" fill="#2787AD"/>
<path d="M59.547 81.82C61.6722 81.3571 62.0405 84.2868 60.3709 84.6503C58.2458 85.1131 57.8774 82.1834 59.547 81.82Z" fill="#2787AD"/>
<path d="M65.3508 81.82C67.4759 81.3571 67.8442 84.2868 66.1746 84.6503C64.0495 85.1131 63.6812 82.1834 65.3508 81.82Z" fill="#2787AD"/>
<path d="M52.7038 25.1913H49.8008C49.7087 25.1913 49.7741 24.0742 48.7176 23.8295C47.6611 23.5848 44.3364 23.4006 44.0408 24.7842C43.4834 27.4062 47.1013 26.4902 48.6182 26.6453C52.8807 27.0766 54.2546 32.6161 50.5835 34.7727C49.2677 35.5457 45.359 35.5942 43.9463 35.1265C42.2621 34.5667 41.0578 32.7445 41.0917 30.9974H43.9947C43.9317 32.8826 46.9389 32.5773 48.2669 32.4561C50.3993 32.2623 50.14 29.8681 48.5795 29.5895C46.3065 29.1824 44.38 30.2898 42.3833 28.3464C39.6596 25.6954 41.4698 21.2149 45.1773 20.8417C48.6837 20.4879 52.4057 20.9871 52.7038 25.1938V25.1913Z" fill="#2787AD"/>
<path d="M70.98 20.8855C73.8661 20.4687 77.8789 20.7231 78.698 24.1374C78.9863 25.3369 78.9791 30.4693 78.7779 31.7706C78.1939 35.5508 74.1472 35.6307 71.106 35.3593C69.2838 35.197 67.6215 33.7091 67.2967 31.9135C67.0617 30.6195 67.0447 25.3563 67.3379 24.1374C67.7329 22.4994 69.325 21.1254 70.98 20.8855ZM75.5066 24.1544C74.9686 23.6165 72.4558 23.6455 71.6537 23.7352C70.8516 23.8249 70.2143 24.232 70.1077 25.0922C69.955 26.3377 69.9647 29.8344 70.1125 31.0896C70.1683 31.5719 70.3306 31.9959 70.7716 32.2431C71.358 32.5726 74.6827 32.5702 75.2643 32.2431C75.7053 31.9959 75.8676 31.5694 75.9234 31.0896C76.0712 29.8199 76.0664 26.5558 75.9234 25.2764C75.8895 24.9759 75.7053 24.3531 75.5042 24.152L75.5066 24.1544Z" fill="#2787AD"/>
<path d="M64.3137 20.8369V23.7399H59.6878C59.6441 23.7399 58.9971 24.0961 58.9269 24.1591C58.2871 24.748 58.5537 25.853 58.5077 26.6405H64.3113V29.5435H58.5077C58.3768 30.2705 58.481 32.4465 59.506 32.4465H64.3137V35.3495H58.9632C57.6571 35.3495 55.9172 33.1638 55.6895 31.911C55.4447 30.5661 55.4447 25.0775 55.83 23.8732C56.2298 22.618 57.9697 20.8393 59.3267 20.8393H64.3137V20.8369Z" fill="#2787AD"/>
<path d="M99.1402 52.7627H90.4336V55.6657H99.1402V52.7627Z" fill="#03111A"/>
<path d="M99.1402 58.5664H90.4336V61.4694H99.1402V58.5664Z" fill="#03111A"/>
<path d="M99.1402 64.3701H90.4336V67.2731H99.1402V64.3701Z" fill="#03111A"/>
<path d="M25.6342 55.7115C33.6332 54.5678 34.777 66.5748 27.1972 67.2484C19.6173 67.9221 18.5511 56.7244 25.6342 55.7115ZM25.9928 58.6097C22.4985 59.1743 23.0947 64.9876 27.1753 64.326C30.6696 63.7614 30.0735 57.9481 25.9928 58.6097Z" fill="#03111A"/>
</svg>
