<svg width="121" height="120" viewBox="0 0 121 120" fill="none" xmlns="http://www.w3.org/2000/svg">
<path d="M101.167 15H20.1665C18.9734 15.0014 17.8296 15.4759 16.986 16.3195C16.1424 17.1631 15.6679 18.3069 15.6665 19.5V85.5C15.6679 86.6931 16.1424 87.8369 16.986 88.6805C17.8296 89.5241 18.9734 89.9986 20.1665 90H51.1505L47.5505 102H42.6665V105H78.6665V102H73.7826L70.1825 90H101.167C102.36 89.9986 103.503 89.5241 104.347 88.6805C105.191 87.8369 105.665 86.6931 105.667 85.5V19.5C105.665 18.3069 105.191 17.1631 104.347 16.3195C103.503 15.4759 102.36 15.0014 101.167 15ZM70.6505 102H50.6826L54.2826 90H67.0505L70.6505 102ZM102.667 85.5C102.666 85.8977 102.508 86.279 102.227 86.5602C101.945 86.8414 101.564 86.9995 101.167 87H20.1665C19.7688 86.9995 19.3876 86.8414 19.1063 86.5602C18.8251 86.279 18.667 85.8977 18.6665 85.5V81H102.667V85.5ZM102.667 78H18.6665V19.5C18.667 19.1023 18.8251 18.721 19.1063 18.4398C19.3876 18.1586 19.7688 18.0005 20.1665 18H101.167C101.564 18.0005 101.945 18.1586 102.227 18.4398C102.508 18.721 102.666 19.1023 102.667 19.5V78Z" fill="#03111A"/>
<path d="M95.1665 40.5H75.4091C75.2121 40.5006 75.0168 40.462 74.8348 40.3866C74.6527 40.3111 74.4874 40.2003 74.3484 40.0606L70.1059 35.818C69.689 35.3988 69.1931 35.0665 68.6469 34.8403C68.1007 34.614 67.515 34.4984 66.9239 34.5H50.1665C48.9734 34.5014 47.8296 34.9759 46.986 35.8195C46.1424 36.6632 45.6679 37.807 45.6665 39V70.5C45.6679 71.6931 46.1424 72.8369 46.986 73.6805C47.8296 74.5241 48.9734 74.9986 50.1665 75H95.1665C96.3596 74.9986 97.5034 74.5241 98.347 73.6805C99.1906 72.8369 99.6651 71.6931 99.6665 70.5V45C99.6651 43.807 99.1906 42.6632 98.347 41.8195C97.5034 40.9759 96.3596 40.5014 95.1665 40.5ZM96.6665 70.5C96.666 70.8977 96.5079 71.279 96.2267 71.5602C95.9455 71.8414 95.5642 71.9996 95.1665 72H50.1665C49.7688 71.9996 49.3876 71.8414 49.1063 71.5602C48.8251 71.279 48.667 70.8977 48.6665 70.5V39C48.667 38.6023 48.8251 38.2211 49.1063 37.9399C49.3876 37.6587 49.7688 37.5005 50.1665 37.5H66.9239C67.1209 37.4995 67.3162 37.538 67.4983 37.6135C67.6803 37.6889 67.8456 37.7997 67.9846 37.9395L72.2272 42.182C72.644 42.6012 73.1399 42.9335 73.6861 43.1598C74.2323 43.386 74.818 43.5016 75.4091 43.5H95.1665C95.5642 43.5005 95.9455 43.6587 96.2267 43.9399C96.5079 44.2211 96.666 44.6023 96.6665 45V70.5Z" fill="#2787AD"/>
<path d="M62.6059 48.4395L54.0454 57.0001L62.6059 65.5608L64.7273 63.4394L58.2878 57.0001L64.7273 50.5608L62.6059 48.4395Z" fill="#03111A"/>
<path d="M68.3682 63.7979L75.8737 50.3003L78.4955 51.7582L70.99 65.2558L68.3682 63.7979Z" fill="#03111A"/>
<path d="M80.606 50.5608L87.0455 57.0001L80.606 63.4394L82.7273 65.5608L91.2878 57.0001L82.7273 48.4395L80.606 50.5608Z" fill="#03111A"/>
<path d="M50.6904 24L53.1194 29.6661L58.4763 31.8857L64.2099 29.5946L67.1759 32.5607L69.2971 30.4393L64.9331 26.0749L58.4969 28.6468L55.3957 27.3619L52.6683 21H44.6647L41.9375 27.3619L38.8361 28.6468L32.4001 26.0749L26.7416 31.7336L29.3133 38.1696L28.0284 41.2708L21.6665 43.9982V52.0018L28.0282 54.7292L29.3133 57.8304L26.7414 64.2664L32.3999 69.9251L38.8361 67.3532L42.0922 68.7024L43.2408 65.931L38.8567 64.1143L33.1231 66.4054L30.2611 63.5434L32.5522 57.8098L30.3324 52.4528L24.6665 50.0239V45.9761L30.3326 43.5472L32.5522 38.1902L30.2611 32.4566L33.1233 29.5946L38.8567 31.8857L44.2136 29.6661L46.6426 24H50.6904Z" fill="#2787AD"/>
<path d="M43.334 37.2471L41.999 34.5605C39.4966 35.803 37.3908 37.7193 35.9186 40.0938C34.4465 42.4683 33.6665 45.2067 33.6665 48.0005C33.6665 50.7943 34.4465 53.5327 35.9186 55.9072C37.3908 58.2817 39.4966 60.198 41.999 61.4404L43.334 58.7539C41.3317 57.76 39.6466 56.2267 38.4686 54.3269C37.2906 52.427 36.6665 50.2359 36.6665 48.0005C36.6665 45.765 37.2906 43.574 38.4686 41.6741C39.6466 39.7742 41.3317 38.241 43.334 37.2471Z" fill="#03111A"/>
</svg>
