<svg width="100" height="87" viewBox="0 0 100 87" fill="none" xmlns="http://www.w3.org/2000/svg">
<path d="M7.5344 74.8398C4.95048 74.8398 3.2118 76.8511 3.2118 79.4371C3.2118 82.0231 4.95048 84.0345 7.5344 84.0345C10.1183 84.0345 11.8571 82.0231 11.8571 79.4371C11.8571 76.8511 10.1183 74.8398 7.5344 74.8398ZM6.95485 71.9904C9.03164 71.9904 10.7703 73.0439 11.5914 74.1933V72.2777H14.779V86.6205H12.34C11.9295 86.6205 11.6156 86.2852 11.6156 85.9021V84.7049C10.7945 85.8542 9.07991 86.9078 6.97897 86.9078C3.01857 86.9078 0 83.5556 0 79.4611C0 75.3666 2.99446 71.9904 6.95485 71.9904ZM18.4013 72.2777H21.589V74.2172C22.4583 72.7806 24.1005 71.9904 25.9841 71.9904C29.3408 71.9904 31.5141 74.3369 31.5141 77.9765V86.6205H29.0751C28.6645 86.6205 28.3506 86.2852 28.3506 85.9021V78.5033C28.3506 76.2286 27.1915 74.8637 25.332 74.8637C23.2311 74.8637 21.589 76.492 21.589 79.5568V86.6205H19.15C18.7394 86.6205 18.4255 86.2852 18.4255 85.9021V72.2777H18.4013ZM41.56 74.8398C38.9761 74.8398 37.2374 76.8511 37.2374 79.4371C37.2374 82.0231 38.9761 84.0345 41.56 84.0345C44.1439 84.0345 45.8826 82.0231 45.8826 79.4371C45.8826 76.8511 44.1439 74.8398 41.56 74.8398ZM40.9804 71.9904C43.0572 71.9904 44.7959 73.0439 45.617 74.1933V65.0944H48.8046V86.6205H46.3656C45.9551 86.6205 45.6411 86.2852 45.6411 85.9021V84.7049C44.8201 85.8542 43.1055 86.9078 41.0046 86.9078C37.0442 86.9078 34.0256 83.5556 34.0256 79.4611C34.0256 75.3666 37.02 71.9904 40.9804 71.9904ZM52.427 72.2777H55.6146V74.8398C56.17 73.2116 57.788 72.1341 59.4301 72.1341C59.8406 72.1341 60.2511 72.158 60.6616 72.2538V75.4863C60.1062 75.3187 59.6474 75.2229 59.0679 75.2229C57.2567 75.2229 55.5904 76.7553 55.5904 79.6047V86.5965H53.1514C52.7409 86.5965 52.427 86.2613 52.427 85.8782V72.2777ZM69.2345 83.9626C71.7701 83.9626 73.5812 81.9752 73.5812 79.4371C73.5812 76.8751 71.7942 74.9116 69.2345 74.9116C66.6505 74.9116 64.8636 76.899 64.8636 79.4371C64.8877 81.9992 66.6747 83.9626 69.2345 83.9626ZM69.2345 86.9078C64.9601 86.9078 61.6518 83.6035 61.6518 79.4611C61.6518 75.2947 64.9601 71.9904 69.2345 71.9904C73.5088 71.9904 76.8172 75.2947 76.8172 79.4611C76.8172 83.6035 73.5329 86.9078 69.2345 86.9078ZM79.4011 72.2777H82.5887V86.6205H80.1497C79.7392 86.6205 79.4252 86.2852 79.4252 85.9021V72.2777H79.4011ZM80.9949 69.141C79.8357 69.141 78.8457 68.1832 78.8457 67.0099C78.8457 65.8606 79.8357 64.9268 80.9949 64.9268C82.1782 64.9268 83.0959 65.8845 83.0959 67.0099C83.0959 68.1832 82.1782 69.141 80.9949 69.141ZM92.7554 74.8398C90.1715 74.8398 88.4327 76.8511 88.4327 79.4371C88.4327 82.0231 90.1715 84.0345 92.7554 84.0345C95.3393 84.0345 97.078 82.0231 97.078 79.4371C97.0538 76.8511 95.3393 74.8398 92.7554 74.8398ZM92.1758 71.9904C94.2526 71.9904 95.9913 73.0439 96.8123 74.1933V65.0944H100V86.6205H97.561C97.1504 86.6205 96.8365 86.2852 96.8365 85.9021V84.7049C96.0154 85.8542 94.3009 86.9078 92.1999 86.9078C88.2395 86.9078 85.2209 83.5556 85.2209 79.4611C85.2209 75.3666 88.2154 71.9904 92.1758 71.9904Z" fill="black"/>
<path d="M74.4989 16.966L82.8302 2.67111C83.3132 1.85699 83.0234 0.803434 82.2023 0.324544C81.3813 -0.154346 80.3188 0.132989 79.8358 0.947102L71.4078 15.4096C64.9601 12.4883 57.7155 10.8601 50.0121 10.8601C42.2845 10.8601 35.064 12.4883 28.6163 15.4096L20.1884 0.947102C19.7054 0.132989 18.6428 -0.154346 17.8218 0.324544C17.0007 0.803434 16.7109 1.85699 17.1939 2.67111L25.5252 16.966C11.1809 24.6761 1.42478 39.0188 0 55.9476H99.9758C98.551 39.0188 88.7708 24.6761 74.4989 16.966ZM26.9741 41.8204C24.68 41.8204 22.8206 39.9766 22.8206 37.7019C22.8206 35.4272 24.68 33.5834 26.9741 33.5834C29.2683 33.5834 31.1277 35.4272 31.1277 37.7019C31.1277 39.9766 29.2683 41.8204 26.9741 41.8204ZM73.0017 41.8204C70.7076 41.8204 68.8481 39.9766 68.8481 37.7019C68.8481 35.4272 70.7076 33.5834 73.0017 33.5834C75.2958 33.5834 77.1553 35.4272 77.1553 37.7019C77.1553 39.9766 75.2958 41.8204 73.0017 41.8204Z" fill="#3DDC84"/>
</svg>
