<svg width="120" height="120" viewBox="0 0 120 120" fill="none" xmlns="http://www.w3.org/2000/svg">
<path d="M32.2215 18.4264C34.8558 16.6662 37.6383 15.169 40.5289 13.9469C47.5434 10.9812 51.0506 9.49837 55.5253 12.4647C60 15.431 60 20.2873 60 29.9999V39.9999C60 49.4279 60 54.142 62.9289 57.0709C65.8579 59.9999 70.5719 59.9999 80 59.9999H90C99.7126 59.9999 104.569 59.9999 107.535 64.4745C110.501 68.9492 109.019 72.4565 106.053 79.471C104.831 82.3616 103.334 85.1441 101.573 87.7784C96.0794 96.0008 88.2705 102.409 79.1342 106.194C69.9979 109.978 59.9445 110.968 50.2455 109.039C40.5464 107.11 31.6373 102.348 24.6447 95.3552C17.6521 88.3626 12.89 79.4534 10.9608 69.7544C9.0315 60.0553 10.0217 50.002 13.806 40.8657C17.5904 31.7294 23.999 23.9205 32.2215 18.4264Z" stroke="#2787AD" stroke-width="2"/>
<path d="M72.5 11.5752C90.0701 16.0974 103.903 29.9299 108.425 47.5" stroke="white" stroke-width="2" stroke-linecap="round"/>
</svg>
