<svg width="120" height="120" viewBox="0 0 120 120" fill="none" xmlns="http://www.w3.org/2000/svg">
<circle cx="60" cy="60" r="15" stroke="white" stroke-width="2"/>
<path d="M68.8273 10.7612C66.9895 10 64.6598 10 60.0004 10C55.341 10 53.0113 10 51.1736 10.7612C48.7233 11.7761 46.7766 13.7229 45.7616 16.1732C45.2983 17.2917 45.117 18.5925 45.046 20.49C44.9418 23.2784 43.5118 25.8595 41.0952 27.2547C38.6787 28.6498 35.7284 28.5977 33.2615 27.2938C31.5827 26.4065 30.3655 25.9131 29.1652 25.7551C26.5357 25.4089 23.8764 26.1215 21.7723 27.736C20.1942 28.9469 19.0294 30.9645 16.6996 34.9997C14.3699 39.0348 13.2051 41.0524 12.9455 43.0245C12.5993 45.654 13.3118 48.3133 14.9264 50.4174C15.6633 51.3778 16.699 52.1851 18.3064 53.1951C20.6695 54.6799 22.1899 57.2093 22.1898 60.0001C22.1896 62.7906 20.6692 65.3196 18.3064 66.8042C16.6987 67.8144 15.6629 68.6218 14.9259 69.5823C13.3113 71.6864 12.5988 74.3457 12.945 76.9751C13.2046 78.9472 14.3695 80.9648 16.6992 85C19.0289 89.0352 20.1937 91.0528 21.7718 92.2637C23.8759 93.8782 26.5352 94.5907 29.1647 94.2446C30.365 94.0866 31.5821 93.5932 33.2607 92.706C35.7278 91.402 38.6783 91.3499 41.095 92.7452C43.5117 94.1405 44.9418 96.7217 45.0461 99.5103C45.117 101.408 45.2983 102.708 45.7616 103.827C46.7766 106.277 48.7233 108.224 51.1736 109.239C53.0113 110 55.341 110 60.0004 110C64.6598 110 66.9895 110 68.8273 109.239C71.2775 108.224 73.2243 106.277 74.2392 103.827C74.7025 102.708 74.8839 101.407 74.9548 99.5099C75.0591 96.7215 76.489 94.1405 78.9054 92.7452C81.322 91.3497 84.2726 91.4018 86.7398 92.7058C88.4184 93.5929 89.6354 94.0862 90.8357 94.2442C93.4652 94.5904 96.1245 93.8778 98.2286 92.2633C99.8066 91.0524 100.971 89.0348 103.301 84.9997C105.631 80.9645 106.796 78.9469 107.055 76.9748C107.402 74.3453 106.689 71.686 105.074 69.5819C104.338 68.6215 103.302 67.8141 101.694 66.804C99.3312 65.3193 97.8109 62.7902 97.8111 59.9996C97.8112 57.2092 99.3315 54.6804 101.694 53.1959C103.302 52.1857 104.338 51.3783 105.075 50.4177C106.69 48.3136 107.402 45.6543 107.056 43.0249C106.796 41.0528 105.631 39.0352 103.302 35C100.972 30.9648 99.8071 28.9472 98.229 27.7363C96.1249 26.1218 93.4656 25.4092 90.8362 25.7554C89.6359 25.9134 88.4188 26.4068 86.7402 27.294C84.273 28.598 81.3226 28.6501 78.9059 27.2548C76.4892 25.8595 75.0591 23.2783 74.9548 20.4897C74.8838 18.5924 74.7025 17.2917 74.2392 16.1732C73.2243 13.7229 71.2775 11.7761 68.8273 10.7612Z" stroke="#2787AD" stroke-width="2"/>
</svg>
