<svg width="120" height="120" viewBox="0 0 120 120" fill="none" xmlns="http://www.w3.org/2000/svg">
<path d="M76.9647 20.2682L76.2957 21.0115L76.2957 21.0115L76.9647 20.2682ZM96.7586 38.0827L96.0896 38.826L96.0896 38.826L96.7586 38.0827ZM108.27 50.7705L107.356 51.1773L107.356 51.1773L108.27 50.7705ZM15.8579 104.142L16.565 103.435L16.565 103.435L15.8579 104.142ZM104.142 104.142L103.435 103.435L103.435 103.435L104.142 104.142ZM70 109H50V111H70V109ZM11 70V50H9V70H11ZM109 67.8145V70H111V67.8145H109ZM76.2957 21.0115L96.0896 38.826L97.4275 37.3394L77.6337 19.5249L76.2957 21.0115ZM111 67.8145C111 59.1298 111.02 54.4877 109.183 50.3636L107.356 51.1773C108.98 54.8222 109 58.9531 109 67.8145H111ZM96.0896 38.826C102.676 44.754 105.733 47.5324 107.356 51.1773L109.183 50.3636C107.347 46.2396 103.883 43.1492 97.4275 37.3394L96.0896 38.826ZM50.149 11C57.8497 11 61.4414 11.0154 64.6879 12.2612L65.4044 10.394C61.7315 8.98456 57.6982 9 50.149 9V11ZM77.6337 19.5249C72.0502 14.4998 69.0771 11.8033 65.4044 10.394L64.6879 12.2612C67.9344 13.507 70.6006 15.8859 76.2957 21.0115L77.6337 19.5249ZM50 109C40.5436 109 33.552 108.998 28.1878 108.277C22.8524 107.559 19.2771 106.147 16.565 103.435L15.1508 104.849C18.2965 107.995 22.3641 109.512 27.9213 110.259C33.4497 111.002 40.6002 111 50 111V109ZM9 70C9 79.3998 8.99788 86.5503 9.74115 92.0787C10.4883 97.6359 12.0051 101.704 15.1508 104.849L16.565 103.435C13.8528 100.723 12.4406 97.1476 11.7233 91.8122C11.0021 86.448 11 79.4564 11 70H9ZM70 111C79.3998 111 86.5503 111.002 92.0787 110.259C97.6359 109.512 101.704 107.995 104.849 104.849L103.435 103.435C100.723 106.147 97.1476 107.559 91.8122 108.277C86.448 108.998 79.4564 109 70 109V111ZM109 70C109 79.4564 108.998 86.448 108.277 91.8122C107.559 97.1476 106.147 100.723 103.435 103.435L104.849 104.849C107.995 101.704 109.512 97.6359 110.259 92.0787C111.002 86.5503 111 79.3998 111 70H109ZM11 50C11 40.5436 11.0021 33.552 11.7233 28.1878C12.4406 22.8524 13.8528 19.2771 16.565 16.565L15.1508 15.1508C12.0051 18.2965 10.4883 22.3641 9.74115 27.9213C8.99788 33.4497 9 40.6002 9 50H11ZM50.149 9C40.6994 9 33.512 8.99789 27.9591 9.74107C22.3783 10.488 18.2972 12.0043 15.1508 15.1508L16.565 16.565C19.2764 13.8536 22.8631 12.4409 28.2245 11.7234C33.6138 11.0021 40.643 11 50.149 11V9Z" fill="#2787AD"/>
<path d="M65 12.5V25C65 36.7851 65 42.6777 68.6612 46.3388C72.3223 50 78.2149 50 90 50H110" stroke="#2787AD" stroke-width="1.5"/>
<path d="M35 70L30 75L35 80M57.5 80L62.5 85L57.5 90M50 70L42.5 90" stroke="white" stroke-width="1.5" stroke-linecap="round" stroke-linejoin="round"/>
</svg>
