<svg width="25" height="24" viewBox="0 0 25 24" fill="none" xmlns="http://www.w3.org/2000/svg">
<path d="M15.8929 4.05365L15.3912 4.61112L15.8929 4.05365ZM19.8517 7.61654L19.35 8.17402L19.8517 7.61654ZM22.154 10.1541L21.4689 10.4592V10.4592L22.154 10.1541ZM3.67157 20.8284L4.2019 20.2981H4.2019L3.67157 20.8284ZM21.3284 20.8284L20.7981 20.2981L20.7981 20.2981L21.3284 20.8284ZM14.5 21.25H10.5V22.75H14.5V21.25ZM3.25 14V10H1.75V14H3.25ZM21.75 13.5629V14H23.25V13.5629H21.75ZM15.3912 4.61112L19.35 8.17402L20.3534 7.05907L16.3947 3.49618L15.3912 4.61112ZM23.25 13.5629C23.25 11.8745 23.2651 10.8055 22.8391 9.84897L21.4689 10.4592C21.7349 11.0565 21.75 11.742 21.75 13.5629H23.25ZM19.35 8.17402C20.7034 9.3921 21.2029 9.86199 21.4689 10.4592L22.8391 9.84897C22.4131 8.89241 21.6084 8.18853 20.3534 7.05907L19.35 8.17402ZM10.5298 2.75C12.1116 2.75 12.7085 2.76158 13.2405 2.96573L13.7779 1.5653C12.9261 1.23842 11.998 1.25 10.5298 1.25V2.75ZM16.3947 3.49618C15.3087 2.51878 14.6297 1.89214 13.7779 1.5653L13.2405 2.96573C13.7727 3.16993 14.2215 3.55836 15.3912 4.61112L16.3947 3.49618ZM10.5 21.25C8.59318 21.25 7.23851 21.2484 6.21085 21.1102C5.20476 20.975 4.62511 20.7213 4.2019 20.2981L3.14124 21.3588C3.88961 22.1071 4.83855 22.4392 6.01098 22.5969C7.16182 22.7516 8.63558 22.75 10.5 22.75V21.25ZM1.75 14C1.75 15.8644 1.74841 17.3382 1.90313 18.489C2.06076 19.6614 2.39288 20.6104 3.14124 21.3588L4.2019 20.2981C3.77869 19.8749 3.52502 19.2952 3.38976 18.2892C3.25159 17.2615 3.25 15.9068 3.25 14H1.75ZM14.5 22.75C16.3644 22.75 17.8382 22.7516 18.989 22.5969C20.1614 22.4392 21.1104 22.1071 21.8588 21.3588L20.7981 20.2981C20.3749 20.7213 19.7952 20.975 18.7892 21.1102C17.7615 21.2484 16.4068 21.25 14.5 21.25V22.75ZM21.75 14C21.75 15.9068 21.7484 17.2615 21.6102 18.2892C21.475 19.2952 21.2213 19.8749 20.7981 20.2981L21.8588 21.3588C22.6071 20.6104 22.9392 19.6614 23.0969 18.489C23.2516 17.3382 23.25 15.8644 23.25 14H21.75ZM3.25 10C3.25 8.09318 3.25159 6.73851 3.38976 5.71085C3.52502 4.70476 3.77869 4.12511 4.2019 3.7019L3.14124 2.64124C2.39288 3.38961 2.06076 4.33855 1.90313 5.51098C1.74841 6.66182 1.75 8.13558 1.75 10H3.25ZM10.5298 1.25C8.65538 1.25 7.17442 1.24842 6.01887 1.40307C4.84232 1.56054 3.89019 1.8923 3.14124 2.64124L4.2019 3.7019C4.62453 3.27928 5.20596 3.02525 6.21785 2.88982C7.25075 2.75158 8.61311 2.75 10.5298 2.75V1.25Z" fill="white"/>
<path d="M13.5 2.5V5C13.5 7.35702 13.5 8.53553 14.2322 9.26777C14.9645 10 16.143 10 18.5 10H22.5" stroke="white" stroke-width="1.5"/>
<path d="M7.5 14L6.5 15L7.5 16M12 16L13 17L12 18M10.5 14L9 18" stroke="white" stroke-width="1.5" stroke-linecap="round" stroke-linejoin="round"/>
</svg>
