<svg width="120" height="120" viewBox="0 0 120 120" fill="none" xmlns="http://www.w3.org/2000/svg">
<path d="M42.8207 29.8948C39.7706 31.0469 37.5851 33.9726 37.5851 37.4205C37.5851 38.7483 37.9388 39.9839 38.5097 41.0904C36.0904 42.0205 34.3594 44.3532 34.3594 47.0978C34.3594 49.8431 36.0904 52.175 38.5097 53.1059C37.9388 54.2124 37.5851 55.4481 37.5851 56.7751C37.5851 60.2237 39.7706 63.1494 42.8207 64.3008C42.5789 64.9765 42.4238 65.6947 42.4238 66.4524C42.4238 70.0105 45.3172 72.9039 48.8753 72.9039C49.6786 72.9039 50.4402 72.7377 51.1498 72.4699C52.1948 74.627 54.3866 76.1296 56.9398 76.1296C60.4979 76.1296 63.3913 73.2362 63.3913 69.6781V24.5174C63.3913 20.9601 60.4979 18.0659 56.9398 18.0659C54.3866 18.0659 52.1948 19.5693 51.1498 21.7256C50.4402 21.4579 49.6786 21.2917 48.8753 21.2917C45.3172 21.2917 42.4238 24.1859 42.4238 27.7432C42.4238 28.5016 42.5789 29.2191 42.8207 29.8948ZM48.8753 24.5174C50.6544 24.5174 52.1011 25.9642 52.1011 27.7432H55.3269C55.3269 26.1933 54.7543 24.7868 53.84 23.674C54.2141 22.3068 55.4545 21.2917 56.9398 21.2917C58.7188 21.2917 60.1655 22.7384 60.1655 24.5174V69.6781C60.1655 71.4572 58.7188 72.9039 56.9398 72.9039C55.4545 72.9039 54.2141 71.8895 53.84 70.5216C54.7543 69.4088 55.3269 68.003 55.3269 66.4524H52.1011C52.1011 68.2314 50.6544 69.6781 48.8753 69.6781C47.0963 69.6781 45.6496 68.2314 45.6496 66.4524C45.6496 64.6733 47.0963 63.2266 48.8753 63.2266V60.0008C47.3042 60.0008 45.8819 60.5883 44.7628 61.5239C42.5175 61.1057 40.8109 59.14 40.8109 56.7751C40.8109 54.1077 42.9822 51.9364 45.6496 51.9364C48.3178 51.9364 50.4882 54.1077 50.4882 56.7751H53.714C53.714 52.3286 50.0968 48.7107 45.6496 48.7107C43.8272 48.7107 42.1623 49.3415 40.8109 50.3661V50.3235C39.0319 50.3235 37.5851 48.8768 37.5851 47.0978C37.5851 45.3187 39.0319 43.872 40.8109 43.872V43.8303C42.1623 44.8549 43.8272 45.4849 45.6496 45.4849C50.0968 45.4849 53.714 41.8677 53.714 37.4205H50.4882C50.4882 40.0887 48.3178 42.2591 45.6496 42.2591C42.9822 42.2591 40.8109 40.0887 40.8109 37.4205C40.8109 35.0563 42.5175 33.0906 44.7628 32.6724C45.8819 33.608 47.3042 34.1947 48.8753 34.1947V30.969C47.0963 30.969 45.6496 29.5223 45.6496 27.7432C45.6496 25.9642 47.0963 24.5174 48.8753 24.5174Z" fill="#0058E6"/>
<path d="M81.1273 21.2917C80.324 21.2917 79.5632 21.4579 78.8537 21.7256C77.8078 19.5693 75.6161 18.0659 73.0629 18.0659C69.5048 18.0659 66.6113 20.9601 66.6113 24.5174V69.6781C66.6113 73.2362 69.5048 76.1296 73.0629 76.1296C75.6161 76.1296 77.8078 74.627 78.8537 72.4699C79.5632 72.7377 80.324 72.9039 81.1273 72.9039C84.6854 72.9039 87.5788 70.0105 87.5788 66.4524C87.5788 65.6947 87.4245 64.9765 87.1819 64.3008C90.2321 63.1494 92.4175 60.2237 92.4175 56.7751C92.4175 55.4481 92.0647 54.2124 91.4937 53.1059C93.913 52.175 95.6433 49.8431 95.6433 47.0978C95.6433 44.3532 93.913 42.0205 91.4937 41.0904C92.0647 39.9839 92.4175 38.7483 92.4175 37.4205C92.4175 33.9726 90.2321 31.0469 87.1819 29.8948C87.4245 29.2191 87.5788 28.5016 87.5788 27.7432C87.5788 24.1859 84.6854 21.2917 81.1273 21.2917ZM89.1917 37.4205C89.1917 40.0887 87.0213 42.2591 84.3531 42.2591C81.6857 42.2591 79.5144 40.0887 79.5144 37.4205H76.2886C76.2886 41.8677 79.9066 45.4849 84.3531 45.4849C86.1754 45.4849 87.8403 44.8549 89.1917 43.8303V43.872C90.9708 43.872 92.4175 45.3187 92.4175 47.0978C92.4175 48.8768 90.9708 50.3235 89.1917 50.3235V50.3661C87.8403 49.3415 86.1754 48.7107 84.3531 48.7107C79.9066 48.7107 76.2886 52.3286 76.2886 56.7751H79.5144C79.5144 54.1077 81.6857 51.9364 84.3531 51.9364C87.0213 51.9364 89.1917 54.1077 89.1917 56.7751C89.1917 59.14 87.4851 61.1057 85.2406 61.5239C84.1207 60.5883 82.6984 60.0008 81.1273 60.0008V63.2266C82.9064 63.2266 84.3531 64.6733 84.3531 66.4524C84.3531 68.2314 82.9064 69.6781 81.1273 69.6781C79.3482 69.6781 77.9015 68.2314 77.9015 66.4524H74.6758C74.6758 68.003 75.2483 69.4088 76.1626 70.5216C75.7886 71.8895 74.5482 72.9039 73.0629 72.9039C71.2838 72.9039 69.8371 71.4572 69.8371 69.6781V24.5174C69.8371 22.7384 71.2838 21.2917 73.0629 21.2917C74.5482 21.2917 75.7886 22.3068 76.1626 23.674C75.2483 24.7868 74.6758 26.1933 74.6758 27.7432H77.9015C77.9015 25.9642 79.3482 24.5174 81.1273 24.5174C82.9064 24.5174 84.3531 25.9642 84.3531 27.7432C84.3531 29.5223 82.9064 30.969 81.1273 30.969V34.1947C82.6984 34.1947 84.1207 33.608 85.2406 32.6724C87.4851 33.0906 89.1917 35.0563 89.1917 37.4205Z" fill="#0058E6"/>
<path d="M90.4055 20.0598C82.8687 12.9759 72.9977 9.42409 62.6383 10.0762L62.8384 13.2949C72.3038 12.7066 81.3133 15.9433 88.1972 22.4098C95.0843 28.8818 98.8779 37.6511 98.8779 47.0976C98.8779 58.4815 93.2036 69.0377 83.6988 75.3364C80.4202 77.51 77.9395 80.6106 76.4109 84.1939H53.5367C51.9868 80.5846 49.4966 77.462 46.2126 75.2687C36.4171 68.7219 30.7886 57.7885 31.1548 46.0171L27.9306 45.9171C27.5289 58.8076 33.6946 70.7829 44.4209 77.9495C46.7899 79.5332 48.6815 81.6895 49.9999 84.1939H45.6526V87.4197H51.2867C51.5994 88.4647 51.8498 89.5358 51.9766 90.6454H48.8784V93.8712H52.1042V98.7098C52.1042 99.6021 52.8271 100.323 53.7171 100.323H55.33C55.33 105.66 59.6701 110 65.0073 110C70.3444 110 74.6846 105.66 74.6846 100.323H76.2975C77.1882 100.323 77.9103 99.6021 77.9103 98.7098V93.8712H81.1361V90.6454H78.0238C78.1379 89.5374 78.3655 88.4632 78.6719 87.4197H84.3619V84.1939H79.9446C81.244 81.7171 83.1247 79.5876 85.4818 78.0267C95.8891 71.1247 102.104 59.5636 102.104 47.0976C102.104 36.9014 97.8391 27.0453 90.4055 20.0598ZM65.0073 106.774C61.4491 106.774 58.5557 103.881 58.5557 100.323H71.4588C71.4588 103.881 68.5654 106.774 65.0073 106.774ZM74.6846 97.0969H55.33V93.8712H74.6846V97.0969ZM74.7996 90.6454H55.2008C55.0929 89.5476 54.9189 88.4687 54.6542 87.4197H75.3012C75.0445 88.4671 74.8956 89.5507 74.7996 90.6454Z" fill="#03111A"/>
<path d="M26.2926 21.2919C29.8507 21.2919 32.7441 24.1861 32.7441 27.7434C32.7441 28.6357 33.4671 29.3563 34.357 29.3563C35.2477 29.3563 35.9699 28.6357 35.9699 27.7434C35.9699 24.1861 38.8633 21.2919 42.4214 21.2919C43.3121 21.2919 44.0343 20.5713 44.0343 19.679C44.0343 18.7875 43.3121 18.0661 42.4214 18.0661C38.8633 18.0661 35.9699 15.1727 35.9699 11.6146C35.9699 10.7231 35.2477 10.0017 34.357 10.0017C33.4671 10.0017 32.7441 10.7231 32.7441 11.6146C32.7441 15.1727 29.8507 18.0661 26.2926 18.0661C25.4027 18.0661 24.6797 18.7875 24.6797 19.679C24.6797 20.5713 25.4027 21.2919 26.2926 21.2919ZM34.357 16.958C35.0737 18.0354 36.0006 18.9631 37.078 19.679C36.0006 20.3957 35.0737 21.3226 34.357 22.3999C33.6411 21.3226 32.7134 20.3957 31.636 19.679C32.7134 18.9631 33.6411 18.0354 34.357 16.958Z" fill="#03111A"/>
<path d="M32.7417 37.4203C33.6324 37.4203 34.3546 36.6997 34.3546 35.8074C34.3546 34.9159 33.6324 34.1945 32.7417 34.1945C29.1836 34.1945 26.2902 31.3011 26.2902 27.743C26.2902 26.8515 25.568 26.1301 24.6773 26.1301C23.7874 26.1301 23.0644 26.8515 23.0644 27.743C23.0644 31.3011 20.171 34.1945 16.6129 34.1945C15.723 34.1945 15 34.9159 15 35.8074C15 36.6997 15.723 37.4203 16.6129 37.4203C20.171 37.4203 23.0644 40.3145 23.0644 43.8718C23.0644 44.7641 23.7874 45.4847 24.6773 45.4847C25.568 45.4847 26.2902 44.7641 26.2902 43.8718C26.2902 40.3145 29.1836 37.4203 32.7417 37.4203ZM24.6773 38.5284C23.9614 37.451 23.0337 36.5241 21.9564 35.8074C23.0337 35.0915 23.9599 34.1638 24.6773 33.0865C25.394 34.1638 26.3209 35.09 27.3983 35.8074C26.3209 36.5241 25.394 37.451 24.6773 38.5284Z" fill="#03111A"/>
</svg>
