<svg width="120" height="120" viewBox="0 0 120 120" fill="none" xmlns="http://www.w3.org/2000/svg">
<path d="M106.987 51.9827L102.174 50.0594C101.106 45.5153 99.305 41.1756 96.8407 37.2113L98.8773 32.4414C99.2154 31.6846 99.3333 30.8479 99.2174 30.0272C99.1016 29.2065 98.7567 28.4351 98.2224 27.8015C96.3897 25.6228 94.3728 23.606 92.1941 21.7733C91.562 21.2372 90.7914 20.8903 89.971 20.7723C89.1505 20.6544 88.3135 20.7703 87.5559 21.1066L82.7843 23.1533C78.82 20.6889 74.4804 18.8876 69.9363 17.82L68.0096 12.9985C67.7042 12.2361 67.1959 11.5718 66.5399 11.0777C65.8839 10.5835 65.1051 10.2783 64.288 10.1952C61.4346 9.93494 58.5633 9.93494 55.7099 10.1952C54.8908 10.2783 54.1102 10.5846 53.4531 11.0806C52.7961 11.5767 52.2877 12.2435 51.9833 13.0085L50.06 17.8217C45.5159 18.8892 41.1762 20.6906 37.2119 23.1549L32.442 21.1166C31.6848 20.779 30.8477 20.6616 30.0268 20.7777C29.2059 20.8939 28.4343 21.2389 27.8004 21.7733C25.6221 23.6064 23.6053 25.6232 21.7722 27.8015C21.2381 28.4345 20.8932 29.2053 20.777 30.0253C20.6609 30.8454 20.7782 31.6816 21.1156 32.4381L23.1539 37.2113C20.6895 41.1756 18.8882 45.5153 17.8206 50.0594L12.9991 51.986C12.2367 52.2915 11.5724 52.7997 11.0783 53.4557C10.5841 54.1118 10.2789 54.8905 10.1958 55.7076C9.93474 58.561 9.93474 61.4323 10.1958 64.2858C10.2789 65.1049 10.5852 65.8854 11.0813 66.5425C11.5773 67.1996 12.2441 67.708 13.0091 68.0124L17.8223 69.9357C18.8898 74.4798 20.6912 78.8194 23.1555 82.7837L21.1172 87.5536C20.7786 88.3103 20.6604 89.1471 20.7763 89.968C20.8921 90.7888 21.2374 91.5602 21.7722 92.1935C23.6055 94.3728 25.6229 96.3902 27.8021 98.2234C28.4351 98.7576 29.2059 99.1025 30.0259 99.2186C30.846 99.3348 31.6822 99.2174 32.4387 98.8801L37.2119 96.8418C41.1762 99.3061 45.5159 101.107 50.06 102.175L51.9866 106.997C52.2924 107.76 52.8009 108.424 53.4571 108.919C54.1133 109.414 54.8923 109.72 55.7099 109.805C57.1748 109.935 58.6681 109.998 60.1214 109.998C61.5748 109.998 62.9897 109.935 64.288 109.805C65.1066 109.72 65.8862 109.413 66.5428 108.916C67.1993 108.42 67.7077 107.754 68.013 106.99L69.9363 102.177C74.4804 101.109 78.82 99.3078 82.7843 96.8435L87.5542 98.8801C88.3109 99.2187 89.1477 99.3369 89.9686 99.221C90.7894 99.1052 91.5608 98.76 92.1941 98.2251C94.3732 96.3929 96.3901 94.376 98.2224 92.1969C98.7574 91.564 99.1031 90.7931 99.2195 89.9726C99.336 89.1521 99.2185 88.3154 98.8807 87.5586L96.8424 82.7854C99.3067 78.8211 101.108 74.4814 102.176 69.9373L106.997 68.009C107.76 67.7032 108.425 67.1948 108.92 66.5386C109.415 65.8824 109.721 65.1034 109.805 64.2858C110.065 61.4295 110.065 58.5556 109.805 55.6993C109.719 54.8818 109.411 54.1035 108.914 53.4485C108.417 52.7935 107.751 52.2866 106.987 51.9827ZM106.487 63.9908C106.458 64.196 106.375 64.39 106.247 64.5525C106.118 64.7151 105.949 64.8405 105.756 64.9158L100.121 67.164C99.8664 67.2656 99.6412 67.4282 99.4647 67.6375C99.2883 67.8468 99.1661 68.0963 99.109 68.364C98.096 73.1189 96.2182 77.6473 93.5691 81.7238C93.4203 81.953 93.3301 82.2154 93.3066 82.4877C93.283 82.76 93.3268 83.034 93.4341 83.2854L95.8157 88.8669C95.9072 89.0568 95.9421 89.269 95.9164 89.4782C95.8907 89.6874 95.8054 89.8848 95.6707 90.0469C93.9552 92.0871 92.0665 93.9752 90.0258 95.6901C89.8633 95.8197 89.6671 95.9 89.4603 95.9216C89.2536 95.9432 89.045 95.9051 88.8592 95.8118L83.281 93.4319C83.0296 93.3246 82.7556 93.2808 82.4833 93.3043C82.211 93.3279 81.9486 93.418 81.7194 93.5668C77.6429 96.216 73.1145 98.0937 68.3596 99.1067C68.0919 99.1638 67.8424 99.286 67.6331 99.4625C67.4238 99.6389 67.2612 99.8642 67.1596 100.118L64.913 105.742C64.8373 105.939 64.7094 106.112 64.543 106.242C64.3765 106.373 64.1778 106.455 63.968 106.482C61.3169 106.722 58.6494 106.722 55.9982 106.482C55.7929 106.453 55.599 106.37 55.4364 106.241C55.2739 106.113 55.1485 105.943 55.0732 105.75L52.8316 100.12C52.73 99.8659 52.5674 99.6406 52.3581 99.4641C52.1489 99.2877 51.8993 99.1655 51.6316 99.1084C46.8767 98.0954 42.3483 96.2176 38.2719 93.5685C38.043 93.4189 37.7805 93.3282 37.508 93.3046C37.2356 93.2811 36.9615 93.3254 36.7103 93.4335L31.1287 95.8151C30.9387 95.9056 30.7268 95.9401 30.5179 95.9147C30.309 95.8894 30.1116 95.8051 29.9487 95.6718C27.909 93.9552 26.0209 92.066 24.3055 90.0253C24.1768 89.8623 24.0971 89.6661 24.0756 89.4596C24.054 89.253 24.0916 89.0446 24.1838 88.8586L26.5638 83.2804C26.6711 83.029 26.7149 82.755 26.6913 82.4827C26.6678 82.2104 26.5776 81.948 26.4288 81.7188C23.7797 77.6423 21.9019 73.1139 20.8889 68.359C20.8318 68.0913 20.7096 67.8418 20.5332 67.6325C20.3567 67.4232 20.1315 67.2606 19.8773 67.159L14.2524 64.9191C14.0553 64.8432 13.8825 64.7151 13.7525 64.5487C13.6225 64.3823 13.5401 64.1837 13.514 63.9741C13.2714 61.3225 13.2714 58.6542 13.514 56.0026C13.543 55.7978 13.6258 55.6044 13.7541 55.4421C13.8823 55.2799 14.0514 55.1547 14.244 55.0793L19.8756 52.831C20.1298 52.7294 20.3551 52.5668 20.5315 52.3575C20.7079 52.1483 20.8301 51.8987 20.8872 51.631C21.9002 46.8761 23.778 42.3477 26.4271 38.2713C26.576 38.042 26.6661 37.7797 26.6897 37.5073C26.7132 37.235 26.6694 36.9611 26.5621 36.7097L24.1805 31.1264C24.0897 30.9365 24.0549 30.7246 24.0803 30.5156C24.1057 30.3066 24.1902 30.1091 24.3238 29.9465C26.0403 27.9077 27.9289 26.0202 29.9687 24.3049C30.1316 24.1762 30.3277 24.0962 30.5342 24.0744C30.7407 24.0526 30.9491 24.0897 31.1354 24.1816L36.7136 26.5615C36.965 26.6688 37.2389 26.7126 37.5113 26.6891C37.7836 26.6655 38.0459 26.5754 38.2752 26.4265C42.3517 23.7774 46.8801 21.8996 51.635 20.8866C51.9027 20.8295 52.1522 20.7073 52.3615 20.5309C52.5708 20.3545 52.7334 20.1292 52.8349 19.875L55.0815 14.2518C55.1575 14.0547 55.2855 13.8819 55.4519 13.7519C55.6183 13.6219 55.8169 13.5395 56.0265 13.5134C58.6782 13.2716 61.3464 13.2716 63.998 13.5134C64.2028 13.5424 64.3963 13.6252 64.5585 13.7535C64.7207 13.8817 64.846 14.0508 64.9214 14.2434L67.1646 19.875C67.2662 20.1292 67.4288 20.3545 67.6381 20.5309C67.8474 20.7073 68.0969 20.8295 68.3646 20.8866C73.1195 21.8996 77.6479 23.7774 81.7243 26.4265C81.9536 26.5754 82.216 26.6655 82.4883 26.6891C82.7606 26.7126 83.0346 26.6688 83.286 26.5615L88.8675 24.1799C89.0576 24.0895 89.2694 24.0549 89.4783 24.0803C89.6872 24.1057 89.8847 24.1899 90.0475 24.3232C92.0867 26.0393 93.9742 27.9279 95.6891 29.9681C95.8176 30.1311 95.8974 30.3272 95.9193 30.5336C95.9411 30.7401 95.904 30.9485 95.8124 31.1348L93.4324 36.713C93.3252 36.9644 93.2814 37.2383 93.3049 37.5107C93.3284 37.783 93.4186 38.0453 93.5674 38.2746C96.2166 42.3511 98.0943 46.8795 99.1073 51.6343C99.1644 51.9021 99.2866 52.1516 99.4631 52.3609C99.6395 52.5702 99.8648 52.7328 100.119 52.8343L105.742 55.0809C105.937 55.1555 106.108 55.281 106.238 55.4443C106.368 55.6075 106.452 55.8027 106.481 56.0093V56.0259C106.721 58.6776 106.722 61.3457 106.482 63.9974L106.487 63.9908Z" fill="#03111A"/>
<path d="M59.998 23.3315C52.7461 23.3315 45.6572 25.482 39.6275 29.5109C33.5978 33.5398 28.8982 39.2662 26.1231 45.966C23.3479 52.6659 22.6218 60.0382 24.0366 67.1507C25.4513 74.2631 28.9434 80.7964 34.0713 85.9242C39.1991 91.052 45.7323 94.5441 52.8448 95.9589C59.9573 97.3736 67.3296 96.6475 74.0294 93.8724C80.7293 91.0972 86.4557 86.3977 90.4846 80.368C94.5135 74.3383 96.6639 67.2493 96.6639 59.9975C96.6529 50.2765 92.7863 40.9567 85.9125 34.0829C79.0387 27.2091 69.719 23.3426 59.998 23.3315ZM87.9724 41.9362L85.1041 43.6645C83.5297 41.2288 81.6116 39.0334 79.4093 37.1463C79.2435 36.9975 79.0496 36.8835 78.8391 36.811C78.6285 36.7385 78.4056 36.7089 78.1834 36.724C77.9612 36.739 77.7443 36.7985 77.5454 36.8988C77.3466 36.9991 77.1699 37.1383 77.0258 37.308C76.8816 37.4778 76.773 37.6747 76.7062 37.8872C76.6395 38.0997 76.616 38.3233 76.6371 38.545C76.6583 38.7667 76.7236 38.9819 76.8294 39.1779C76.9351 39.3739 77.079 39.5468 77.2526 39.6862C81.9096 43.6236 85.0744 49.0397 86.2185 55.0298C87.3625 61.0199 86.4164 67.2212 83.5383 72.5977C80.6601 77.9741 76.0242 82.2002 70.405 84.5698C64.7859 86.9394 58.5237 87.309 52.6648 85.617L53.7214 82.4337C56.8516 83.3346 60.1374 83.5604 63.3614 83.0961C66.5854 82.6318 69.674 81.488 72.4227 79.7404C72.6079 79.6235 72.7682 79.4713 72.8946 79.2925C73.0209 79.1137 73.1108 78.9117 73.1591 78.6981C73.2074 78.4846 73.2131 78.2636 73.176 78.0478C73.1389 77.832 73.0596 77.6256 72.9427 77.4405C72.8258 77.2553 72.6736 77.095 72.4948 76.9686C72.316 76.8423 72.114 76.7524 71.9004 76.7041C71.6869 76.6558 71.4659 76.6501 71.2501 76.6872C71.0343 76.7243 70.8279 76.8036 70.6428 76.9205C69.5163 77.6311 68.3208 78.2258 67.0745 78.6954L66.1512 75.4722C68.5828 74.5106 70.7541 72.9904 72.4895 71.0344C74.2249 69.0784 75.4757 66.7415 76.1407 64.2127C76.8058 61.6838 76.8666 59.034 76.318 56.4773C75.7695 53.9206 74.627 51.5289 72.9831 49.4955C71.3391 47.462 69.2398 45.844 66.8547 44.772C64.4697 43.7001 61.8659 43.2044 59.2538 43.325C56.6418 43.4456 54.0947 44.1791 51.8186 45.4663C49.5425 46.7534 47.6012 48.5581 46.1516 50.7343C45.9049 51.1014 45.8142 51.5515 45.8994 51.9854C45.9846 52.4194 46.2387 52.8018 46.6057 53.0485C46.9728 53.2951 47.4229 53.3858 47.8569 53.3006C48.2909 53.2155 48.6732 52.9614 48.9199 52.5943C50.7019 49.9328 53.3824 48.0018 56.4712 47.1543C59.56 46.3069 62.8506 46.5997 65.7413 47.9792C68.632 49.3587 70.9294 51.7326 72.2135 54.6669C73.4976 57.6012 73.6825 60.8997 72.7344 63.9591L69.5895 62.7074C69.6578 62.4691 69.7561 62.2424 69.8011 61.9974C69.8779 61.5692 69.7841 61.1279 69.5399 60.7679C69.2957 60.4078 68.9203 60.1575 68.494 60.0705C68.0678 59.9835 67.6244 60.0666 67.2585 60.302C66.8927 60.5375 66.6335 60.9067 66.5362 61.3308C66.284 62.5664 65.6864 63.7052 64.8129 64.6149C63.9394 65.5245 62.8258 66.1678 61.6014 66.4699C60.377 66.772 59.092 66.7206 57.8956 66.3217C56.6992 65.9228 55.6406 65.1927 54.8425 64.2162C54.0444 63.2397 53.5397 62.0569 53.3869 60.805C53.2341 59.5532 53.4396 58.2837 53.9794 57.1439C54.5192 56.0042 55.3713 55.0409 56.4366 54.366C57.5019 53.691 58.7368 53.3321 59.998 53.3309C61.0336 53.3272 62.0556 53.5665 62.9819 54.0296C63.9082 54.4927 64.7129 55.1668 65.3312 55.9976C65.4625 56.1727 65.627 56.3202 65.8154 56.4317C66.0037 56.5432 66.2122 56.6165 66.4288 56.6475C66.6455 56.6784 66.8661 56.6664 67.0781 56.6121C67.2902 56.5578 67.4894 56.4622 67.6645 56.3309C67.8396 56.1996 67.9871 56.035 68.0986 55.8467C68.2101 55.6584 68.2834 55.4499 68.3144 55.2333C68.3453 55.0166 68.3333 54.796 68.279 54.584C68.2247 54.3719 68.1291 54.1727 67.9978 53.9976C66.7386 52.3186 64.9829 51.0783 62.9796 50.4525C60.9763 49.8267 58.8268 49.8471 56.8358 50.5108C54.8447 51.1745 53.1129 52.4479 51.8857 54.1505C50.6585 55.8531 49.9982 57.8987 49.9982 59.9975C49.9983 62.0725 50.6481 64.0955 51.8565 65.7824L49.4765 68.164C47.3392 65.4303 46.3596 61.9673 46.7482 58.5192C46.7728 58.3016 46.7542 58.0814 46.6936 57.871C46.633 57.6606 46.5315 57.4643 46.395 57.2931C46.2585 57.1219 46.0896 56.9793 45.898 56.8734C45.7064 56.7675 45.4958 56.7004 45.2783 56.6759C45.0607 56.6514 44.8405 56.6699 44.6301 56.7305C44.4197 56.7912 44.2234 56.8926 44.0522 57.0291C43.881 57.1656 43.7384 57.3345 43.6325 57.5261C43.5266 57.7177 43.4595 57.9283 43.435 58.1459C43.3661 58.7607 43.3316 59.3788 43.3316 59.9975C43.3369 60.8729 43.4099 61.7466 43.55 62.6108L40.3484 63.6757C40.1198 62.4629 40.0027 61.2317 39.9984 59.9975C39.9959 56.7859 40.7668 53.6209 42.246 50.7703C43.7253 47.9196 45.8692 45.4672 48.4966 43.6202C51.124 41.7733 54.1575 40.5863 57.3406 40.1596C60.5237 39.7329 63.7628 40.079 66.7839 41.1687C69.8049 42.2584 72.5191 44.0596 74.6969 46.42C76.8747 48.7804 78.4521 51.6305 79.2955 54.7294C80.139 57.8282 80.2238 61.0846 79.5427 64.2232C78.8616 67.3617 77.4347 70.2901 75.3827 72.7606C75.0998 73.1005 74.9635 73.5388 75.0038 73.9792C75.0441 74.4196 75.2578 74.826 75.5977 75.1088C75.9376 75.3917 76.376 75.528 76.8163 75.4877C77.2567 75.4474 77.6631 75.2338 77.946 74.8938C80.778 71.4859 82.5806 67.3418 83.1428 62.9465C83.705 58.5513 83.0034 54.0868 81.1203 50.0758C79.2372 46.0648 76.2505 42.6732 72.5097 40.2981C68.769 37.923 64.429 36.6626 59.998 36.6646C59.2613 36.6646 58.5347 36.7079 57.8147 36.7746L57.2714 33.483C62.5451 32.9558 67.8572 33.9959 72.5427 36.4729C72.7358 36.5765 72.9473 36.641 73.1653 36.6627C73.3832 36.6845 73.6033 36.6631 73.813 36.5998C74.0228 36.5365 74.2179 36.4326 74.3875 36.2938C74.557 36.1551 74.6975 35.9843 74.801 35.7913C74.9045 35.5983 74.969 35.3867 74.9908 35.1688C75.0126 34.9508 74.9912 34.7307 74.9279 34.521C74.8646 34.3113 74.7606 34.1161 74.6219 33.9466C74.4832 33.7771 74.3124 33.6365 74.1194 33.533C73.936 33.4347 73.741 33.3663 73.556 33.268L75.041 30.2914C80.3012 32.9672 84.762 36.9841 87.9724 41.9362ZM38.3817 34.673L40.4984 37.2179C35.4183 41.5532 31.9338 47.4627 30.5993 54.0064C29.2648 60.5501 30.1568 67.3522 33.1335 73.3305L30.4052 75.2772C26.9356 68.6071 25.8352 60.9561 27.2844 53.5785C28.7337 46.201 32.6467 39.5348 38.3817 34.673ZM59.998 93.3301C54.4513 93.3257 48.9935 91.9361 44.1199 89.2876C39.2464 86.6391 35.1114 82.8155 32.0902 78.1638L34.8018 76.2288C35.1101 76.7055 35.4151 77.1821 35.7518 77.6438C36.0126 78.0007 36.4045 78.2394 36.8413 78.3074C37.2781 78.3754 37.724 78.2671 38.0809 78.0063C38.4378 77.7455 38.6766 77.3536 38.7445 76.9168C38.8125 76.48 38.7042 76.0341 38.4434 75.6772C36.2869 72.7188 34.7635 69.3476 33.9681 65.7741C33.1727 62.2006 33.1226 58.5015 33.8207 54.9077C34.5188 51.3139 35.9503 47.9027 38.0257 44.8869C40.1012 41.871 42.776 39.3154 45.8833 37.3796C46.0693 37.2634 46.2306 37.1117 46.358 36.9331C46.4854 36.7545 46.5764 36.5526 46.6258 36.3389C46.6751 36.1252 46.6819 35.9038 46.6458 35.6875C46.6096 35.4711 46.5311 35.264 46.4149 35.078C46.2987 34.8919 46.147 34.7306 45.9684 34.6032C45.7899 34.4758 45.5879 34.3848 45.3742 34.3355C45.1605 34.2861 44.9391 34.2793 44.7228 34.3155C44.5064 34.3517 44.2993 34.4301 44.1133 34.5463C43.78 34.7513 43.475 34.9713 43.16 35.1863L41.0184 32.6314C45.4783 29.5115 50.6398 27.5416 56.0443 26.8967C61.4488 26.2518 66.9289 26.9519 71.9977 28.9348L70.4978 31.9347C64.2955 29.6317 57.5113 29.4152 51.1748 31.3181C50.7523 31.4484 50.3988 31.7414 50.1922 32.1324C49.9856 32.5234 49.9428 32.9804 50.0732 33.403C50.2036 33.8256 50.4965 34.179 50.8875 34.3856C51.2785 34.5922 51.7356 34.635 52.1581 34.5047C52.7598 34.3197 53.3748 34.183 53.9914 34.0413L54.5348 37.3346C50.4658 38.3105 46.7347 40.3642 43.7335 43.28C40.7323 46.1957 38.5716 49.8658 37.4785 53.9049C36.3854 57.944 36.4002 62.2029 37.5214 66.2342C38.6425 70.2656 40.8286 73.9207 43.85 76.8155C44.1719 77.103 44.5929 77.2543 45.0242 77.2377C45.4555 77.2211 45.8635 77.0378 46.1624 76.7264C46.4613 76.415 46.6277 75.9997 46.6266 75.5681C46.6255 75.1365 46.457 74.7221 46.1566 74.4122C43.9689 72.3104 42.2891 69.7374 41.245 66.889L44.4233 65.8324C45.8897 69.7906 48.8103 73.0408 52.5898 74.9205C52.8198 75.0365 53.0738 75.097 53.3314 75.0972C53.7072 75.0975 54.0721 74.9709 54.3668 74.7378C54.6615 74.5047 54.8689 74.1789 54.9551 73.8132C55.0414 73.4475 55.0015 73.0633 54.842 72.7231C54.6825 72.3829 54.4127 72.1065 54.0764 71.9389C53.2874 71.5357 52.5404 71.055 51.8465 70.5039L54.2148 68.1357C55.2846 68.9029 56.4966 69.4495 57.7799 69.7435C59.0632 70.0376 60.3922 70.0732 61.6894 69.8482C62.9867 69.6233 64.2261 69.1423 65.3355 68.4334C66.4449 67.7244 67.4021 66.8017 68.1511 65.719L71.3311 66.984C70.1408 68.9212 68.4744 70.5215 66.4906 71.6324C64.5068 72.7433 62.2716 73.3279 59.998 73.3305C59.556 73.3305 59.132 73.5061 58.8195 73.8187C58.5069 74.1312 58.3313 74.5552 58.3313 74.9972C58.3313 75.4392 58.5069 75.8631 58.8195 76.1757C59.132 76.4882 59.556 76.6638 59.998 76.6638C60.987 76.6592 61.9736 76.5666 62.9463 76.3872L63.8696 79.6104C62.5947 79.8647 61.298 79.9942 59.998 79.9971C56.7837 80.0068 53.6158 79.231 50.7698 77.7371C50.378 77.5325 49.9209 77.4919 49.4991 77.6242C49.0773 77.7566 48.7254 78.0511 48.5207 78.4429C48.3161 78.8348 48.2754 79.2919 48.4078 79.7137C48.5402 80.1355 48.8347 80.4874 49.2265 80.6921C49.6665 80.9221 50.1315 81.0987 50.5865 81.2987L49.5265 84.487C47.0692 83.4464 44.7825 82.0418 42.7433 80.3204C42.5776 80.1717 42.3837 80.0577 42.1731 79.9851C41.9626 79.9126 41.7396 79.883 41.5174 79.8981C41.2952 79.9132 41.0783 79.9726 40.8795 80.073C40.6807 80.1733 40.504 80.3124 40.3598 80.4822C40.2157 80.6519 40.107 80.8489 40.0403 81.0613C39.9735 81.2738 39.95 81.4975 39.9712 81.7192C39.9923 81.9409 40.0577 82.1561 40.1634 82.3521C40.2691 82.5481 40.4131 82.7209 40.5867 82.8604C45.8512 87.3596 52.5121 89.8956 59.4358 90.0371C66.3596 90.1785 73.1184 87.9166 78.5623 83.6362C84.0063 79.3557 87.7989 73.3213 89.2948 66.5596C90.7908 59.7979 89.8977 52.7268 86.7674 46.5494L89.6391 44.8211C92.2531 49.8979 93.5167 55.5621 93.3083 61.2686C93.1 66.975 91.4266 72.5319 88.4492 77.4045C85.4718 82.2772 81.2906 86.3017 76.3078 89.0908C71.325 91.8799 65.7083 93.3399 59.998 93.3301Z" fill="#0058E6"/>
</svg>
