<svg width="120" height="120" viewBox="0 0 120 120" fill="none" xmlns="http://www.w3.org/2000/svg">
<path d="M102.639 30.7767C102.197 30.7767 101.775 30.6005 101.462 30.288L89.7246 18.5172C89.0762 17.8688 89.0762 16.8181 89.7246 16.1664L94.4794 11.4115C96.3614 9.5295 99.6366 9.5295 101.519 11.4115L108.568 18.4607C109.509 19.4017 110.027 20.6552 110.027 21.9952C110.027 23.3352 109.509 24.5888 108.568 25.5298L103.813 30.2846C103.504 30.6005 103.078 30.7767 102.639 30.7767ZM93.2525 17.3468L102.642 26.7634L106.22 23.1856C106.533 22.873 106.706 22.4507 106.706 22.0019C106.706 21.553 106.533 21.1307 106.22 20.8181L99.1711 13.7656C98.8585 13.4531 98.4429 13.2802 98.0007 13.2802C97.5618 13.2802 97.1461 13.4531 96.8303 13.7656L93.2525 17.3468Z" fill="#03111A"/>
<path d="M11.6642 110C11.232 110 10.8064 109.831 10.4872 109.515C10.0383 109.066 9.88533 108.404 10.0882 107.803L16.1697 89.9668C16.173 89.9568 16.1764 89.9469 16.1797 89.9336C16.1797 89.9336 16.1797 89.9336 16.1797 89.9302C16.2695 89.6842 16.4091 89.4747 16.5887 89.3051L68.0475 37.8496C68.6958 37.2012 69.7499 37.2012 70.3983 37.8496C71.0467 38.498 71.0467 39.552 70.3983 40.2004L19.6477 90.951L20.193 92.587L25.1241 93.5745C25.7825 93.7075 26.2979 94.2196 26.4276 94.878L27.4151 99.809L30.0253 100.68C30.7036 100.906 31.1591 101.538 31.1625 102.253C31.1625 102.965 30.7102 103.6 30.0353 103.832L12.1996 109.914C12.0234 109.97 11.8438 110 11.6642 110ZM17.8622 95.3102L14.3276 105.671L24.6885 102.137C24.5156 101.927 24.3959 101.678 24.3427 101.405L23.3851 96.6136L18.5937 95.656C18.3177 95.6028 18.0683 95.4831 17.8622 95.3102Z" fill="#03111A"/>
<path d="M87.5931 22.3053C87.1674 22.3053 86.7418 22.1424 86.416 21.8198C85.7676 21.1715 85.7676 20.1174 86.416 19.469L91.1941 14.6909C91.8425 14.0425 92.8965 14.0425 93.5449 14.6909C94.1933 15.3393 94.1933 16.3933 93.5449 17.0417L88.7668 21.8198C88.4443 22.1457 88.0187 22.3053 87.5931 22.3053Z" fill="#03111A"/>
<path d="M29.5091 103.918C29.0835 103.918 28.6579 103.755 28.332 103.433C27.6836 102.784 27.6836 101.73 28.332 101.082L79.7808 49.6328C80.4292 48.9844 81.4832 48.9844 82.1316 49.6328C82.78 50.2812 82.78 51.3352 82.1316 51.9836L30.6828 103.433C30.3603 103.755 29.9347 103.918 29.5091 103.918Z" fill="#03111A"/>
<path d="M62.1454 103.516C61.4438 103.516 60.8021 103.067 60.5693 102.382L58.4779 96.1379C55.6283 96.0182 52.8253 95.5726 50.1186 94.8079L46.1917 100.118C45.7063 100.773 44.8218 100.983 44.0936 100.607L41.0878 99.0573C40.2698 98.6384 39.9506 97.6342 40.3729 96.8195C40.7952 96.0016 41.796 95.679 42.6106 96.1046L44.3596 97.0057L48.1402 91.8885C48.5625 91.3165 49.304 91.0771 49.9823 91.2933C53.0979 92.2908 56.3665 92.8128 59.6982 92.8427C60.4064 92.8494 61.0315 93.3049 61.2576 93.9766L63.2693 99.9883L68.9685 99.0706L69.025 92.7297C69.0316 92.0148 69.4938 91.3864 70.1721 91.1636C73.2212 90.1661 76.1805 88.6532 78.967 86.6648C79.5455 86.2491 80.3236 86.2524 80.9021 86.6648L86.0726 90.3656L90.1359 86.279L86.465 81.1385C86.0527 80.5599 86.0493 79.7852 86.465 79.2066C88.3935 76.5 89.8965 73.5374 90.9305 70.4085C91.1533 69.7335 91.7818 69.2746 92.4933 69.268L98.8376 69.2114L99.752 63.5122L93.7369 61.5006C93.0652 61.2745 92.6097 60.6494 92.6031 59.9411C92.5731 56.6094 92.0511 53.3408 91.0536 50.2219C90.8374 49.5436 91.0735 48.8021 91.6488 48.3798L96.766 44.5959L94.1226 39.4187L88.0477 41.324C87.3627 41.5368 86.6279 41.2941 86.209 40.7189C85.1815 39.319 84.1441 38.0821 83.0335 36.9382C81.9396 35.8742 80.6893 34.8235 79.2496 33.7595C78.6777 33.3372 78.4349 32.5924 78.6544 31.9141L80.5863 25.8757L75.4125 23.2423L71.6285 28.3595C71.2062 28.9315 70.4614 29.1742 69.7798 28.9514C66.7008 27.9572 63.4322 27.4352 60.0673 27.4019C59.3557 27.3953 58.7273 26.9364 58.5045 26.2614L56.5194 20.2563L50.7936 21.1741L50.7404 27.5183C50.7338 28.2299 50.2749 28.8583 49.5999 29.0844C46.4677 30.1152 43.5051 31.6181 40.8018 33.5467C40.2199 33.959 39.4452 33.9556 38.8699 33.5467L33.7261 29.8725L29.6395 33.9357L33.337 39.1029C33.7493 39.6814 33.7527 40.4562 33.337 41.0347C31.3486 43.8278 29.8357 46.7871 28.8415 49.8329C28.6221 50.5112 27.9903 50.9734 27.2754 50.98L20.9312 51.0366L20.0168 56.7357L26.0285 58.7474C26.7002 58.9735 27.1557 59.5986 27.1624 60.3069C27.1923 63.6386 27.7143 66.9072 28.7118 70.0227C28.928 70.7011 28.6919 71.4426 28.1167 71.8648L23.0027 75.6455L23.7907 77.1717C24.2097 77.9896 23.8905 78.9905 23.0759 79.4094C22.2546 79.8284 21.257 79.5092 20.8381 78.6945L19.4017 75.9115C19.0292 75.1866 19.2354 74.2988 19.8904 73.8133L25.2006 69.8864C24.4325 67.1798 23.9869 64.3768 23.8705 61.5272L17.6294 59.439C16.858 59.1797 16.3858 58.4016 16.5155 57.6003L17.8788 49.1213C18.0084 48.32 18.6967 47.7281 19.5047 47.7215L26.0817 47.6649C27.0393 45.0581 28.3394 42.5177 29.9587 40.0904L26.1116 34.7237C25.6362 34.062 25.7126 33.151 26.2912 32.5757L32.3761 26.5241C32.9546 25.9555 33.8591 25.8824 34.5174 26.3512L39.8542 30.1617C42.2283 28.5823 44.7653 27.2955 47.4253 26.3179L47.4819 19.7409C47.4885 18.9296 48.0804 18.2413 48.8817 18.115L57.3939 16.7517C58.2052 16.622 58.98 17.0975 59.236 17.8723L61.2975 24.1101C64.1671 24.2298 66.9701 24.6754 69.6534 25.4401L73.5803 20.1333C74.0625 19.4783 74.9403 19.2655 75.6718 19.6412L83.3527 23.5648C84.0776 23.9339 84.4267 24.7751 84.1807 25.5532L82.179 31.8143C83.3527 32.7254 84.4068 33.6431 85.3843 34.5941C86.3686 35.6049 87.283 36.6589 88.1707 37.8061L94.4651 35.8277C95.2365 35.5816 96.0744 35.9341 96.4435 36.6589L100.367 44.3399C100.736 45.0647 100.53 45.9492 99.875 46.4313L94.5648 50.3582C95.3329 53.0649 95.7785 55.8712 95.8949 58.7208L102.139 60.809C102.911 61.0683 103.383 61.8464 103.253 62.6477L101.89 71.1267C101.76 71.928 101.072 72.5199 100.264 72.5265L93.687 72.5831C92.7095 75.2431 91.4227 77.7802 89.8433 80.1543L93.6538 85.491C94.1259 86.1494 94.0528 87.0538 93.4809 87.629L87.4293 93.7139C86.854 94.2925 85.9429 94.3656 85.2813 93.8935L79.9113 90.0497C77.4873 91.6657 74.9503 92.9658 72.3401 93.9267L72.2869 100.504C72.2802 101.315 71.6884 102.003 70.8904 102.13L62.4114 103.493C62.3217 103.51 62.2319 103.516 62.1454 103.516Z" fill="#0058E6"/>
<path d="M59.8149 84.865C58.6444 84.865 57.4674 84.7819 56.2936 84.6123C55.3859 84.4793 54.7574 83.6381 54.8871 82.7303C55.0168 81.8193 55.8447 81.1642 56.7691 81.3238C63.5256 82.3014 70.1857 80.1002 75.0104 75.2755C79.0537 71.2322 81.2815 65.8522 81.2815 60.1265C81.2815 54.4007 79.0537 49.0207 75.0104 44.9741C70.9671 40.9275 65.5872 38.703 59.8614 38.703C54.1356 38.703 48.7557 40.9275 44.7091 44.9741C40.0307 49.6525 37.7996 56.1131 38.5943 62.7001C38.704 63.6111 38.0523 64.4391 37.1412 64.5488C36.2368 64.6685 35.4022 64.0068 35.2925 63.0958C34.3781 55.488 36.955 48.0265 42.3582 42.6233C47.0333 37.9482 53.2478 35.3779 59.8614 35.3779C66.475 35.3779 72.6895 37.9482 77.3646 42.6233C82.0396 47.2983 84.6099 53.5096 84.6099 60.1265C84.6099 66.74 82.0363 72.9546 77.3646 77.6263C72.7095 82.2781 66.3386 84.865 59.8149 84.865Z" fill="#0058E6"/>
<path d="M93.7024 39.7206C93.2768 39.7206 92.8512 39.5577 92.5254 39.2352C91.877 38.5868 91.877 37.5327 92.5254 36.8844L104.053 25.353C104.702 24.7046 105.756 24.7046 106.404 25.353C107.053 26.0014 107.053 27.0554 106.404 27.7038L94.8762 39.2352C94.5536 39.5577 94.128 39.7206 93.7024 39.7206Z" fill="#03111A"/>
<path d="M31.5883 109.714C30.6706 109.714 29.9258 108.97 29.9258 108.052C29.9258 107.134 30.6706 106.223 31.5883 106.223C32.506 106.223 33.2509 106.802 33.2509 107.719V108.052C33.2509 108.97 32.506 109.714 31.5883 109.714Z" fill="#03111A"/>
<path d="M38.2563 109.714C37.3386 109.714 36.5938 108.969 36.5938 108.051C36.5938 107.134 37.3386 106.223 38.2563 106.223C39.174 106.223 39.9188 106.801 39.9188 107.719V108.051C39.9188 108.969 39.174 109.714 38.2563 109.714Z" fill="#03111A"/>
<path d="M44.8871 109.714C43.9694 109.714 43.2246 108.97 43.2246 108.052C43.2246 107.134 43.9694 106.223 44.8871 106.223C45.8049 106.223 46.5497 106.802 46.5497 107.719V108.052C46.5497 108.97 45.8049 109.714 44.8871 109.714Z" fill="#03111A"/>
<path d="M84.427 37.65C84.0014 37.65 83.5758 37.4871 83.25 37.1645C82.6016 36.5162 82.6016 35.4621 83.25 34.8137L91.2069 26.8535C91.8552 26.2051 92.9093 26.2051 93.5577 26.8535C94.2061 27.5019 94.2061 28.5559 93.5577 29.2043L85.6008 37.1645C85.2783 37.4871 84.8526 37.65 84.427 37.65Z" fill="#03111A"/>
<path d="M24.6712 97.4133C24.2456 97.4133 23.82 97.2504 23.4941 96.9279C22.8457 96.2795 22.8457 95.2254 23.4941 94.577L70.075 47.9961C70.7234 47.3477 71.7774 47.3477 72.4258 47.9961C73.0742 48.6444 73.0742 49.6985 72.4258 50.3469L25.8449 96.9245C25.5224 97.2504 25.0968 97.4133 24.6712 97.4133Z" fill="#03111A"/>
</svg>
